<?xml version="1.0" standalone="no"?><!DOCTYPE svg PUBLIC "-//W3C//DTD SVG 1.1//EN" "http://www.w3.org/Graphics/SVG/1.1/DTD/svg11.dtd"><svg width="640px" height="420px" version="1.1" xmlns="http://www.w3.org/2000/svg" xmlns:xlink="http://www.w3.org/1999/xlink" xml:space="preserve" style="fill-rule:evenodd;clip-rule:evenodd;stroke-linecap:round;stroke-linejoin:round;stroke-miterlimit:1.41421;"><g><g transform="matrix(1,0,0,1,-160,-150)"><g transform="matrix(1,0,0,1,0,91.75)"><g transform="matrix(1,0,0,1,160,-472.362)"><g transform="matrix(1,0,0,1,0,-1.75)"><path d="M90.093,572.362l459.872,0c10.0351,0 10.0351,0 10.0351,10.0402l0,299.952c0,10.0077 0,10.0077 -10,10.0077l-460,0c-10,0 -10,0 -10,-9.88138l0,-300.142c0,-9.97704 0,-9.97704 10.093,-9.97704Z" style="fill:#333;fill-rule:nonzero;"/></g><g transform="matrix(1,0,0,0.666667,0,298.787)"><path d="M0,896.362c131.865,6.2793e-06 267.701,1.875 402.5,1.875c79.8733,-1.49499e-06 159.365,-1.875 237.5,-1.875c0,6.66667 0,14.3333 0,21c0,9 0,9 -10,9l-620,0c-10,0 -10,0 -10,-9l0,-21Z" style="fill:#eee;fill-rule:nonzero;"/></g><g transform="matrix(1,0,0,1.4375,0,-392.158)"><path d="M80,892.362l480,0l80,4l-237,0.869565l-403,-0.869565l80,-4Z" style="fill:#ccc;fill-rule:nonzero;"/></g></g><g transform="matrix(1,0,0,1.00179,0,-0.210268)"><g transform="matrix(1.04762,0,0,1.075,-22.8571,-21.5013)"><path d="M275,130l410,0c5,0 5,0 5,5l0,250c0,5 0,5 -5,5l-410,0c-5,0 -5,0 -5,-5l0,-250c0,-5 0,-5 5,-5Z" style="fill:#fff;fill-rule:nonzero;"/></g><g transform="matrix(1.04762,0,0,1.09035,-22.8571,-23.4921)"><path d="M273.344,130c-3.34961,0.06836 -3.34375,0.625 -3.34375,5l0,125l420,0l0,-125c0,-5 0,-5 -5,-5l-410,0c-0.625,0 -1.17773,-0.01 -1.65625,0Z" style="fill:#72bffa;fill-rule:nonzero;"/></g><g transform="matrix(1,0,0,1,160,-472.362)"><g transform="matrix(1,0,0,1,0,572.362)"><rect x="140" y="60" width="170" height="30" style="fill:#fff;fill-opacity:0.5;"/></g><rect x="140" y="680.36" width="100" height="2" style="fill:#fff;fill-opacity:0.5;"/><rect x="140" y="700.36" width="180" height="2" style="fill:#fff;fill-opacity:0.5;"/></g><g transform="matrix(1,0,0,1,160,-472.362)"><g transform="matrix(1.17647,0,0,1.21212,-40,519.92)"><path d="M187,216.5c0,9.1127 -7.61116,16.5 -17,16.5c-9.38884,0 -17,-7.3873 -17,-16.5c0,-9.1127 7.61116,-16.5 17,-16.5c9.38884,0 17,7.3873 17,16.5Z" style="fill:#ec7070;fill-opacity:0.5;fill-rule:nonzero;"/></g><g transform="matrix(1,0,0,1,0,9.98217)"><rect x="140" y="802.36" width="40" height="2" style="fill:#ccc;"/></g><g transform="matrix(1,0,0,1,0,9.98217)"><rect x="140" y="810.36" width="40" height="2" style="fill:#ccc;"/></g><g transform="matrix(1,0,0,1,0,9.98217)"><rect x="150" y="818.36" width="20" height="2" style="fill:#ccc;"/></g></g><g transform="matrix(1,0,0,1,160,-472.362)"><g transform="matrix(1.17647,0,0,1.21212,40,519.92)"><path d="M187,216.5c0,9.1127 -7.61116,16.5 -17,16.5c-9.38884,0 -17,-7.3873 -17,-16.5c0,-9.1127 7.61116,-16.5 17,-16.5c9.38884,0 17,7.3873 17,16.5Z" style="fill:#70ec80;fill-opacity:0.5;fill-rule:nonzero;"/></g><g transform="matrix(1,0,0,1,0,9.98217)"><rect x="220" y="802.36" width="40" height="2" style="fill:#ccc;"/></g><g transform="matrix(1,0,0,1,0,9.98217)"><rect x="220" y="810.36" width="40" height="2" style="fill:#ccc;"/></g><g transform="matrix(1,0,0,1,0,9.98217)"><rect x="230" y="818.36" width="20" height="2" style="fill:#ccc;"/></g></g><g transform="matrix(1,0,0,1,160,-472.362)"><g transform="matrix(1.17647,0,0,1.21212,120,519.92)"><path d="M187,216.5c0,9.1127 -7.61116,16.5 -17,16.5c-9.38884,0 -17,-7.3873 -17,-16.5c0,-9.1127 7.61116,-16.5 17,-16.5c9.38884,0 17,7.3873 17,16.5Z" style="fill:#d170ec;fill-opacity:0.5;fill-rule:nonzero;"/></g><g transform="matrix(1,0,0,1,0,9.98217)"><rect x="300" y="802.36" width="40" height="2" style="fill:#ccc;"/></g><g transform="matrix(1,0,0,1,0,9.98217)"><rect x="300" y="810.36" width="40" height="2" style="fill:#ccc;"/></g><g transform="matrix(1,0,0,1,0,9.98217)"><rect x="310" y="818.36" width="20" height="2" style="fill:#ccc;"/></g></g><g transform="matrix(1,0,0,1,-2,0)"><g transform="matrix(1,0,0,1,22,7.4648)"><rect x="560" y="270" width="100" height="120" style="fill:#eee;"/></g><g transform="matrix(1,0,0,1,22,7.4648)"><rect x="561" y="270" width="98" height="120" style="fill:#fff;"/></g><g transform="matrix(1,2.44929e-17,2.3091e-17,0.848485,22,48.873)"><rect x="560" y="270" width="100" height="20" style="fill:#333;fill-rule:nonzero;"/></g><g transform="matrix(1.65,0,0,0.499109,-357.5,188.623)"><rect x="570" y="380" width="60" height="2" style="fill:#eee;"/></g><g transform="matrix(1,0,0,1,20.5,-4.14305)"><rect x="570" y="370" width="80" height="2" style="fill:#eee;"/></g><g transform="matrix(1,0,0,1,20.5,-4.14305)"><rect x="570" y="354" width="40" height="2" style="fill:#eee;"/></g><g transform="matrix(1,0,0,1,20.5,-4.14305)"><rect x="570" y="312" width="80" height="2" style="fill:#eee;"/></g><g transform="matrix(1,0,0,1,20.5,-4.14305)"><rect x="570" y="322" width="40" height="2" style="fill:#eee;"/></g><g transform="matrix(1,0,0,1,20.5,-4.14305)"><rect x="570" y="338" width="60" height="2" style="fill:#eee;"/></g><g transform="matrix(0.5,0,0,0.5,583,-230.221)"><path d="M14,1020.36l-10,10l5.66475,0l4.33521,-4.3664l4.3353,4.3664l5.66477,0l-9.99998,-10Z" style="fill:#3ca;fill-rule:nonzero;"/></g><g transform="matrix(1,0,0,1,21,7.94974)"><rect x="564" y="278" width="10" height="2" style="fill:#fff;fill-rule:nonzero;"/></g><g transform="matrix(0.5,0,0,0.5,583,-230.246)"><path d="M14,1048.36l-10,-10l5.66475,0l4.33521,4.3664l4.3353,-4.3664l5.66477,0l-9.99998,10Z" style="fill:#fff;fill-rule:nonzero;"/></g></g></g></g><g transform="matrix(0.944444,0,0,0.944444,207.778,203.778)"><rect x="482" y="176" width="18" height="18" style="fill:#555;"/></g><g transform="matrix(0.695652,-5.84179e-17,-7.22111e-17,0.761905,263.13,160.571)"><path d="M311.75,46.5c3.17564,0 5.75,2.35051 5.75,5.25c0,2.89949 -2.57436,5.25 -5.75,5.25c-3.17564,0 -5.75,-2.35051 -5.75,-5.25c0,-2.89949 2.57436,-5.25 5.75,-5.25Z" style="fill:#fff;fill-opacity:0.101961;"/></g><g transform="matrix(0.173913,-1.46045e-17,-1.80528e-17,0.190476,425.783,190.143)"><path d="M311.75,46.5c3.17564,0 5.75,2.35051 5.75,5.25c0,2.89949 -2.57436,5.25 -5.75,5.25c-3.17564,0 -5.75,-2.35051 -5.75,-5.25c0,-2.89949 2.57436,-5.25 5.75,-5.25Z" style="fill:#000;fill-opacity:0.2;"/></g><g transform="matrix(1,0,0,1,158,151)"><path d="M504,329l9,0l-3,-3l0,-3l7,7l-7,7l0,-3l3,-3l-9,0l0,-2Z" style="fill:#000;fill-opacity:0.101961;"/></g></g></g></svg>