<?xml version="1.0" standalone="no"?><!DOCTYPE svg PUBLIC "-//W3C//DTD SVG 1.1//EN" "http://www.w3.org/Graphics/SVG/1.1/DTD/svg11.dtd"><svg width="128px" height="128px" version="1.1" xmlns="http://www.w3.org/2000/svg" xmlns:xlink="http://www.w3.org/1999/xlink" xml:space="preserve" style="fill-rule:evenodd;clip-rule:evenodd;stroke-linejoin:round;stroke-miterlimit:1.41421;"><g><g transform="matrix(1,0,0,1,-437.642,-382.344)"><g transform="matrix(-0.468069,8.92311e-21,-8.92311e-21,0.468106,266.839,237.408)"><path d="M-384.138,363.03c0,-18.8773 -15.3042,-34.1803 -34.183,-34.1803l-166.642,0c-18.8787,0 -34.183,15.303 -34.183,34.1803l0,166.629c0,18.8773 15.3042,34.1803 34.183,34.1803l166.642,0c18.8787,0 34.183,-15.303 34.183,-34.1803l0,-166.629Z" style="fill:#f57d00;"/></g><g transform="matrix(0.502111,0,0,0.502111,249.762,222.23)"><path d="M474.288,392.939l34.1024,-0.52457c15.6162,0.43167 24.2952,11.5011 24.134,24.1302c1.51377,14.9232 -2.6884,31.8214 -26.2326,31.4742l-33.5778,0c-14.8048,0.14316 -26.6262,-8.55694 -25.708,-25.7039c-0.73348,-14.2059 3.95736,-29.5807 27.2819,-29.3759Z" style="fill:#fff;"/><path d="M472.505,463.019l-3.5362,-0.0990432l-3.85733,-0.41179l-3.8148,-0.73059l-3.75254,-1.06753l-3.66433,-1.4239l-3.54183,-1.79864l-3.37573,-2.18719l-3.15722,-2.58064l-2.8803,-2.96547l-2.54478,-3.32552l-2.15767,-3.64529l-1.64591,-3.71836l-0.770375,-2.24554l-0.642267,-2.28297l-0.795282,-4.08628l-0.392028,-4.41522l0.0290327,-3.58228l-0.0747388,-2.82469l0.100625,-3.55508l0.332626,-3.65481l0.612233,-3.74177l0.947715,-3.80932l1.34623,-3.84455l1.71169,-3.61905l1.20298,-2.06296l1.23387,-1.84674l1.37298,-1.79662l1.51288,-1.7316l1.65058,-1.6512l1.78339,-1.55619l1.90877,-1.4479l2.02472,-1.32853l2.13033,-1.20083l2.22527,-1.06761l2.31034,-0.931683l2.38689,-0.795396l2.4568,-0.660602l2.52199,-0.528463l2.58447,-0.399703l2.64628,-0.274504l2.7088,-0.15263l2.43931,-0.0296604l34.7289,-0.53421l4.17756,0.298506l4.06092,0.665593l3.91962,1.03287l3.7484,1.39507l3.54456,1.74559l3.30788,2.07711l3.04074,2.38276l2.74776,2.65708l2.43485,2.89655l2.10852,3.10004l1.77463,3.26836l1.43792,3.40352l1.10189,3.50848l0.76864,3.58619l0.439272,3.63943l0.0832827,2.6811l0.219207,2.89163l0.0779008,3.70552l-0.154077,3.80786l-0.431129,3.89877l-0.762524,3.9739l-1.10121,3.82605l-0.813152,2.18663l-0.87557,2.01018l-1.01019,1.99455l-1.15242,1.96689l-1.30071,1.92527l-1.4526,1.86775l-1.60508,1.79312l-1.75477,1.70099l-1.89832,1.59217l-2.03269,1.46836l-2.1557,1.33237l-2.26618,1.18739l-2.3641,1.03698l-2.45063,0.884367l-2.52754,0.732232l-2.59711,0.582501l-2.66185,0.436469l-2.72435,0.294634l-2.78652,0.156956l-2.57309,0.0207934l-33.8484,0ZM472.925,433.019l33.3071,0l1.72897,-0.0139719l1.29385,-0.0728782l1.13934,-0.123218l0.99012,-0.162352l0.848182,-0.190237l0.716031,-0.207435l0.596227,-0.215162l0.491007,-0.215375l0.402177,-0.210725l0.330907,-0.204523l0.277173,-0.200223l0.239746,-0.201082l0.216521,-0.209886l0.204414,-0.228361l0.200095,-0.257282l0.200153,-0.29626l0.201633,-0.344137l0.202033,-0.398898l0.199785,-0.458678l0.130374,-0.350586l0.410229,-1.4253l0.281378,-1.4664l0.185136,-1.67421l0.0745109,-1.84146l-0.041286,-1.96386l-0.207824,-2.74147l-0.0625555,-2.01383l-0.115362,-0.955792l-0.189199,-0.882734l-0.25362,-0.80754l-0.309681,-0.733008l-0.359492,-0.662082l-0.406532,-0.597701l-0.455537,-0.541918l-0.512429,-0.495518l-0.583642,-0.457349l-0.675154,-0.423947l-0.791504,-0.389791l-0.935167,-0.348048l-1.10585,-0.291406l-1.3009,-0.21322l-1.51502,-0.108255l-33.4759,0.514935l-1.82567,0.0221989l-1.34267,0.0756543l-1.19647,0.124112l-1.05445,0.163076l-0.917906,0.19234l-0.788928,0.212133l-0.669498,0.223101l-0.561543,0.226452l-0.466945,0.224025l-0.387056,0.218177l-0.32269,0.211735l-0.273485,0.207452l-0.238535,0.208147l-0.21588,0.215961l-0.202933,0.232273l-0.197039,0.257836l-0.195184,0.292132l-0.0899346,0.154227l-0.485124,1.02571l-0.364113,1.03983l-0.314869,1.26561l-0.24128,1.47462l-0.150533,1.65401l-0.0508655,1.79708l0.0667233,2.52175l-0.0214742,2.64965l0.126048,1.41962l0.262797,1.35029l0.0803449,0.28559l0.0765138,0.223028l0.406427,0.918178l0.348928,0.589499l0.387478,0.506355l0.449057,0.462336l0.540655,0.44192l0.66206,0.42896l0.807306,0.409974l0.967572,0.375982l1.13354,0.322473l1.29687,0.24837l1.45136,0.15494l1.94092,0.0543618Z" style="fill:#fff;"/></g><g transform="matrix(0.502111,0,0,0.502111,249.762,222.23)"><path d="M529.377,508.345l-52.4653,0c-21.8618,0.28049 -32.3924,-9.68626 -30.9545,-32.5233c0.1033,-20.5286 12.0109,-26.3901 29.9052,-26.753l51.9406,0c35.3172,-0.94278 31.4599,-1.28462 32.0038,27.2776c-0.22202,20.765 -11.6421,31.8398 -30.4298,31.9987Z" style="fill:#fff;"/><path d="M476.783,523.345l-4.59754,-0.0789791l-4.78046,-0.403334l-4.49424,-0.733281l-2.44637,-0.566578l-2.26213,-0.639269l-2.22939,-0.754841l-2.19142,-0.877171l-2.14648,-1.0057l-2.09228,-1.13916l-2.02677,-1.27547l-1.94869,-1.41226l-1.85725,-1.5466l-1.75239,-1.67519l-1.6354,-1.79514l-1.50832,-1.90411l-1.37379,-2.00031l-1.23516,-2.08342l-1.09538,-2.15385l-0.957214,-2.2127l-0.822913,-2.26202l-0.693958,-2.30379l-0.571256,-2.34017l-0.455185,-2.37331l-0.345595,-2.40475l-0.256477,-2.57998l-0.188342,-4.81173l0.148694,-4.74345l0.179449,-4.22506l0.262262,-2.50956l0.348407,-2.32198l0.45531,-2.28301l0.567632,-2.24257l0.685152,-2.19874l0.807195,-2.14956l0.932419,-2.09271l1.0589,-2.02655l1.18421,-1.94954l1.30524,-1.86086l1.41914,-1.76099l1.52312,-1.6511l1.61503,-1.5333l1.69354,-1.41027l1.75813,-1.28492l1.98525,-1.27302l3.52555,-1.85412l3.81349,-1.52362l3.85419,-1.14657l3.874,-0.829385l3.88888,-0.565258l3.90693,-0.345248l3.9442,-0.161836l52.072,0l11.4758,-0.269685l4.95776,-0.0112447l4.5526,0.153503l4.18019,0.410266l2.40075,0.419787l2.31659,0.569888l2.41187,0.816568l2.48805,1.14288l2.4865,1.53613l2.34875,1.94297l2.05705,2.27725l1.65905,2.4653l1.24231,2.49409l0.879232,2.41011l0.599351,2.27755l0.429705,2.31115l0.398369,3.79048l0.163366,3.93355l0.0492279,4.03844l0.086584,9.84367l-0.215898,4.74621l-0.56961,4.71706l-0.903024,4.40888l-0.656733,2.38866l-0.713288,2.19054l-0.815151,2.14557l-0.918891,2.0962l-1.02389,2.04178l-1.12944,1.98153l-1.23449,1.91488l-1.33803,1.84151l-1.43883,1.76132l-1.53588,1.67463l-1.62788,1.58165l-1.71406,1.48336l-1.79369,1.38058l-1.86601,1.27426l-1.93117,1.16585l-1.98912,1.05631l-2.0401,0.946782l-2.25671,0.907342l-4.09691,1.29876l-4.40344,0.950997l-4.49982,0.568458l-4.3773,0.200574l-52.9376,0ZM477.041,493.345l51.993,0l2.49357,-0.114259l2.01445,-0.254484l1.74303,-0.376437l1.67055,-0.529582l0.481365,-0.19354l0.599022,-0.277997l0.549632,-0.291879l0.505812,-0.305359l0.467799,-0.31945l0.435542,-0.33523l0.409175,-0.354102l0.387994,-0.376974l0.371227,-0.404761l0.358062,-0.438317l0.347298,-0.47798l0.337821,-0.524011l0.328485,-0.576305l0.318218,-0.634569l0.306041,-0.69815l0.291171,-0.766394l0.273057,-0.83857l0.208176,-0.757176l0.456957,-2.23102l0.287914,-2.38428l0.127957,-2.81295l-0.0789768,-8.97881l-0.0398189,-3.26656l-1.09635,-0.0369665l-4.09968,0.00929847l-11.5098,0.270484l-51.8092,0l-2.62301,0.107626l-2.3626,0.208779l-2.06594,0.30029l-1.74906,0.374456l-1.42009,0.422458l-1.09493,0.437462l-0.999995,0.525908l-0.128599,0.0824629l-0.253609,0.185348l-0.213968,0.178179l-0.186097,0.176679l-0.169499,0.183741l-0.162839,0.202065l-0.163979,0.233782l-0.170115,0.280057l-0.17838,0.341385l-0.185724,0.416837l-0.189649,0.505035l-0.188281,0.604218l-0.180248,0.712116l-0.164889,0.826785l-0.141985,0.946266l-0.0961943,0.920474l-0.133105,3.13389l-0.110344,3.52007l0.111798,2.85619l0.102694,1.03303l0.152653,1.06221l0.181941,0.94863l0.204476,0.83764l0.220167,0.730909l0.229361,0.630466l0.232998,0.538597l0.232513,0.457194l0.2302,0.388293l0.228771,0.333102l0.231237,0.291914l0.240928,0.264461l0.26044,0.248966l0.29188,0.243058l0.336493,0.243864l0.394226,0.248092l0.464307,0.252795l0.545482,0.255577l0.635648,0.254434l0.732561,0.248035l0.834478,0.235821l0.784664,0.181728l2.37016,0.386716l2.61881,0.220953l3.33476,0.0572864Z" style="fill:#fff;"/></g><g transform="matrix(0.502111,0,0,0.502111,249.762,222.23)"><path d="M460.955,480.268l-29.9958,-0.500006l1.0493,-62.9483l29.9958,0.500006l-1.0493,62.9483Z" style="fill:#fff;"/></g><g transform="matrix(0.502111,0,0,0.502111,249.762,222.23)"><path d="M505.875,432.869l-29.2908,-0.465055l-4.76783,-1.02733l-4.01176,-2.7737l-2.64494,-4.0978l-0.875446,-4.79805l1.02733,-4.76783l2.7737,-4.01176l4.0978,-2.64494l4.79805,-0.875446l29.2908,0.465055l4.76783,1.02733l4.01176,2.7737l2.64494,4.0978l0.875446,4.79805l-1.02733,4.76783l-2.7737,4.01176l-4.0978,2.64494l-4.79805,0.875446Z" style="fill:#f57d00;"/></g><g transform="matrix(0.502111,0,0,0.502111,249.762,222.23)"><path d="M473.455,489.687l-4.78354,-0.951506l-4.05529,-2.70966l-2.70966,-4.05529l-0.951506,-4.78354l0.951506,-4.78354l2.70966,-4.05529l4.05529,-2.70966l4.78354,-0.951506l58.5816,0l4.78354,0.951506l4.05529,2.70966l2.70966,4.05529l0.951506,4.78354l-0.951506,4.78354l-2.70966,4.05529l-4.05529,2.70966l-4.78354,0.951506l-58.5816,0Z" style="fill:#f57d00;"/></g></g></g></svg>