<?xml version="1.0" standalone="no"?><!DOCTYPE svg PUBLIC "-//W3C//DTD SVG 1.1//EN" "http://www.w3.org/Graphics/SVG/1.1/DTD/svg11.dtd"><svg width="128px" height="128px" version="1.1" xmlns="http://www.w3.org/2000/svg" xmlns:xlink="http://www.w3.org/1999/xlink" xml:space="preserve" style="fill-rule:evenodd;clip-rule:evenodd;stroke-linecap:round;stroke-linejoin:round;stroke-miterlimit:1.41421;"><g><g transform="matrix(5,0,0,5,4,-5147.81)"><path d="M2,1030.36c2,1 8.01903,1 10,0c2.01903,1 8,1 10,0c0,15 -7,20 -10,20c-4,0 -10,-5 -10,-20Z" style="fill:#ffa26d;fill-rule:nonzero;"/></g><g transform="matrix(4,0,0,4,16,-4107.45)"><path d="M2,1030.36c2,1 8.01903,1 10,0c2.01903,1 8,1 10,0c0,15 -7,20 -10,20c-4,0 -10,-5 -10,-20Z" style="fill:#ffffd3;fill-rule:nonzero;"/></g><g transform="matrix(1,0,0,1,-3,-15.3541)"><path d="M70.8042,52.2639l7.60845,5.52786l-3.80423,5.23607l6.15537,2l-2.90617,8.94427l-6.15537,-2l0,6.47214l-9.40456,0l0,-6.47214l-6.15537,2l-2.90617,-8.94427l6.15537,-2l-3.80423,-5.23607l7.60845,-5.52786l3.80423,5.23607l3.80423,-5.23607Z" style="fill:#ffcf61;"/></g><g transform="matrix(1,0,0,1,0,-10)"><path d="M64,114l1.42109e-14,-100c11.5796,4.99687 40.2503,4.87486 50,-7.10543e-15c0,73.5922 -33.6984,99.0438 -50,100Z" style="fill:#000;fill-opacity:0.101961;"/></g><g transform="matrix(6.12323e-17,1,-1,6.12323e-17,129.75,80)"><path d="M30,100l-6,-85.25l11,-8.25l11,8.25l-6,85.25l-10,0Z" style="fill:#f9f9f9;"/></g><g transform="matrix(6.12323e-17,1,-1,6.12323e-17,129.75,80)"><path d="M35,100l0,-93.5l11,8.25l-6,85.25l-5,0Z" style="fill:#000;fill-opacity:0.101961;"/></g><g transform="matrix(6.12323e-17,1,-1,6.12323e-17,129.75,80)"><path d="M24,99.75l22,0l-1.42109e-14,4l-5,2l-2,2l1,17l-10,0l1,-17l-2,-2l-5,-2l1.42109e-14,-4Z" style="fill:#ffcf60;"/></g><g transform="matrix(6.12323e-17,1,-1,6.12323e-17,129.75,80)"><path d="M35,99.75l11,0l0,4l-5,2l-2,2l1,17l-5,0l0,-25Z" style="fill:#000;fill-opacity:0.101961;"/></g></g></svg>