<?xml version="1.0" standalone="no"?><!DOCTYPE svg PUBLIC "-//W3C//DTD SVG 1.1//EN" "http://www.w3.org/Graphics/SVG/1.1/DTD/svg11.dtd"><svg width="128px" height="128px" version="1.1" xmlns="http://www.w3.org/2000/svg" xmlns:xlink="http://www.w3.org/1999/xlink" xml:space="preserve" style="fill-rule:evenodd;clip-rule:evenodd;stroke-linejoin:round;stroke-miterlimit:1.41421;"><g><g transform="matrix(1.02575,1.57283e-17,1.57283e-17,0.961538,-5.74463,2.38462)"><rect x="9.5" y="10" width="77.9914" height="104" style="fill:#eee;"/></g><g transform="matrix(1,0,0,1.33333,-5.99996,-4)"><rect x="10" y="12" width="80" height="12" style="fill:#9e93ff;"/></g><g transform="matrix(0.975,0,0,0.943182,-4.74996,5.36364)"><rect x="10" y="24" width="80" height="88" style="fill:#f9f9f9;"/></g><g transform="matrix(0.969697,0,0,2,-5.69693,-98)"><rect x="10" y="97" width="82.5" height="0.5" style="fill:#eee;"/></g><g transform="matrix(1.24995,2.26234e-18,1.82342e-18,1,1.63327,-42)"><path d="M14,77l32,0c4,0 4,0 4,0.5c0,0.5 0,0.5 -4,0.5l-32,0c-4,0 -4,0 -4,-0.5c0,-0.5 -0.210526,-0.5 4,-0.5Z" style="fill:#000;fill-opacity:0.101961;fill-rule:nonzero;"/></g><g transform="matrix(0.999956,7.04106e-17,9.88241e-17,1,4.13274,-41)"><path d="M14,85l32,0c4,0 4,0 4,0.5c0,0.5 0,0.5 -4,0.5l-32,0c-4,0 -4,0 -4,-0.5c0,-0.5 -0.210526,-0.5 4,-0.5Z" style="fill:#000;fill-opacity:0.101961;fill-rule:nonzero;"/></g><g transform="matrix(1.14995,-2.22295e-17,-1.79168e-17,1,2.63306,-32)"><path d="M14,85l32,0c4,0 4,0 4,0.5c0,0.5 0,0.5 -4,0.5l-32,0c-4,0 -4,0 -4,-0.5c0,-0.5 -0.210526,-0.5 4,-0.5Z" style="fill:#000;fill-opacity:0.101961;fill-rule:nonzero;"/></g><g transform="matrix(1.24071,0,0,1,1.59511,-23)"><path d="M14,85l32,0c4,0 4,0 4,0.5c0,0.5 0,0.5 -4,0.5l-32,0c-4,0 -4,0 -4,-0.5c0,-0.5 -0.210526,-0.5 4,-0.5Z" style="fill:#000;fill-opacity:0.101961;fill-rule:nonzero;"/></g><g transform="matrix(1.24995,-2.26234e-18,1.82342e-18,-1,1.76379,167)"><path d="M14,77l32,0c4,0 4,0 4,0.5c0,0.5 0,0.5 -4,0.5l-32,0c-4,0 -4,0 -4,-0.5c0,-0.5 -0.210526,-0.5 4,-0.5Z" style="fill:#000;fill-opacity:0.101961;fill-rule:nonzero;"/></g><g transform="matrix(0.999956,-7.04106e-17,9.88241e-17,-1,4.26324,166)"><path d="M14,85l32,0c4,0 4,0 4,0.5c0,0.5 0,0.5 -4,0.5l-32,0c-4,0 -4,0 -4,-0.5c0,-0.5 -0.210526,-0.5 4,-0.5Z" style="fill:#000;fill-opacity:0.101961;fill-rule:nonzero;"/></g><g transform="matrix(1.14995,2.22295e-17,-1.79168e-17,-1,2.76357,157)"><path d="M14,85l32,0c4,0 4,0 4,0.5c0,0.5 0,0.5 -4,0.5l-32,0c-4,0 -4,0 -4,-0.5c0,-0.5 -0.210526,-0.5 4,-0.5Z" style="fill:#000;fill-opacity:0.101961;fill-rule:nonzero;"/></g><g transform="matrix(0.516739,2.80709e-18,2.80709e-18,0.505279,11.5487,7.50023)"><path d="M121.066,27.707c-5.75391,0 -11.4062,0.652344 -17.1875,2.00781c-46.1719,10.9375 -101.094,85.625 -30.6484,118.879c33.1484,15.6523 30.7812,86.8242 76.9531,75.8867c46.1719,-10.9375 73.1758,-63.3867 60.3906,-117.164c-11.1719,-47.0547 -49.2461,-79.5547 -89.5078,-79.6094ZM106.824,42.5508c8.20312,0 14.8672,6.64062 14.8672,14.8438c0,8.17969 -6.66406,14.8438 -14.8672,14.8438c-8.20312,0 -14.8711,-6.66406 -14.8711,-14.8438c0,-8.20312 6.66797,-14.8438 14.8711,-14.8438ZM151.434,47.5c8.20312,0 14.8672,6.64062 14.8672,14.8438c0,8.17578 -6.66406,14.8164 -14.8672,14.8164c-8.23047,0 -14.8711,-6.64062 -14.8711,-14.8164c0,-8.20312 6.64062,-14.8438 14.8711,-14.8438ZM72.1367,72.2383c8.20312,0 14.8672,6.64062 14.8672,14.8203c0,8.20312 -6.66406,14.8438 -14.8672,14.8438c-8.20312,0 -14.8711,-6.64062 -14.8711,-14.8438c0,-8.17969 6.66797,-14.8203 14.8711,-14.8203ZM181.145,82.1094c8.23047,0 14.8711,6.66797 14.8711,14.8438c0,8.20312 -6.64062,14.8438 -14.8711,14.8438c-8.20312,0 -14.8438,-6.64062 -14.8438,-14.8438c0,-8.17578 6.64062,-14.8438 14.8438,-14.8438ZM99.8711,121.223c7.00391,-0.128906 14.1914,6.12109 16.875,15.3125c3.04688,10.4961 -0.808594,20.8867 -8.67188,23.1797c-7.89062,2.28906 -16.7734,-4.35156 -19.8203,-14.8438c-3.07031,-10.4688 0.78125,-20.8867 8.67188,-23.1797c0.964844,-0.285156 1.92969,-0.441406 2.94531,-0.46875ZM186.121,126.641c8.20312,0 14.8672,6.64062 14.8672,14.8438c0,8.20312 -6.66406,14.8438 -14.8672,14.8438c-8.23047,0 -14.8711,-6.64062 -14.8711,-14.8438c0,-8.20312 6.64062,-14.8438 14.8711,-14.8438ZM166.301,166.223c8.20312,0 14.8438,6.64062 14.8438,14.8203c0,8.20312 -6.64062,14.8438 -14.8438,14.8438c-8.22656,0 -14.8672,-6.64062 -14.8672,-14.8438c0,-8.17969 6.64062,-14.8203 14.8672,-14.8203Z" style="fill:#ffe7ba;fill-rule:nonzero;"/></g><g transform="matrix(1,0,0,0.936831,13.0746,9.80566)"><path d="M35.75,36.5c4.55635,0 8.25,3.58172 8.25,8c0,4.41828 -3.69365,8 -8.25,8c-4.55635,0 -8.25,-3.58172 -8.25,-8c0,-4.41828 3.69365,-8 8.25,-8Z" style="fill:#ed9bff;"/></g><g transform="matrix(1.09091,0,0,1.0625,28.5,-10.7812)"><path d="M35.75,36.5c4.55635,0 8.25,3.58172 8.25,8c0,4.41828 -3.69365,8 -8.25,8c-4.55635,0 -8.25,-3.58172 -8.25,-8c0,-4.41828 3.69365,-8 8.25,-8Z" style="fill:#7cccff;"/></g><g transform="matrix(1.03134,0,0,1,52.6209,-5.5)"><path d="M35.75,36.5c4.55635,0 8.25,3.58172 8.25,8c0,4.41828 -3.69365,8 -8.25,8c-4.55635,0 -8.25,-3.58172 -8.25,-8c0,-4.41828 3.69365,-8 8.25,-8Z" style="fill:#13ffa6;"/></g><g transform="matrix(1.08107,0,0,1.0625,65.7706,9.71875)"><path d="M35.75,36.5c4.55635,0 8.25,3.58172 8.25,8c0,4.41828 -3.69365,8 -8.25,8c-4.55635,0 -8.25,-3.58172 -8.25,-8c0,-4.41828 3.69365,-8 8.25,-8Z" style="fill:#fff996;"/></g><g transform="matrix(1.0303,0,0,1.0625,70.6667,31.7188)"><path d="M35.75,36.5c4.55635,0 8.25,3.58172 8.25,8c0,4.41828 -3.69365,8 -8.25,8c-4.55635,0 -8.25,-3.58172 -8.25,-8c0,-4.41828 3.69365,-8 8.25,-8Z" style="fill:#ffb477;"/></g><g transform="matrix(1.0303,0,0,1.12431,60.6495,49.4627)"><path d="M35.75,36.5c4.55635,0 8.25,3.58172 8.25,8c0,4.41828 -3.69365,8 -8.25,8c-4.55635,0 -8.25,-3.58172 -8.25,-8c0,-4.41828 3.69365,-8 8.25,-8Z" style="fill:#ff8383;"/></g></g></svg>