<?xml version="1.0" standalone="no"?><!DOCTYPE svg PUBLIC "-//W3C//DTD SVG 1.1//EN" "http://www.w3.org/Graphics/SVG/1.1/DTD/svg11.dtd"><svg width="128px" height="128px" version="1.1" xmlns="http://www.w3.org/2000/svg" xmlns:xlink="http://www.w3.org/1999/xlink" xml:space="preserve" style="fill-rule:evenodd;clip-rule:evenodd;stroke-linejoin:round;stroke-miterlimit:1.41421;"><g><path d="M1.82493e-06,58l0,37.4375c0,3.55556 0.0125,3.5625 4.8125,3.5625l86.375,0c4.8,0 4.8125,-0.007 4.8125,-3.5625l0,-37.4375Z" style="fill:#f9f9f9;fill-rule:nonzero;"/><path d="M4.8125,19c-4.80272,0 -4.8125,0.0069 -4.8125,3.5625l0,5.4375l96,0l0,-5.4375c0,-3.55556 -0.0125,-3.5625 -4.8125,-3.5625Z" style="fill:#009bb2;fill-rule:nonzero;"/><rect x="1.82493e-06" y="28" width="96" height="30" style="fill:#00b1cc;"/><g transform="matrix(1,1.68917e-18,1.86969e-18,1.09924,-15.1503,-7.23912)"><path d="M107,46.5l8.0825,22.6297l26.1555,3.54696e-07l-21.1603,13.9859l8.0825,22.6297l-21.1603,-13.9859l-21.1603,13.9859l8.0825,-22.6297l-21.1603,-13.9859l26.1555,-3.54696e-07l8.0825,-22.6297Z" style="fill:#ffe15f;"/></g><path d="M14,66.9998l32,0c4,0 4,0 4,2c0,2 0,2 -4,2l-32,0c-4,0 -4,0 -4,-2c0,-2 -0.210526,-2 4,-2Z" style="fill:#000;fill-opacity:0.101961;fill-rule:nonzero;"/><path d="M14,77l32,0c4,0 4,0 4,0.5c0,0.5 0,0.5 -4,0.5l-32,0c-4,0 -4,0 -4,-0.5c0,-0.5 -0.210526,-0.5 4,-0.5Z" style="fill:#000;fill-opacity:0.101961;fill-rule:nonzero;"/><path d="M14,85l32,0c4,0 4,0 4,0.5c0,0.5 0,0.5 -4,0.5l-32,0c-4,0 -4,0 -4,-0.5c0,-0.5 -0.210526,-0.5 4,-0.5Z" style="fill:#000;fill-opacity:0.101961;fill-rule:nonzero;"/><path d="M14,36.9998l32,0c4,0 4,0 4,2c0,2 0,2 -4,2l-32,0c-4,0 -4,0 -4,-2c0,-2 -0.210526,-2 4,-2Z" style="fill:#fff;fill-opacity:0.231373;fill-rule:nonzero;"/><path d="M14,47l32,0c4,0 4,0 4,0.5c0,0.5 0,0.5 -4,0.5l-32,0c-4,0 -4,0 -4,-0.5c0,-0.5 -0.210526,-0.5 4,-0.5Z" style="fill:#fff;fill-opacity:0.231373;fill-rule:nonzero;"/></g></svg>