<?xml version="1.0" standalone="no"?><!DOCTYPE svg PUBLIC "-//W3C//DTD SVG 1.1//EN" "http://www.w3.org/Graphics/SVG/1.1/DTD/svg11.dtd"><svg width="128px" height="128px" version="1.1" xmlns="http://www.w3.org/2000/svg" xmlns:xlink="http://www.w3.org/1999/xlink" xml:space="preserve" style="fill-rule:evenodd;clip-rule:evenodd;stroke-linejoin:round;stroke-miterlimit:1.41421;"><g><g transform="matrix(0.893192,0,0,0.893192,-205.133,-113.044)"><g transform="matrix(2.02678,-6.26041e-19,-6.26041e-19,2.02934,-46.3828,-203.749)"><path d="M150.352,198.378l-1.27508,-1.2729c-3.95366,-3.95481 -5.17773,-9.60339 -3.6801,-14.6115c-3.95252,-0.89321 -6.9044,-4.42715 -6.9044,-8.65072c0.00109,-4.89719 3.97043,-8.86801 8.86683,-8.86801c4.40861,0.00229 8.06378,3.21829 8.75112,7.43156c4.78397,-1.12194 10.0197,0.18299 13.7503,3.91364l0.50894,0.50893l-6.54408,6.54065l-0.50779,-0.51008c-2.12265,-2.12151 -5.5651,-2.12151 -7.69003,0.00229c-2.1318,2.1318 -2.12723,5.58454 -0.01144,7.70032l1.27977,1.27748l6.54522,6.53836l6.92148,6.91806l-6.53721,6.54293l-6.92949,-6.92034" style="fill:#86be3c;fill-rule:nonzero;"/></g><g transform="matrix(2.02678,-6.26041e-19,-6.26041e-19,2.02934,-46.3828,-203.749)"><path d="M157.671,191.064l6.92721,-6.92264l6.54522,-6.53721l1.27633,-1.27405c3.9388,-3.93765 9.55193,-5.17739 14.5406,-3.71235c0.59699,-4.31735 4.30248,-7.64314 8.78452,-7.64314c4.89719,0 8.86916,3.96853 8.86801,8.86801c0,4.50034 -3.35438,8.21955 -7.70032,8.79139c1.42844,4.97039 0.18413,10.5435 -3.72836,14.4594l-0.51008,0.51122l-6.5395,-6.54522l0.5055,-0.50664c2.12494,-2.1238 2.12494,-5.56853 0.00229,-7.69118c-2.11694,-2.11465 -5.55137,-2.11922 -7.68317,0.01144l-1.27634,1.27519l-6.54522,6.54064l-6.92263,6.91577" style="fill:#e4b645;fill-rule:nonzero;"/></g><g transform="matrix(2.02678,-6.26041e-19,-6.26041e-19,2.02934,-46.3828,-203.749)"><path d="M187.137,224.079c-5.03214,1.54796 -10.7333,0.33063 -14.7167,-3.65208l-0.50092,-0.50036l6.53836,-6.54533l0.50207,0.50322c2.12493,2.12379 5.56967,2.12379 7.69232,0.00228c2.11578,-2.11807 2.12036,-5.55137 -0.01144,-7.68431l-1.27862,-1.27977l-6.5395,-6.54522l-6.91005,-6.91577l6.54522,-6.53836l6.90433,6.9112l6.53721,6.54293l1.28549,1.28663c3.76152,3.76153 5.06073,9.05329 3.89076,13.867c4.30706,0.60615 7.62027,4.30706 7.62027,8.78109c0,4.89857 -3.97197,8.86573 -8.86687,8.86573c-4.29334,0 -7.87302,-3.04685 -8.69189,-7.09887" style="fill:#c33734;fill-rule:nonzero;"/></g><g transform="matrix(2.02678,-6.26041e-19,-6.26041e-19,2.02934,-46.3828,-203.749)"><path d="M184.586,205.698l-6.90319,6.91119l-6.5395,6.54408l-1.2832,1.28251c-3.77754,3.77949 -9.10475,5.06383 -13.9402,3.86435c-0.9035,3.94028 -4.43058,6.87538 -8.64397,6.87768c-4.89857,0 -8.86902,-3.96933 -8.8679,-8.86573c0,-4.19269 2.91052,-7.70833 6.82073,-8.63127c-1.23756,-4.85831 0.0446,-10.2255 3.84753,-14.0283l0.50036,-0.49864l6.54453,6.5395l-0.5055,0.50208c-2.12265,2.12493 -2.12265,5.56395 0.00229,7.69117c2.13065,2.13066 5.58339,2.12608 7.69918,0.00915l1.28091,-1.2832l6.5395,-6.54178l6.91005,-6.91692" style="fill:#748ec4;fill-rule:nonzero;"/></g></g></g></svg>