<?xml version="1.0" encoding="UTF-8" standalone="no"?>
<!-- Generator: Adobe Illustrator 16.0.4, SVG Export Plug-In . SVG Version: 6.00 Build 0)  -->

<svg
   xmlns:dc="http://purl.org/dc/elements/1.1/"
   xmlns:cc="http://creativecommons.org/ns#"
   xmlns:rdf="http://www.w3.org/1999/02/22-rdf-syntax-ns#"
   xmlns:svg="http://www.w3.org/2000/svg"
   xmlns="http://www.w3.org/2000/svg"
   xmlns:sodipodi="http://sodipodi.sourceforge.net/DTD/sodipodi-0.dtd"
   xmlns:inkscape="http://www.inkscape.org/namespaces/inkscape"
   version="1.1"
   id="Capa_1"
   x="0px"
   y="0px"
   width="42.848869"
   height="38.919144"
   viewBox="0 0 42.84887 38.919143"
   xml:space="preserve"
   inkscape:version="0.48.4 r9939"
   sodipodi:docname="speaker.svg"><metadata
     id="metadata39"><rdf:RDF><cc:Work
         rdf:about=""><dc:format>image/svg+xml</dc:format><dc:type
           rdf:resource="http://purl.org/dc/dcmitype/StillImage" /><dc:title></dc:title></cc:Work></rdf:RDF></metadata><defs
     id="defs37" /><sodipodi:namedview
     pagecolor="#ffffff"
     bordercolor="#666666"
     borderopacity="1"
     objecttolerance="10"
     gridtolerance="10"
     guidetolerance="10"
     inkscape:pageopacity="0"
     inkscape:pageshadow="2"
     inkscape:window-width="1920"
     inkscape:window-height="1056"
     id="namedview35"
     showgrid="false"
     inkscape:zoom="5.5625733"
     inkscape:cx="48.650827"
     inkscape:cy="42.497429"
     inkscape:window-x="0"
     inkscape:window-y="24"
     inkscape:window-maximized="1"
     inkscape:current-layer="Capa_1"
     fit-margin-top="0"
     fit-margin-left="0"
     fit-margin-right="0"
     fit-margin-bottom="0" /><g
     id="g5"
     transform="translate(-45.495693,23.535449)" /><g
     id="g7"
     transform="translate(-45.495693,23.535449)" /><g
     id="g9"
     transform="translate(-45.495693,23.535449)" /><g
     id="g11"
     transform="translate(-45.495693,23.535449)" /><g
     id="g13"
     transform="translate(-45.495693,23.535449)" /><g
     id="g15"
     transform="translate(-45.495693,23.535449)" /><g
     id="g17"
     transform="translate(-45.495693,23.535449)" /><g
     id="g19"
     transform="translate(-45.495693,23.535449)" /><g
     id="g21"
     transform="translate(-45.495693,23.535449)" /><g
     id="g23"
     transform="translate(-45.495693,23.535449)" /><g
     id="g25"
     transform="translate(-45.495693,23.535449)" /><g
     id="g27"
     transform="translate(-45.495693,23.535449)" /><g
     id="g29"
     transform="translate(-45.495693,23.535449)" /><g
     id="g31"
     transform="translate(-45.495693,23.535449)" /><g
     id="g33"
     transform="translate(-45.495693,23.535449)" /><text
     xml:space="preserve"
     style="font-size:40px;font-style:normal;font-weight:normal;line-height:1000%;letter-spacing:0px;word-spacing:0px;fill:#000000;fill-opacity:1;stroke:none;font-family:Sans"
     x="-43.338417"
     y="2.5808642"
     id="text3790"
     sodipodi:linespacing="1000%"><tspan
       sodipodi:role="line"
       id="tspan3792"
       x="-43.338417"
       y="2.5808642" /></text>
<g
     id="g4039"
     transform="matrix(0.46250118,0,0,0.46250118,-15.850574,15.164195)"><path
       style="fill:#0a949b;fill-opacity:0.80365295"
       id="path3853"
       d="M 91.675362,35.755496 H 73.527231 c -3.356161,0 -6.12235,2.786597 -6.12235,6.144613 v 9.461815 h 30.313055 v -9.461815 c 0.0037,-3.358016 -2.690123,-6.144613 -6.042574,-6.144613 z"
       inkscape:connector-curvature="0" /><circle
       style="fill:#0a949b;fill-opacity:0.80365295"
       transform="matrix(1.8552577,0,0,1.8552577,52.698253,-7.958086)"
       id="circle3855"
       r="4.6960001"
       cy="17.007999"
       cx="16.117001"
       sodipodi:cx="16.117001"
       sodipodi:cy="17.007999"
       sodipodi:rx="4.6960001"
       sodipodi:ry="4.6960001"
       d="m 20.813001,17.007999 c 0,2.59353 -2.102471,4.696001 -4.696,4.696001 -2.59353,0 -4.696001,-2.102471 -4.696001,-4.696001 0,-2.593529 2.102471,-4.696 4.696001,-4.696 2.593529,0 4.696,2.102471 4.696,4.696 z" /><path
       style="fill:#0e4bea;fill-opacity:0.80365295"
       id="path3857"
       d="m 50.963178,-14.976786 c 0,-1.849692 -1.489772,-3.34503 -3.335754,-3.34503 h -9.981286 c -1.845982,0.0019 -3.374714,1.497194 -3.374714,3.34503 v 5.2262613 h 16.691754 v -5.2262613 z"
       inkscape:connector-curvature="0" /><circle
       style="fill:#0e4bea;fill-opacity:0.80365295"
       transform="matrix(1.8552577,0,0,1.8552577,34.271424,-35.149003)"
       id="circle3859"
       r="2.5829999"
       cy="5.4460001"
       cx="4.5089998"
       sodipodi:cx="4.5089998"
       sodipodi:cy="5.4460001"
       sodipodi:rx="2.5829999"
       sodipodi:ry="2.5829999"
       d="m 7.0919998,5.4460001 c 0,1.4265515 -1.1564485,2.5829999 -2.583,2.5829999 -1.4265515,0 -2.5829999,-1.1564484 -2.5829999,-2.5829999 0,-1.4265515 1.1564484,-2.5829999 2.5829999,-2.5829999 1.4265515,0 2.583,1.1564484 2.583,2.5829999 z" /><path
       style="fill:#e07e9a;fill-opacity:1"
       id="path3861"
       d="m 123.62801,-17.960414 h -9.98128 c -1.84598,0 -3.33019,1.495338 -3.33019,3.345029 v 5.2262615 h 16.60085 v -5.2262615 c 0,-1.849691 -1.44339,-3.345029 -3.28938,-3.345029 z"
       inkscape:connector-curvature="0" /><circle
       style="fill:#e07e9a;fill-opacity:1"
       transform="matrix(1.8552577,0,0,1.8552577,67.641903,-34.789457)"
       id="circle3863"
       r="2.5829999"
       cy="5.4460001"
       cx="27.486"
       sodipodi:cx="27.486"
       sodipodi:cy="5.4460001"
       sodipodi:rx="2.5829999"
       sodipodi:ry="2.5829999"
       d="M 30.069,5.4460001 C 30.069,6.8725516 28.912552,8.029 27.486,8.029 c -1.426551,0 -2.583,-1.1564484 -2.583,-2.5829999 0,-1.4265515 1.156449,-2.5829999 2.583,-2.5829999 1.426552,0 2.583,1.1564484 2.583,2.5829999 z" /><g
       id="g4029"><path
         id="path3969"
         style="fill:#f9f9f9;fill-rule:nonzero;stroke-linejoin:round;stroke-miterlimit:1.41420996"
         d="m 67.388981,-23.856008 0,7.381776 c 0,0.701071 0.0036,0.702439 1.434076,0.702439 l 25.738821,0 c 1.430347,0 1.43407,-0.0013 1.43407,-0.702439 l 0,-7.381776 z"
         inkscape:connector-curvature="0" /><path
         id="path3971"
         style="fill:#009bb2;fill-rule:nonzero;stroke-linejoin:round;stroke-miterlimit:1.41420996"
         d="m 68.823057,-30.941283 c -1.431162,0 -1.434076,0.0012 -1.434076,0.647213 l 0,0.987851 28.606967,0 0,-0.987851 c 0,-0.645953 -0.0036,-0.647213 -1.43407,-0.647213 z"
         inkscape:connector-curvature="0" /><rect
         id="rect3973"
         style="fill:#00b1cc;fill-rule:evenodd;stroke-linejoin:round;stroke-miterlimit:1.41420996"
         height="5.4502115"
         width="28.606966"
         y="-29.306219"
         x="67.388977" /><path
         id="path3979"
         style="fill:#000000;fill-opacity:0.10196102;fill-rule:nonzero;stroke-linejoin:round;stroke-miterlimit:1.41420996"
         d="m 71.560834,-22.22098 9.535653,0 c 1.191957,0 1.191957,0 1.191957,0.363347 0,0.363347 0,0.363347 -1.191957,0.363347 l -9.535653,0 c -1.19196,0 -1.19196,0 -1.19196,-0.363347 0,-0.363347 -0.06274,-0.363347 1.19196,-0.363347 z"
         inkscape:connector-curvature="0" /><path
         id="path3981"
         style="fill:#000000;fill-opacity:0.10196102;fill-rule:nonzero;stroke-linejoin:round;stroke-miterlimit:1.41420996"
         d="m 71.560834,-20.404208 9.535653,0 c 1.191957,0 1.191957,0 1.191957,0.09083 0,0.09083 0,0.09083 -1.191957,0.09083 l -9.535653,0 c -1.19196,0 -1.19196,0 -1.19196,-0.09083 0,-0.09083 -0.06274,-0.09083 1.19196,-0.09083 z"
         inkscape:connector-curvature="0" /><path
         id="path3983"
         style="fill:#000000;fill-opacity:0.10196102;fill-rule:nonzero;stroke-linejoin:round;stroke-miterlimit:1.41420996"
         d="m 71.560834,-18.950818 9.535653,0 c 1.191957,0 1.191957,0 1.191957,0.09083 0,0.09083 0,0.09083 -1.191957,0.09083 l -9.535653,0 c -1.19196,0 -1.19196,0 -1.19196,-0.09083 0,-0.09083 -0.06274,-0.09083 1.19196,-0.09083 z"
         inkscape:connector-curvature="0" /><path
         id="path3985"
         style="fill:#ffffff;fill-opacity:0.23137303;fill-rule:nonzero;stroke-linejoin:round;stroke-miterlimit:1.41420996"
         d="m 71.560834,-27.671193 9.535653,0 c 1.191957,0 1.191957,0 1.191957,0.363348 0,0.363348 0,0.363348 -1.191957,0.363348 l -9.535653,0 c -1.19196,0 -1.19196,0 -1.19196,-0.363348 0,-0.363348 -0.06274,-0.363348 1.19196,-0.363348 z"
         inkscape:connector-curvature="0" /><path
         id="path3987"
         style="fill:#ffffff;fill-opacity:0.23137303;fill-rule:nonzero;stroke-linejoin:round;stroke-miterlimit:1.41420996"
         d="m 71.560834,-25.854419 9.535653,0 c 1.191957,0 1.191957,0 1.191957,0.09083 0,0.09083 0,0.09083 -1.191957,0.09083 l -9.535653,0 c -1.19196,0 -1.19196,0 -1.19196,-0.09083 0,-0.09083 -0.06274,-0.09083 1.19196,-0.09083 z"
         inkscape:connector-curvature="0" /></g><g
       transform="translate(65.841672,-32.787365)"
       id="Laptop"><g
         id="g3898"><path
           inkscape:connector-curvature="0"
           d="M 29,0 H 3 C 1.346,0 0,1.346 0,3 v 13 c 0,1.654 1.346,3 3,3 h 26 c 1.654,0 3,-1.346 3,-3 V 3 C 32,1.346 30.654,0 29,0 z m 1,16 c 0,0.551 -0.448,1 -1,1 H 3 C 2.448,17 2,16.551 2,16 V 3 C 2,2.449 2.448,2 3,2 h 26 c 0.552,0 1,0.449 1,1 v 13 z m 0.5,5 H 20 c 0,0.552 -0.447,1 -1,1 h -6 c -0.553,0 -1,-0.448 -1,-1 H 1.5 C 0.672,21 0,21.672 0,22.5 0,23.328 0.672,24 1.5,24 h 29 C 31.328,24 32,23.328 32,22.5 32,21.672 31.328,21 30.5,21 z"
           id="path3900" /></g></g><path
       id="path3869-1"
       d="m 60.302924,-21.067761 c 0.0098,-0.535741 -0.418666,-0.97401 -0.95342,-0.982237 l -5.651712,-0.08342 c -0.534451,-0.0095 -0.974806,0.419159 -0.984626,0.954902 -0.0011,0.190451 0.05159,0.369657 0.147474,0.524264 0.168038,0.27096 0.465404,0.455095 0.809325,0.458084 l 5.649625,0.08362 c 0.534754,0.0082 0.975603,-0.419655 0.983334,-0.955207 z"
       inkscape:connector-curvature="0" /><path
       id="path3869-1-4"
       d="m 108.0631,-20.799618 c 0.01,-0.535741 -0.41867,-0.97401 -0.95342,-0.982237 l -5.65172,-0.08342 c -0.53445,-0.0095 -0.9748,0.419159 -0.98462,0.954902 -10e-4,0.190451 0.0516,0.369657 0.14747,0.524264 0.16804,0.27096 0.4654,0.455095 0.80933,0.458084 l 5.64962,0.08362 c 0.53476,0.0082 0.9756,-0.419655 0.98334,-0.955207 z"
       inkscape:connector-curvature="0" /><path
       id="path3869-1-4-6"
       d="m 82.30476,10.804661 c 0.853076,-0.0092 1.530495,-0.711891 1.518554,-1.5633075 l -0.13183,-8.99836998 c -0.0098,-0.85099993 -0.712706,-1.53172942 -1.565778,-1.52227772 -0.303141,0.00732 -0.585878,0.099424 -0.82744,0.2592346 -0.423355,0.28011279 -0.702477,0.76196819 -0.691132,1.30945772 l 0.131393,8.99503738 c 0.01189,0.8514325 0.713534,1.5329795 1.566205,1.5202265 z"
       inkscape:connector-curvature="0" /></g></svg>