<?xml version="1.0" encoding="UTF-8" standalone="no"?>
<!-- Generator: Adobe Illustrator 16.0.4, SVG Export Plug-In . SVG Version: 6.00 Build 0)  -->

<svg
   xmlns:dc="http://purl.org/dc/elements/1.1/"
   xmlns:cc="http://creativecommons.org/ns#"
   xmlns:rdf="http://www.w3.org/1999/02/22-rdf-syntax-ns#"
   xmlns:svg="http://www.w3.org/2000/svg"
   xmlns="http://www.w3.org/2000/svg"
   xmlns:sodipodi="http://sodipodi.sourceforge.net/DTD/sodipodi-0.dtd"
   xmlns:inkscape="http://www.inkscape.org/namespaces/inkscape"
   version="1.1"
   id="Capa_1"
   x="0px"
   y="0px"
   width="39.56601"
   height="37.834602"
   viewBox="0 0 39.56601 37.834602"
   xml:space="preserve"
   inkscape:version="0.48.4 r9939"
   sodipodi:docname="network.svg"><metadata
     id="metadata39"><rdf:RDF><cc:Work
         rdf:about=""><dc:format>image/svg+xml</dc:format><dc:type
           rdf:resource="http://purl.org/dc/dcmitype/StillImage" /><dc:title></dc:title></cc:Work></rdf:RDF></metadata><defs
     id="defs37" /><sodipodi:namedview
     pagecolor="#ffffff"
     bordercolor="#666666"
     borderopacity="1"
     objecttolerance="10"
     gridtolerance="10"
     guidetolerance="10"
     inkscape:pageopacity="0"
     inkscape:pageshadow="2"
     inkscape:window-width="1920"
     inkscape:window-height="1056"
     id="namedview35"
     showgrid="false"
     inkscape:zoom="11.125147"
     inkscape:cx="0.34652618"
     inkscape:cy="15.89971"
     inkscape:window-x="0"
     inkscape:window-y="24"
     inkscape:window-maximized="1"
     inkscape:current-layer="Capa_1"
     fit-margin-top="0"
     fit-margin-left="0"
     fit-margin-right="0"
     fit-margin-bottom="0" /><g
     id="g5"
     transform="translate(-101.75305,35.03881)" /><g
     id="g7"
     transform="translate(-101.75305,35.03881)" /><g
     id="g9"
     transform="translate(-101.75305,35.03881)" /><g
     id="g11"
     transform="translate(-101.75305,35.03881)" /><g
     id="g13"
     transform="translate(-101.75305,35.03881)" /><g
     id="g15"
     transform="translate(-101.75305,35.03881)" /><g
     id="g17"
     transform="translate(-101.75305,35.03881)" /><g
     id="g19"
     transform="translate(-101.75305,35.03881)" /><g
     id="g21"
     transform="translate(-101.75305,35.03881)" /><g
     id="g23"
     transform="translate(-101.75305,35.03881)" /><g
     id="g25"
     transform="translate(-101.75305,35.03881)" /><g
     id="g27"
     transform="translate(-101.75305,35.03881)" /><g
     id="g29"
     transform="translate(-101.75305,35.03881)" /><g
     id="g31"
     transform="translate(-101.75305,35.03881)" /><g
     id="g33"
     transform="translate(-101.75305,35.03881)" /><text
     xml:space="preserve"
     style="font-size:40px;font-style:normal;font-weight:normal;line-height:1000%;letter-spacing:0px;word-spacing:0px;fill:#000000;fill-opacity:1;stroke:none;font-family:Sans"
     x="-99.595772"
     y="14.084226"
     id="text3790"
     sodipodi:linespacing="1000%"><tspan
       sodipodi:role="line"
       id="tspan3792"
       x="-99.595772"
       y="14.084226" /></text>
<g
     id="g4127"
     transform="translate(-56.257357,11.503361)"><path
       style="fill:#7f3498;fill-opacity:0.80365295"
       id="path4084"
       d="m 69.13372,7.1251081 c 0.190708,-0.055392 0.400408,-0.1155327 0.62356,-0.1812123 v 5.1578252 c 1.383228,-0.106037 2.980904,-0.174882 4.800149,-0.195456 l 1.198059,-9.3447007 h -0.01424 L 75.166745,1.4188979 c -4.144935,0.217613 -8.661791,1.8406108 -8.86516,1.9134123 -0.124237,0.043523 -0.220779,0.1313592 -0.334729,0.1938735 -0.115532,0.071219 -0.236604,0.1281938 -0.344224,0.2081172 -0.12582,0.1139501 -0.21603,0.2437266 -0.314154,0.3750858 -0.07518,0.101289 -0.164595,0.1914995 -0.220778,0.3086149 -0.07992,0.1456029 -0.116325,0.3117801 -0.157473,0.4724182 -0.02611,0.1060369 -0.08467,0.1875429 -0.09575,0.3022843 l -0.852252,7.6892589 c 1.126049,-0.254014 2.620853,-0.505654 4.589658,-0.686866 L 69.13372,7.1251081 z"
       inkscape:connector-curvature="0" /><path
       style="fill:#ffda26;fill-opacity:0.80365295"
       id="path4086"
       d="m 76.039572,0.9433144 c 3.131254,0 5.672974,-3.6376991 5.672974,-6.7729099 0,-3.1304629 -2.54172,-5.6737665 -5.672974,-5.6737665 -3.136794,0 -5.674558,2.5433036 -5.674558,5.6737665 0,3.1360021 2.537764,6.7729099 5.674558,6.7729099 z"
       inkscape:connector-curvature="0" /><path
       style="fill:#7f3498;fill-opacity:0.80365295"
       id="path4088"
       d="m 84.978325,11.810515 -1.653859,-1.301722 0.186751,1.689469 c 0.561046,0.05144 1.117345,0.105246 1.636451,0.170134 l -0.169343,-0.557881 z"
       inkscape:connector-curvature="0" /><path
       style="fill:#7f3498;fill-opacity:0.80365295"
       id="path4090"
       d="M 82.326611,9.7285517 79.066372,7.1781266 c -0.232649,0.088628 -0.484288,0.1321504 -0.741467,0.1321504 -0.570542,0 -1.084109,-0.2350221 -1.4679,-0.6037773 l 0.665501,5.2005563 c 1.7322,0.02137 3.333832,0.08546 4.803314,0.19783 V 9.7285517 z"
       inkscape:connector-curvature="0" /><path
       style="fill:#7f3498;fill-opacity:0.80365295"
       id="path4092"
       d="m 76.337108,2.5615643 h -0.01266 l 0.19783,1.5446571 c 0.375086,-0.6259343 1.027134,-1.065117 1.803419,-1.065117 1.175902,0 2.129443,0.9511669 2.134191,2.1254861 l 6.576662,5.1491205 0.170925,0.421774 0.622769,2.07959 c 0.09812,0.01662 0.176465,0.03957 0.26984,0.0633 L 87.244666,5.1911214 C 87.234379,5.07638 87.17503,4.9901261 87.14496,4.8801326 87.106185,4.7258251 87.072158,4.5620219 86.997774,4.4195842 86.93526,4.3000949 86.84505,4.2003885 86.764335,4.0998908 86.669376,3.9748622 86.583123,3.8474597 86.462842,3.7406314 86.351266,3.6504209 86.223863,3.5894893 86.102,3.5261837 85.98805,3.4605041 85.905752,3.3734589 85.781515,3.3323102 85.577355,3.2595087 81.059707,1.6365109 76.912398,1.4188979 l -0.57529,1.1426664 z"
       inkscape:connector-curvature="0" /><path
       style="fill:#33983f;fill-opacity:0.80365295"
       id="path4094"
       d="m 90.687701,14.819906 c 0,0 -0.757294,-0.62356 -3.62583,-1.161658 l -0.79132,-2.643801 c -0.01266,-0.04827 -0.04036,-0.08625 -0.08151,-0.122655 l -6.78715,-5.3121323 c 0.04985,-0.1266113 0.08309,-0.2603444 0.08309,-0.405156 0,-0.6370128 -0.517523,-1.1545362 -1.160075,-1.1545362 -0.637805,0 -1.156119,0.5175234 -1.156119,1.1545362 0,0.6370128 0.519106,1.1577015 1.156119,1.1577015 0.320484,0 0.607733,-0.1313591 0.815851,-0.3394764 l 6.685864,5.2377492 0.696362,2.331229 c -2.22361,-0.37746 -5.540824,-0.695571 -10.484202,-0.695571 -12.272585,0 -14.649711,1.952979 -14.649711,1.952979 v 3.982715 h 29.298632 v -3.981924 z"
       inkscape:connector-curvature="0" /><polygon
       style="fill:#33983f;fill-opacity:0.80365295"
       transform="matrix(0.79132024,0,0,0.79132024,56.257357,-12.369066)"
       id="polygon4096"
       points="50,40.521 0,40.521 0,42.631 3.702,48.906 46.294,48.906 50,42.631 " /></g></svg>