<?xml version="1.0" standalone="no"?>
<!DOCTYPE svg PUBLIC "-//W3C//DTD SVG 1.1//EN" "http://www.w3.org/Graphics/SVG/1.1/DTD/svg11.dtd">
<svg width="267px" height="80px" version="1.1" xmlns="http://www.w3.org/2000/svg" xmlns:xlink="http://www.w3.org/1999/xlink" xml:space="preserve" style="fill-rule:evenodd;clip-rule:evenodd;stroke-miterlimit:1.41421;">
    <g id="svg2">
        <g id="g3840">
            <g id="g3046">
                <g id="g13">
                    <g id="use15">
                        <path d="M99.1686,61.5086C99.1686,63.9722 98.3228,65.8334 96.6312,67.0922C94.9396,68.3512 92.5113,68.9806 89.3464,68.9806C87.6275,68.9806 86.1337,68.8866 84.865,68.6964C83.5963,68.5204 82.3003,68.1888 80.977,67.7014L80.977,61.3462C82.2185,61.8876 83.5758,62.3344 85.0492,62.6862C86.5361,63.0382 87.8594,63.2142 89.019,63.2142C90.7515,63.2142 91.6178,62.8216 91.6178,62.0364C91.6178,61.6304 91.3722,61.2716 90.8811,60.9604C90.4036,60.6356 88.9985,60.0128 86.6657,59.0924C84.5376,58.2262 83.0506,57.2446 82.2048,56.1482C81.359,55.0382 80.9361,53.6374 80.9361,51.9452C80.9361,49.8064 81.7683,48.1414 83.4326,46.9502C85.0969,45.759 87.4501,45.1636 90.4923,45.1636C92.0202,45.1636 93.4526,45.3316 94.7895,45.671C96.14,45.996 97.5383,46.4766 98.9844,47.1126L96.8153,52.2294C95.7513,51.7558 94.6258,51.3564 93.439,51.0314C92.2521,50.6932 91.2835,50.5238 90.5332,50.5238C89.2236,50.5238 88.5688,50.842 88.5688,51.4782C88.5688,51.8708 88.7939,52.2092 89.2441,52.4934C89.7079,52.764 91.0311,53.3258 93.2139,54.1786C94.8372,54.842 96.0446,55.4918 96.8358,56.128C97.6407,56.764 98.2273,57.5154 98.5956,58.3816C98.9776,59.2344 99.1686,60.2768 99.1686,61.5086" style="fill:rgb(51,51,51);fill-rule:nonzero;"/>
                    </g>
                    <path id="path17" d="M112.874,68.9806C109.081,68.9806 106.203,67.9654 104.239,65.935C102.288,63.9046 101.312,60.9874 101.312,57.1838C101.312,53.3666 102.37,50.4088 104.484,48.3108C106.599,46.2126 109.607,45.1636 113.508,45.1636C116.196,45.1636 118.726,45.7456 121.1,46.9096L118.747,52.7776C117.778,52.358 116.885,52.0264 116.066,51.7828C115.248,51.5254 114.395,51.397 113.508,51.397C112.212,51.397 111.21,51.8978 110.5,52.8996C109.791,53.9012 109.436,55.3158 109.436,57.143C109.436,60.825 110.807,62.666 113.549,62.666C115.896,62.666 118.146,61.9892 120.302,60.6356L120.302,66.9502C118.242,68.3038 115.766,68.9806 112.874,68.9806" style="fill:rgb(51,51,51);fill-rule:nonzero;"/>
                    <g id="use19">
                        <path d="M137.606,45.1636C138.302,45.1636 138.964,45.2176 139.591,45.3256L140.041,45.4076L139.325,52.9002C138.67,52.7382 137.763,52.6564 136.604,52.6564C134.858,52.6564 133.589,53.0556 132.798,53.8544C132.006,54.6396 131.611,55.7766 131.611,57.2654L131.611,68.5752L123.61,68.5752L123.61,45.5702L129.564,45.5702L130.813,49.2454L131.202,49.2454C131.87,48.027 132.798,47.0458 133.984,46.3012C135.185,45.5432 136.392,45.1642 137.606,45.1642" style="fill:rgb(51,51,51);fill-rule:nonzero;"/>
                    </g>
                    <path id="path21" d="M164.266,57.0214C164.266,60.7844 163.243,63.7218 161.196,65.8334C159.164,67.9316 156.312,68.9806 152.643,68.9806C149.123,68.9806 146.32,67.9046 144.232,65.7522C142.159,63.6 141.122,60.6896 141.122,57.0214C141.122,53.2718 142.138,50.3614 144.171,48.2904C146.217,46.2058 149.082,45.1636 152.766,45.1636C155.044,45.1636 157.056,45.644 158.802,46.6052C160.548,47.5662 161.892,48.947 162.833,50.7472C163.788,52.534 164.266,54.6254 164.266,57.0214M149.246,57.0214C149.246,58.9976 149.512,60.5068 150.044,61.5492C150.576,62.578 151.47,63.0922 152.725,63.0922C153.966,63.0922 154.839,62.578 155.344,61.5492C155.862,60.5068 156.121,58.9976 156.121,57.0214C156.121,55.0584 155.862,53.5764 155.344,52.5746C154.825,51.573 153.939,51.0722 152.684,51.0722C151.456,51.0722 150.576,51.573 150.044,52.5746C149.512,53.5628 149.246,55.045 149.246,57.0214" style="fill:rgb(51,51,51);fill-rule:nonzero;"/>
                    <g id="use23">
                        <path d="M175.61,68.5746L167.61,68.5746L167.61,36.9806L175.61,36.9806" style="fill:rgb(51,51,51);fill-rule:nonzero;"/>
                    </g>
                    <path id="path25" d="M187.61,68.5746L179.61,68.5746L179.61,36.9806L187.61,36.9806" style="fill:rgb(51,51,51);fill-rule:nonzero;"/>
                    <g id="use27">
                        <path d="M200.883,46.0772C203.954,46.0772 206.264,47.0518 207.813,49.001C209.375,50.9366 210.157,53.7726 210.157,57.5086C210.157,61.1768 209.335,64.006 207.692,65.9958C206.062,67.9858 203.766,68.9806 200.803,68.9806C199.24,68.9806 197.833,68.6558 196.58,68.006C195.327,67.3562 194.338,66.4358 193.61,65.2446L193.428,65.2446L192.863,68.5746L191.61,68.5746L191.61,36.9806L193.61,36.9806L193.61,44.9198C193.61,46.111 193.583,47.2074 193.529,48.2092L193.469,49.935L193.61,49.935C194.445,48.6086 195.449,47.634 196.621,47.0112C197.806,46.3886 199.227,46.0772 200.883,46.0772M200.843,47.9046C198.257,47.9046 196.405,48.649 195.287,50.1382C194.169,51.6272 193.61,54.0838 193.61,57.5086L193.61,57.8538C193.61,61.1838 194.189,63.573 195.348,65.0214C196.52,66.4696 198.338,67.1938 200.803,67.1938C203.2,67.1938 205.005,66.3546 206.217,64.676C207.429,62.984 208.035,60.5814 208.035,57.468C208.035,51.0924 205.638,47.9046 200.843,47.9046" style="fill:rgb(51,51,51);fill-rule:nonzero;"/>
                    </g>
                    <path id="path29" d="M228.135,68.5746L227.63,65.0822L227.469,65.0822C226.364,66.5034 225.226,67.512 224.054,68.1076C222.896,68.6896 221.522,68.9806 219.933,68.9806C217.778,68.9806 216.101,68.4256 214.902,67.3158C213.703,66.2056 213.104,64.6694 213.104,62.7064C213.104,60.5542 213.993,58.8824 215.771,57.6914C217.562,56.5002 220.148,55.8708 223.529,55.803L227.711,55.681L227.711,54.219C227.711,52.121 227.287,50.5372 226.438,49.4678C225.59,48.3984 224.223,47.8636 222.337,47.8636C220.303,47.8636 218.195,48.4322 216.013,49.5692L215.266,47.8232C217.677,46.686 220.061,46.1176 222.418,46.1176C224.829,46.1176 226.627,46.7468 227.812,48.006C229.011,49.2648 229.61,51.2274 229.61,53.894L229.61,68.5742M220.054,67.153C222.398,67.153 224.243,66.4828 225.59,65.1428C226.95,63.7892 227.63,61.9144 227.63,59.5184L227.63,57.3458L223.792,57.5078C220.707,57.6578 218.505,58.144 217.185,58.9696C215.879,59.782 215.225,61.0542 215.225,62.787C215.225,64.1678 215.643,65.2438 216.478,66.0154C217.327,66.7734 218.519,67.1524 220.054,67.1524" style="fill:rgb(51,51,51);fill-rule:nonzero;"/>
                    <g id="use31">
                        <path d="M242.751,68.9806C239.613,68.9806 237.155,67.9858 235.377,65.9958C233.599,64.006 232.71,61.231 232.71,57.671C232.71,54.0164 233.633,51.1736 235.478,49.143C237.323,47.0992 239.849,46.0772 243.054,46.0772C244.953,46.0772 246.772,46.4088 248.509,47.0722L247.964,48.8588C246.064,48.2228 244.415,47.9046 243.014,47.9046C240.32,47.9046 238.279,48.7438 236.892,50.4224C235.505,52.0872 234.811,54.49 234.811,57.6304C234.811,60.6086 235.505,62.9434 236.892,64.6356C238.279,66.314 240.219,67.1532 242.711,67.1532C244.704,67.1532 246.556,66.7944 248.267,66.0772L248.267,67.945C246.866,68.6354 245.027,68.9806 242.751,68.9806" style="fill:rgb(51,51,51);fill-rule:nonzero;"/>
                    </g>
                    <path id="path33" d="M253.57,58.8892L264.783,46.5036L267.207,46.5036L258.56,55.9248L267.955,68.5746L265.55,68.5746L257.206,57.4274L253.61,60.7168L253.61,68.5746L251.61,68.5746L251.61,36.9806L253.61,36.9806L253.61,52.8182L253.469,58.8892" style="fill:rgb(51,51,51);fill-rule:nonzero;"/>
                </g>
                <g id="use35">
                    <path d="M51.6102,24.9806L31.6101,44.9806L42.9396,44.9806L51.61,36.2478L60.2806,44.9806L71.6102,44.9806Z" style="fill:rgb(51,204,170);fill-rule:nonzero;"/>
                </g>
                <rect id="path37" x="31.6101" y="48.9802" width="40" height="8" style="fill:rgb(51,51,51);fill-rule:nonzero;"/>
                <g id="use39">
                    <path d="M51.6102,80.9806L31.6101,60.9806L42.9396,60.9806L51.61,69.7134L60.2806,60.9806L71.6102,60.9806Z" style="fill:rgb(51,51,51);fill-rule:nonzero;"/>
                </g>
            </g>
            <g>
                <path id="path1309" d="M42.449,7.03501C38.5666,8.07426 34.587,10.141 31.7875,12.1421C28.988,14.1432 21.6753,19.1855 20.0057,20.7833C18.387,22.3324 16.475,22.8728 15.6383,24.7818C15.3156,25.5179 17.8263,27.7387 18.3183,27.9692C19.5951,28.5676 21.6763,27.5066 22.6259,27.4433C25.708,27.2376 28.8663,26.8387 31.9879,28.8935C31.4103,29.4607 32.3275,28.8501 31.1468,33.8242C30.7304,35.5782 29.8206,40.1289 30.9386,40.9971C32.0493,41.8598 32.7277,38.497 33.8313,39.0118C33.8307,39.0126 33.831,39.0147 33.8306,39.0154L33.8292,39.0225C33.8296,39.0229 33.8321,39.0229 33.8326,39.0231C33.8359,39.024 33.8433,39.0237 33.8504,39.0229C33.8524,39.0238 33.8551,39.0231 33.8573,39.0242C33.8651,39.0278 33.8722,39.0321 33.8801,39.0358L33.8866,39.0187C34.4091,38.8874 38.4823,37.1421 42.2007,37.8439C44.2968,38.2395 47.6401,37.1304 49.5634,36.5518C52.6135,35.6343 56.8954,34.8052 59.6117,34.7578C61.6127,34.723 63.4232,33.6212 65.3483,33.4927C66.484,33.417 65.4309,29.8558 65.4075,29.4796C65.2947,27.6716 62.9806,24.8933 61.7889,22.4244C60.5971,19.9555 58.5998,16.8214 56.4,14.3639C54.2004,11.9062 51.2327,8.72389 49.1431,7.74468C47.0536,6.76547 46.6627,5.90705 42.449,7.03496Z" style="fill:rgb(255,50,50);"/>
                <path id="path5882" d="M33.1718,15.7102C30.6527,16.3037 28.4953,24.1343 25.3906,25.4956C23.36,26.3859 17.8263,27.7387 18.3183,27.9692C19.5951,28.5676 21.6763,27.5066 22.6259,27.4433C25.708,27.2376 28.8663,26.8387 31.9879,28.8935C31.5998,29.2746 31.8865,29.124 31.7583,30.4927C31.6958,31.1612 31.5342,32.1921 31.1468,33.8242C30.7304,35.5782 29.8206,40.1289 30.9386,40.9971C32.0493,41.8598 32.7277,38.497 33.8313,39.0118C33.8307,39.0126 33.831,39.0147 33.8306,39.0154L33.8292,39.0225C33.8296,39.0229 33.8321,39.0229 33.8326,39.0231C33.8359,39.024 33.8433,39.0237 33.8504,39.0229C33.8524,39.0238 33.8551,39.0231 33.8573,39.0242C33.8651,39.0278 33.8722,39.0321 33.8801,39.0358L33.8866,39.0187C34.4091,38.8874 38.4823,37.1421 42.2007,37.8439C44.2968,38.2395 47.6401,37.1304 49.5634,36.5518C52.6135,35.6343 56.8954,34.8052 59.6117,34.7578C61.6127,34.723 63.4232,33.6212 65.3483,33.4927C66.484,33.417 58.2902,34.1002 61.5558,31.8029C63.0044,30.7837 47.0509,33.927 40.9262,27.1298C34.8615,20.3992 35.7512,15.1026 33.1716,15.7103Z" style="fill:rgb(14,0,0);fill-opacity:0.101124;"/>
                <path id="path5878" d="M15.897,23.9458C16.3876,24.262 19.6823,28.3153 20.0716,28.0316C20.1186,27.584 19.7344,27.4078 19.4641,27.3567C19.826,26.9093 19.8942,26.4415 19.2661,26.4013C18.5698,26.2818 17.8096,26.1979 18.557,25.4693C18.9021,25.061 18.5338,24.3359 18.3219,23.967C17.7652,23.6746 17.3456,23.1454 17.1175,22.7857" style="fill:black;fill-opacity:0.269663;stroke-width:0.11px;stroke:black;stroke-opacity:0.269663;"/>
                <path id="path5003" d="M60.6166,32.674C59.5871,32.3189 58.2953,31.9088 57.3851,31.9635C56.7599,31.4499 56.28,32.0828 55.7383,32.2513C55.6474,31.2623 54.148,32.6695 53.4875,32.6776C53.0185,32.9394 53.3417,31.8981 52.5019,32.2942C51.4577,32.3901 50.8118,32.4599 50.0372,32.7861C49.8512,33.8628 48.1791,34.4693 47.9288,33.2892C47.0171,33.6751 45.3218,34.4235 45.3109,33.203C43.8513,34.304 43.8048,35.299 42.3799,35.8304C42.506,34.8774 39.2891,34.3646 38.8506,35.3648C37.9678,35.7106 39.0343,34.1123 37.7585,34.5516C36.3215,34.1452 37.1579,36.9615 34.2279,35.8101C32.5966,35.7591 33.5,38.0567 32.4234,39.0193C32.1365,40.0314 30.892,38.6667 30.3883,38.7424C30.5055,40.3451 30.8592,39.8016 30.4877,40.892C30.2661,42.2579 29.9694,42.9419 31.5145,43.2264C32.0148,42.5674 31.4894,42.8462 31.6013,44.0618C32.4935,43.8092 33.6663,42.3633 33.5459,43.8493C34.1513,42.9526 36.068,42.4852 36.0439,41.5194C37.014,41.6184 38.1028,42.6722 38.9218,41.3913C39.7439,40.4452 40.9257,40.0064 40.9382,40.7371C41.9376,41.645 42.0375,41.461 43.0766,41.23C42.809,40.0594 45.5082,41.1496 44.0828,39.9841C44.649,39.4327 46.1812,39.1105 47.0666,39.3021C47.8499,40.4113 50.2366,40.503 50.608,39.0674C50.6859,37.938 52.4984,37.5518 53.176,38.3326C54.3545,37.3276 56.2134,38.7879 57.2275,38.0176C56.316,36.8669 58.5158,36.1151 58.9266,36.9973C59.7337,36.5758 60.4848,35.0592 61.3678,36.145C62.3832,35.8231 63.6232,35.3756 64.4822,35.0402C65.127,36.0739 66.7961,35.0104 66.0726,33.7593C65.6809,32.8656 67.3588,34.1993 66.902,33.0654C66.3824,31.8457 65.6527,30.1506 64.7586,30.2066C63.5411,29.9107 62.8191,30.7098 62.7686,31.8407C62.7532,31.0155 61.3148,31.8198 60.5603,32.1191L60.1467,32.2148" style="fill:black;fill-opacity:0.294045;stroke-width:0.08px;stroke:black;stroke-opacity:0.294045;"/>
                <path id="path1307" d="M61.2973,32.9756C60.2678,32.6205 59.3138,32.5706 58.4035,32.6253C57.7783,32.1117 57.0364,32.2801 56.4947,32.4486C56.4038,31.4596 55.1664,33.3313 54.5059,33.3394C54.0369,33.6012 54.3602,32.5599 53.5203,32.956C52.4762,33.0519 51.2657,32.4222 50.4911,32.7484C50.305,33.8251 48.6329,34.4316 48.3827,33.2515C47.471,33.6374 46.3403,35.0853 46.3293,33.8648C44.6182,33.7918 43.8852,35.428 42.4603,35.9594C42.5864,35.0064 40.3076,35.0264 39.8691,36.0266C38.9863,36.3724 39.6343,34.2208 38.3586,34.66C36.9216,34.2537 36.9608,37.0381 35.2464,36.4719C33.615,36.4209 33.8429,37.9981 32.7663,38.9606C32.4794,39.9728 31.9105,39.3284 31.4068,39.4042C32.2357,40.5483 28.8656,40.31 29.8661,42.0743C29.6445,43.4402 29.9833,44.4221 31.5284,44.7065C32.0287,44.0476 32.5078,43.508 32.6197,44.7236C33.5119,44.471 34.6848,43.0251 34.5644,44.5111C35.1698,43.6144 37.0864,43.147 37.0623,42.1812C38.0325,42.2802 39.1213,43.334 39.9402,42.0531C40.7624,41.107 40.8982,41.879 40.9106,42.6097C41.91,43.5176 43.056,42.1228 44.0951,41.8918C43.8275,40.7212 46.5267,41.8113 45.1013,40.6459C45.6674,40.0945 47.1996,39.7723 48.0851,39.9639C48.862,40.6807 51.2551,41.1648 51.6265,39.7291C51.7044,38.5998 53.5168,38.2136 54.1945,38.9944C55.373,37.9894 57.2319,39.4497 58.246,38.6794C57.3345,37.5287 59.5343,36.7769 59.9451,37.6591C60.7522,37.2376 61.5033,35.721 62.3862,36.8067C63.4017,36.4849 64.6417,36.0374 65.5007,35.7019C66.1455,36.7357 67.8146,35.6722 67.091,34.4211C66.6994,33.5274 68.3773,34.8611 67.9205,33.7272C67.9307,32.4296 67.4282,30.4216 65.7771,30.8684C64.5595,30.5725 63.8376,31.3716 63.7871,32.5025C63.7717,31.6772 61.8493,31.9752 61.0948,32.2745L60.8476,32.4016" style="fill:white;"/>
                <path id="path3249" d="M32.7604,38.9939C32.4735,40.0061 31.9046,39.3617 31.4009,39.4375C32.2298,40.5816 28.8598,40.3433 29.8602,42.1076C29.6386,43.4736 29.9774,44.4554 31.5225,44.7398C32.0228,44.0809 32.5019,43.5413 32.6139,44.7569C33.5061,44.5043 34.6789,43.0584 34.5585,44.5444C35.1639,43.6477 37.0806,43.1803 37.0565,42.2145C38.0266,42.3135 39.0689,43.2021 39.8879,41.9212C40.71,40.975 40.8923,41.9123 40.9047,42.643C41.9042,43.5509 43.0501,42.1561 44.0892,41.9251C43.8216,40.7545 45.3142,41.7174 45.0954,40.6792C44.9521,39.9993 49.7439,40.2006 49.0547,39.5356C46.9953,37.5487 43.7781,40.5424 43.3127,40.3513C42.8472,40.1602 42.3329,40.2761 42.9832,39.9859C43.6334,39.6957 42.0516,40.173 40.7342,39.7179C39.4169,39.2628 38.4526,39.8382 38.3646,40.9733C37.3723,40.3731 37.3012,41.0549 35.7554,41.4729C36.7404,40.0724 34.0146,41.1009 34.0146,41.1009C34.0146,41.1009 34.4895,39.5653 33.6361,39.7679C34.0949,38.9665 33.5857,38.7196 33.5857,38.7196Z" style="fill:black;fill-opacity:0.11236;"/>
                <path id="path2251" d="M16.5908,22.8188C16.4109,22.5073 15.8505,22.4215 15.7784,22.1573C15.9037,21.8505 15.411,22.0731 15.314,21.9044C14.7345,22.3658 13.9345,22.5655 13.5051,23.2001C13.7334,23.1514 13.7329,22.8267 13.4834,23.0662C13.0135,23.2933 12.5593,23.6921 12.736,24.2612C12.7788,24.5532 12.4009,24.8045 12.8622,24.8737C12.8021,25.3412 12.0809,25.3215 12.0805,25.7342C12.2401,26.1843 12.1699,26.6533 11.7902,26.969C11.4147,27.3106 11.5694,27.8133 11.5831,28.2282C11.3942,28.5057 11.2879,28.7638 11.5368,29.0281C11.5895,29.5049 11.9965,29.8206 11.9995,30.3167C12.1708,30.5767 12.5144,30.5606 12.6899,30.8544C13.2025,30.8968 13.2402,31.593 13.7285,31.6896C14.148,31.8226 14.6443,31.7304 15.0223,31.828C15.3323,32.0724 15.6881,32.2428 16.0784,32.3114C16.569,32.6151 16.7357,31.8593 17.0327,31.6159C17.048,31.2353 17.3291,31.2057 17.5174,31.5262C17.9458,31.8087 18.3898,31.3222 18.6969,31.0647C18.9972,30.7464 19.3341,30.4708 19.6685,30.1917C20.1432,29.6705 20.3117,28.9246 20.2852,28.2386C20.3322,27.8087 19.9212,27.7849 19.6509,27.7358C19.7732,27.3753 20.0811,26.8568 19.453,26.8182C19.0928,26.7267 18.2763,26.3353 18.7439,25.923C19.089,25.5308 18.6141,25.0028 18.4022,24.6485C18.0352,24.3645 17.8219,23.9687 17.5937,23.6232C17.1519,23.5548 16.7379,23.2936 16.6253,22.8378C16.5074,22.4758 16.5926,22.7439 16.6299,22.9201" style="fill:white;"/>
                <path id="path4128" d="M12.9239,27.6027C12.7027,27.3382 13.5763,27.4628 13.5041,27.1986C13.6294,26.8918 13.4795,26.879 13.3824,26.7103C12.8029,27.1717 12.9394,26.0786 12.51,26.7133C12.7383,26.6645 12.7008,25.8622 12.4513,26.1017C11.9814,26.3287 12.0809,25.3215 12.0805,25.7342C12.2401,26.1843 12.1699,26.6533 11.7902,26.969C11.4147,27.3106 11.5694,27.8133 11.5831,28.2282C11.3942,28.5057 11.2879,28.7638 11.5368,29.0281C11.5895,29.5049 11.9965,29.8206 11.9995,30.3167C12.1708,30.5767 12.5144,30.5606 12.6899,30.8544C13.2025,30.8968 13.2402,31.593 13.7285,31.6896C14.148,31.8226 14.6443,31.7304 15.0223,31.828C15.3323,32.0724 15.6881,32.2428 16.0784,32.3114C16.569,32.6151 16.7357,31.8593 17.0327,31.6159C17.048,31.2353 17.3292,31.2057 17.5174,31.5262C17.9458,31.8087 18.3898,31.3222 18.6969,31.0647C18.9972,30.7464 17.5438,31.113 17.8782,30.8339C18.3529,30.3127 16.8071,31.5614 16.7805,30.8754C16.8276,30.4455 15.0714,31.4223 15.4433,30.6666C15.5655,30.3061 15.6555,30.5661 15.0275,30.5275C14.6673,30.436 13.673,29.7893 14.1406,29.3769C14.4857,28.9847 13.9552,29.4383 13.7433,29.084C13.3763,28.7999 13.6107,28.9563 13.3825,28.6108C12.9407,28.5424 13.135,28.3667 13.0223,27.9109C12.8312,28.4457 12.8867,27.4265 12.9239,27.6027Z" style="fill:black;fill-opacity:0.0955056;"/>
                <path id="path5880" d="M31.8889,29.0157C31.8889,29.0157 33.705,24.5126 34.1413,22.716C34.5496,21.0351 34.4968,18.4694 33.8853,17.9945C33.2738,17.5196 32.4696,18.3409 32.3848,19.3135C32.3,20.2861 32.229,20.5312 32.6395,22.3863C32.8256,23.2273 32.7326,25.2207 32.4796,26.1615C32.2266,27.1023 31.6746,29.2448 31.8889,29.0157Z" style="fill:black;fill-opacity:0.219608;"/>
            </g>
        </g>
    </g>
</svg>
