<?xml version="1.0" encoding="UTF-8" standalone="no"?>
<svg
   xmlns:dc="http://purl.org/dc/elements/1.1/"
   xmlns:cc="http://creativecommons.org/ns#"
   xmlns:rdf="http://www.w3.org/1999/02/22-rdf-syntax-ns#"
   xmlns:svg="http://www.w3.org/2000/svg"
   xmlns="http://www.w3.org/2000/svg"
   xmlns:xlink="http://www.w3.org/1999/xlink"
   xmlns:sodipodi="http://sodipodi.sourceforge.net/DTD/sodipodi-0.dtd"
   xmlns:inkscape="http://www.inkscape.org/namespaces/inkscape"
   width="267.9545"
   height="80.980606"
   id="svg2"
   version="1.1"
   inkscape:version="0.48.4 r9939"
   sodipodi:docname="scrollback-dark-large.svg"
   inkscape:export-filename="/home/priyanka/Scrollback/scrollback.github.io/assets/images/scrollback-dark-large-christmas.png"
   inkscape:export-xdpi="90"
   inkscape:export-ydpi="90">
  <metadata
     id="metadata43">
    <rdf:RDF>
      <cc:Work
         rdf:about="">
        <dc:format>image/svg+xml</dc:format>
        <dc:type
           rdf:resource="http://purl.org/dc/dcmitype/StillImage" />
        <dc:title></dc:title>
      </cc:Work>
    </rdf:RDF>
  </metadata>
  <sodipodi:namedview
     pagecolor="#ffffff"
     bordercolor="#666666"
     borderopacity="1"
     objecttolerance="10"
     gridtolerance="10"
     guidetolerance="10"
     inkscape:pageopacity="0"
     inkscape:pageshadow="2"
     inkscape:window-width="1920"
     inkscape:window-height="1056"
     id="namedview41"
     showgrid="false"
     fit-margin-top="0"
     fit-margin-left="0"
     fit-margin-right="0"
     fit-margin-bottom="0"
     inkscape:zoom="1.7206265"
     inkscape:cx="215.33915"
     inkscape:cy="-107.56283"
     inkscape:window-x="0"
     inkscape:window-y="24"
     inkscape:window-maximized="1"
     inkscape:current-layer="svg2" />
  <defs
     id="defs4">
    <path
       id="0"
       d="m 37.779228,1038.8292 c -1e-5,1.2318 -0.422909,2.1624 -1.2687,2.7918 -0.845808,0.6295 -2.059939,0.9442 -3.642398,0.9442 -0.859447,0 -1.606343,-0.047 -2.24069,-0.1421 -0.634353,-0.088 -1.282344,-0.2538 -1.943976,-0.4975 l 0,-3.1776 c 0.620706,0.2707 1.299392,0.4941 2.03606,0.67 0.743483,0.176 1.405114,0.264 1.984903,0.264 0.866257,0 1.299388,-0.1963 1.299394,-0.5889 -6e-6,-0.203 -0.122784,-0.3824 -0.368332,-0.538 -0.23874,-0.1624 -0.941299,-0.4738 -2.10768,-0.934 -1.064074,-0.4331 -1.80756,-0.9239 -2.230458,-1.4721 -0.422901,-0.555 -0.634352,-1.2554 -0.634351,-2.1015 -1e-6,-1.0694 0.416078,-1.9019 1.248237,-2.4975 0.832157,-0.5956 2.008774,-0.8933 3.529854,-0.8933 0.763942,0 1.480144,0.084 2.148606,0.2537 0.675267,0.1625 1.374417,0.4028 2.097448,0.7208 l -1.084533,2.5584 c -0.532045,-0.2368 -1.094774,-0.4365 -1.688191,-0.599 -0.593432,-0.1691 -1.077721,-0.2538 -1.452867,-0.2538 -0.654818,0 -0.982224,0.1591 -0.98222,0.4772 -4e-6,0.1963 0.112541,0.3655 0.337638,0.5076 0.231907,0.1353 0.893541,0.4162 1.984902,0.8426 0.811688,0.3317 1.415343,0.6566 1.810969,0.9747 0.402428,0.318 0.695729,0.6937 0.879905,1.1268 0.190978,0.4264 0.28647,0.9476 0.28648,1.5635"
       inkscape:connector-curvature="0" />
    <path
       id="1"
       d="m 56.998136,1030.6567 c 0.347862,0 0.678676,0.027 0.99245,0.081 l 0.225093,0.041 -0.358101,3.7463 c -0.327416,-0.081 -0.78101,-0.1219 -1.360784,-0.1219 -0.87309,0 -1.50744,0.1996 -1.903051,0.599 -0.395621,0.3926 -0.59343,0.9611 -0.593425,1.7055 l 0,5.6549 -4.000499,0 0,-11.5025 2.977355,0 0.624117,1.8376 0.194399,0 c 0.334222,-0.6092 0.798047,-1.0998 1.391478,-1.4721 0.600239,-0.379 1.203893,-0.5685 1.810968,-0.5685"
       inkscape:connector-curvature="0" />
    <path
       id="2"
       d="m 76,1042.3622 -4,0 0,-15.797 4,0 0,15.797"
       inkscape:connector-curvature="0" />
    <path
       id="3"
       d="m 88.636634,1031.1135 c 1.535438,0 2.690388,0.4873 3.464852,1.4619 0.781184,0.9678 1.17178,2.3858 1.171789,4.2538 -9e-6,1.8341 -0.410816,3.2487 -1.232392,4.2436 -0.814878,0.995 -1.963093,1.4924 -3.444655,1.4924 -0.781196,0 -1.484942,-0.1624 -2.111236,-0.4873 -0.626304,-0.3249 -1.121282,-0.7851 -1.484937,-1.3807 l -0.09091,0 -0.282845,1.665 -0.6263,0 0,-15.797 1.00006,0 0,3.9696 c -3e-6,0.5956 -0.01347,1.1438 -0.0404,1.6447 l -0.0303,0.8629 0.07072,0 c 0.417529,-0.6632 0.919242,-1.1505 1.50514,-1.4619 0.592623,-0.3113 1.303103,-0.467 2.131439,-0.467 m -0.0202,0.9137 c -1.293013,0 -2.218992,0.3722 -2.777944,1.1168 -0.558959,0.7445 -0.838436,1.9728 -0.838433,3.6852 l 0,0.1726 c -3e-6,1.665 0.289575,2.8596 0.868738,3.5838 0.585889,0.7241 1.495033,1.0862 2.727435,1.0862 1.198718,0 2.101127,-0.4196 2.707232,-1.2589 0.606086,-0.846 0.909138,-2.0473 0.909147,-3.604 -9e-6,-3.1878 -1.198736,-4.7817 -3.596175,-4.7817"
       inkscape:connector-curvature="0" />
    <path
       id="4"
       d="m 109.5705,1042.5652 c -1.56912,0 -2.79814,-0.4974 -3.68709,-1.4924 -0.88894,-0.9949 -1.33341,-2.3824 -1.33341,-4.1624 0,-1.8273 0.46131,-3.2487 1.38392,-4.264 0.92261,-1.0219 2.18531,-1.5329 3.78811,-1.5329 0.94954,0 1.85869,0.1658 2.72743,0.4975 l -0.27274,0.8933 c -0.94955,-0.318 -1.77453,-0.4771 -2.4749,-0.4771 -1.34688,0 -2.36715,0.4196 -3.06079,1.2589 -0.69365,0.8324 -1.04047,2.0338 -1.04046,3.604 -1e-5,1.4891 0.34681,2.6565 1.04046,3.5026 0.69364,0.8392 1.66341,1.2588 2.90927,1.2588 0.99668,0 1.92267,-0.1794 2.77794,-0.538 l 0,0.9339 c -0.70038,0.3452 -1.61964,0.5178 -2.75774,0.5178"
       inkscape:connector-curvature="0" />
    <path
       id="5"
       d="m 14.000045,1020.3622 -10.000045,10 5.664746,0 4.335208,-4.3664 4.335305,4.3664 5.664766,0 z"
       inkscape:connector-curvature="0"
       style="fill:#33ccaa" />
    <path
       id="6"
       d="m 14.000043,1048.3622 -10.000046,-10 5.664746,0 4.335208,4.3664 4.335305,-4.3664 5.664766,0 z"
       inkscape:connector-curvature="0" />
  </defs>
  <g
     id="g3840"
     transform="translate(-32.901272,98.790932)">
    <g
       transform="translate(64.511386,-73.810324)"
       id="g3046">
      <g
         style="fill:#333333"
         id="g13">
        <use
           y="0"
           x="0"
           transform="matrix(2,0,0,2,-7.999994,-2041.1304)"
           height="372.04999"
           width="524.40997"
           xlink:href="#0"
           id="use15" />
        <path
           inkscape:connector-curvature="0"
           d="m 81.263742,44 c -3.79247,0 -6.670918,-1.0152 -8.63535,-3.0456 -1.9508,-2.0304 -2.926198,-4.9476 -2.926196,-8.7512 -2e-6,-3.8172 1.05725,-6.775 3.171752,-8.873 2.114494,-2.0982 5.12254,-3.1472 9.024144,-3.1472 2.687446,0 5.218024,0.582 7.591742,1.746 l -2.353236,5.868 c -0.968594,-0.4196 -1.862144,-0.7512 -2.680642,-0.9948 -0.818532,-0.2574 -1.671152,-0.3858 -2.557864,-0.3858 -1.295998,0 -2.29868,0.5008 -3.008046,1.5026 -0.709394,1.0016 -1.064082,2.4162 -1.064074,4.2434 -8e-6,3.682 1.371004,5.523 4.113048,5.523 2.346396,0 4.597312,-0.6768 6.752762,-2.0304 l 0,6.3146 C 86.631828,43.3232 84.155818,44 81.263742,44"
           id="path17" />
        <use
           y="0"
           x="0"
           transform="matrix(2,0,0,2,-7.999994,-2041.1304)"
           height="372.04999"
           width="524.40997"
           xlink:href="#1"
           id="use19" />
        <path
           inkscape:connector-curvature="0"
           d="m 132.65556,32.0408 c -2e-5,3.763 -1.02317,6.7004 -3.06944,8.812 C 127.55345,42.951 124.70229,44 121.03263,44 c -3.51964,0 -6.32305,-1.076 -8.41026,-3.2284 -2.07358,-2.1522 -3.11037,-5.0626 -3.11036,-8.7308 -1e-5,-3.7496 1.01632,-6.66 3.04897,-8.731 2.04628,-2.0846 4.91109,-3.1268 8.59442,-3.1268 2.27819,0 4.29038,0.4804 6.03656,1.4416 1.74615,0.961 3.08988,2.3418 4.03119,4.142 0.95492,1.7868 1.43239,3.8782 1.43241,6.2742 m -15.01978,0 c -1e-5,1.9762 0.26601,3.4854 0.79806,4.5278 0.53202,1.0288 1.42557,1.543 2.68064,1.543 1.2414,0 2.11448,-0.5142 2.61925,-1.543 0.51838,-1.0424 0.77757,-2.5516 0.77759,-4.5278 -2e-5,-1.963 -0.25921,-3.445 -0.77759,-4.4468 -0.51841,-1.0016 -1.40514,-1.5024 -2.66018,-1.5024 -1.22778,0 -2.10769,0.5008 -2.63971,1.5024 -0.53205,0.9882 -0.79807,2.4704 -0.79806,4.4468"
           id="path21" />
        <use
           y="0"
           x="0"
           transform="matrix(2,0,0,2,-7.999994,-2041.1304)"
           height="372.04999"
           width="524.40997"
           xlink:href="#2"
           id="use23" />
        <path
           inkscape:connector-curvature="0"
           d="m 156.00001,43.594 -8,0 0,-31.594 8,0 0,31.594"
           id="path25" />
        <use
           y="0"
           x="0"
           transform="matrix(2,0,0,2,-7.999994,-2041.1304)"
           height="372.04999"
           width="524.40997"
           xlink:href="#3"
           id="use27" />
        <path
           inkscape:connector-curvature="0"
           d="m 196.52521,43.594 -0.5051,-3.4924 -0.1616,0 c -1.10446,1.4212 -2.24258,2.4298 -3.41436,3.0254 -1.15832,0.582 -2.53215,0.873 -4.12144,0.873 -2.15503,0 -3.8319,-0.555 -5.03061,-1.6648 -1.19873,-1.1102 -1.79809,-2.6464 -1.79809,-4.6094 0,-2.1522 0.88895,-3.824 2.66683,-5.015 1.79135,-1.1912 4.37736,-1.8206 7.75805,-1.8884 l 4.18204,-0.122 0,-1.462 c -2e-5,-2.098 -0.42428,-3.6818 -1.2728,-4.7512 -0.84854,-1.0694 -2.21564,-1.6042 -4.10124,-1.6042 -2.0338,0 -4.14167,0.5686 -6.32362,1.7056 l -0.74751,-1.746 c 2.41092,-1.1372 4.7949,-1.7056 7.15193,-1.7056 2.4109,0 4.209,0.6292 5.39428,1.8884 1.1987,1.2588 1.79806,3.2214 1.79808,5.888 l 0,14.6802 -1.47484,0 m -8.08127,-1.4212 c 2.34353,0 4.18877,-0.6702 5.53567,-2.0102 1.36032,-1.3536 2.0405,-3.2284 2.04052,-5.6244 l 0,-2.1726 -3.8386,0.162 c -3.08437,0.15 -5.28653,0.6362 -6.60645,1.4618 -1.30649,0.8124 -1.95974,2.0846 -1.95972,3.8174 -2e-5,1.3808 0.41752,2.4568 1.25259,3.2284 0.84853,0.758 2.04052,1.137 3.57599,1.137"
           id="path29" />
        <use
           y="0"
           x="0"
           transform="matrix(2,0,0,2,-7.999994,-2041.1304)"
           height="372.04999"
           width="524.40997"
           xlink:href="#4"
           id="use31" />
        <path
           inkscape:connector-curvature="0"
           d="m 221.95971,33.9086 11.2128,-12.3856 2.42436,0 -8.64696,9.4212 9.39448,12.6498 -2.40418,0 -8.34392,-11.1472 -3.59618,3.2894 0,7.8578 -2.0001,0 0,-31.594 2.0001,0 0,15.8376 -0.1414,6.071 0.1012,0"
           id="path33" />
      </g>
      <use
         y="0"
         x="0"
         xlink:href="#5"
         width="524.40997"
         height="372.04999"
         transform="matrix(2,0,0,2,-7.999994,-2040.7244)"
         id="use35" />
      <path
         style="fill:#333333"
         inkscape:connector-curvature="0"
         d="m 0,23.9996 0,8 40,0 0,-8 z"
         id="path37" />
      <use
         y="0"
         x="0"
         style="fill:#333333"
         xlink:href="#6"
         width="524.40997"
         height="372.04999"
         transform="matrix(2,0,0,2,-7.999994,-2040.7244)"
         id="use39" />
    </g>
    <path
       id="path1309"
       style="fill:#ff3232;fill-opacity:1;fill-rule:evenodd;stroke:#000000;stroke-width:0.14550522px;stroke-linecap:butt;stroke-linejoin:miter;stroke-opacity:1"
       d="m 72.225905,-98.021154 c -4.905584,1.350138 -9.933896,4.035141 -13.47116,6.634885 -3.537263,2.599744 -12.777095,9.150444 -14.886587,11.226222 -2.045287,2.012599 -4.461201,2.714634 -5.518376,5.194624 -0.4077,0.956408 2.764637,3.841501 3.386276,4.141034 1.613274,0.77734 4.242901,-0.601011 5.442814,-0.683327 3.894221,-0.26715 7.884917,-0.785353 11.829092,1.88412 -0.729807,0.736785 0.429101,-0.05643 -1.062743,6.40567 -0.526078,2.278768 -1.675674,8.190779 -0.263105,9.318748 1.403459,1.120696 2.260615,-3.248062 3.655011,-2.579195 -6.98e-4,10e-4 -3.49e-4,0.0037 -8.73e-4,0.0046 -3.49e-4,8.73e-4 -6.98e-4,0.0039 -8.73e-4,0.0046 8.3e-5,6.98e-4 -10e-4,0.0041 -8.72e-4,0.0046 5.23e-4,5.24e-4 0.0037,5.24e-4 0.0043,8.73e-4 0.0042,0.0012 0.01356,6.99e-4 0.02248,-3.49e-4 0.0026,0.0012 0.006,3.49e-4 0.0087,0.0017 0.0099,0.0047 0.01884,0.01032 0.02878,0.01512 l 0.0083,-0.02222 c 0.660124,-0.170604 5.806762,-2.438046 10.505102,-1.526283 2.648511,0.513967 6.872807,-0.926905 9.302974,-1.678551 3.853865,-1.191986 9.264168,-2.269165 12.6963,-2.330669 2.528343,-0.04531 4.815955,-1.476705 7.248355,-1.643571 1.43506,-0.09845 0.10443,-4.724977 0.0748,-5.21371 -0.14255,-2.348887 -3.066376,-5.958214 -4.572231,-9.165699 -1.505856,-3.207486 -4.029505,-7.279148 -6.808999,-10.471932 -2.779253,-3.192919 -6.529059,-7.327186 -9.169227,-8.599327 -2.640166,-1.272141 -3.134134,-2.387356 -8.45823,-0.922033 z"
       inkscape:connector-curvature="0" />
    <path
       id="path5882"
       style="opacity:0.10112359;fill:#0e0000;fill-opacity:1;fill-rule:evenodd;stroke:none"
       d="m 60.503839,-86.750693 c -3.182931,0.771015 -5.908856,10.944194 -9.831745,12.712687 -2.565748,1.156675 -9.557675,2.914084 -8.936036,3.213617 1.613274,0.77734 4.242901,-0.601011 5.442814,-0.683327 3.894221,-0.26715 7.884917,-0.785353 11.829092,1.88412 -0.729807,0.736785 0.429101,-0.05643 -1.062743,6.40567 -0.526078,2.278768 -1.675674,8.190779 -0.263105,9.318748 1.403459,1.120696 2.260615,-3.248062 3.655011,-2.579195 -6.98e-4,10e-4 -3.49e-4,0.0037 -8.73e-4,0.0046 -3.49e-4,8.73e-4 -6.98e-4,0.0039 -8.73e-4,0.0046 8.3e-5,6.98e-4 -10e-4,0.0041 -8.72e-4,0.0046 5.23e-4,5.24e-4 0.0037,5.24e-4 0.0043,8.73e-4 0.0042,0.0012 0.01356,6.99e-4 0.02248,-3.49e-4 0.0026,0.0012 0.006,3.49e-4 0.0087,0.0017 0.0099,0.0047 0.01884,0.01032 0.02878,0.01512 l 0.0083,-0.02222 c 0.660124,-0.170604 5.806762,-2.438046 10.505102,-1.526283 2.648511,0.513967 6.872807,-0.926905 9.302974,-1.678551 3.853865,-1.191986 9.264168,-2.269165 12.6963,-2.330669 2.528343,-0.04531 4.815955,-1.476705 7.248355,-1.643571 1.43506,-0.09845 -8.918087,0.789179 -4.791949,-2.195384 1.830446,-1.324015 -18.327296,2.759584 -26.066121,-6.071066 -7.662923,-8.744038 -6.538671,-15.62521 -9.798152,-14.835654 z"
       inkscape:connector-curvature="0" />
    <path
       id="path5878"
       style="opacity:0.26966289;fill:#000000;fill-opacity:1;fill-rule:evenodd;stroke:#000000;stroke-width:0.1449232;stroke-linecap:butt;stroke-linejoin:miter;stroke-miterlimit:4;stroke-opacity:1;stroke-dasharray:none"
       d="m 38.6766,-76.051403 c 0.619889,0.410751 4.782929,5.676562 5.274745,5.308007 0.05946,-0.58148 -0.426071,-0.81038 -0.76761,-0.876775 0.457313,-0.581195 0.543523,-1.188936 -0.250079,-1.241149 -0.87988,-0.155364 -1.840435,-0.26436 -0.895991,-1.210826 0.436055,-0.530475 -0.02932,-1.472529 -0.297074,-1.951708 -0.703442,-0.379936 -1.233526,-1.067397 -1.521857,-1.534712"
       inkscape:connector-curvature="0" />
    <path
       id="path5003"
       style="opacity:0.294045;fill:#000000;fill-opacity:1;fill-rule:evenodd;stroke:#000000;stroke-width:0.10499251px;stroke-linecap:butt;stroke-linejoin:miter;stroke-opacity:1"
       d="m 95.181207,-64.712193 c -1.300781,-0.461325 -2.933021,-0.994152 -4.083176,-0.923026 -0.789939,-0.6673 -1.396269,0.154998 -2.080703,0.373857 -0.114864,-1.284802 -2.009453,0.543324 -2.844016,0.55383 -0.59259,0.340125 -0.184141,-1.012615 -1.24532,-0.498071 -1.319339,0.124643 -2.135442,0.21529 -3.114156,0.639021 -0.23509,1.398812 -2.347834,2.186801 -2.664057,0.653651 -1.151927,0.501269 -3.29398,1.473598 -3.307856,-0.112012 -1.844238,1.430439 -1.902898,2.723044 -3.703348,3.413412 0.159315,-1.2381 -3.905296,-1.904242 -4.459354,-0.604843 -1.115453,0.449189 0.232033,-1.627185 -1.379917,-1.056571 -1.815662,-0.527882 -0.758873,3.130895 -4.460958,1.635041 -2.0613,-0.06631 -0.91977,2.918728 -2.280121,4.169182 -0.36243,1.314934 -1.93489,-0.458086 -2.571337,-0.359635 0.148027,2.082052 0.594887,1.376029 0.125559,2.792566 -0.28004,1.774595 -0.654872,2.663186 1.297384,3.032741 0.632164,-0.856036 -0.03178,-0.493866 0.10962,1.085399 1.127328,-0.328158 2.609221,-2.206595 2.457116,-0.276076 0.76498,-1.164973 3.186707,-1.772153 3.15626,-3.026935 1.22582,0.128676 2.601542,1.497734 3.636308,-0.166366 1.038839,-1.229199 2.532077,-1.799292 2.547757,-0.849913 1.262818,1.179499 1.389115,0.940471 2.702033,0.640299 -0.33818,-1.520816 3.072362,-0.104496 1.271361,-1.618585 0.715323,-0.716346 2.651316,-1.134964 3.770105,-0.886029 0.989734,1.440954 4.005403,1.560191 4.474617,-0.304985 0.09846,-1.467158 2.388543,-1.968959 3.244821,-0.954603 1.489049,-1.305557 3.837838,0.591538 5.119179,-0.409232 -1.151756,-1.494856 1.627788,-2.471618 2.146871,-1.325526 1.019798,-0.547569 1.968835,-2.51783 3.084409,-1.107283 1.283085,-0.418141 2.84984,-0.999527 3.935252,-1.435304 0.81467,1.343013 2.92362,-0.0386 2.00942,-1.664073 -0.49488,-1.161028 1.62523,0.571627 1.04804,-0.901435 -0.65654,-1.584575 -1.57859,-3.786793 -2.70827,-3.713994 -1.538406,-0.384383 -2.450593,0.65376 -2.514448,2.12288 -0.01945,-1.072074 -1.836899,-0.02706 -2.790227,0.361702 l -0.522649,0.124342 -0.624425,-0.440436"
       inkscape:connector-curvature="0" />
    <path
       id="path1307"
       style="fill:#ffffff;fill-opacity:1;fill-rule:evenodd;stroke:#000000;stroke-width:0.10499251px;stroke-linecap:butt;stroke-linejoin:miter;stroke-opacity:1"
       d="m 96.041256,-64.320397 c -1.300781,-0.461325 -2.506202,-0.52618 -3.656356,-0.455053 -0.789938,-0.667301 -1.72738,-0.448461 -2.411814,-0.229599 -0.114862,-1.284805 -1.678344,1.146779 -2.512905,1.157284 -0.592593,0.340127 -0.18414,-1.012611 -1.245321,-0.49807 -1.319339,0.124643 -2.848852,-0.693444 -3.827566,-0.269713 -0.23509,1.398812 -2.347834,2.186801 -2.664055,0.653651 -1.151928,0.501271 -2.580573,2.382333 -2.594447,0.796723 -2.161999,-0.09477 -3.088195,2.030849 -4.888647,2.721217 0.159317,-1.238098 -2.719996,-1.212048 -3.274056,0.08735 -1.115452,0.449189 -0.296627,-2.346009 -1.908576,-1.775395 -1.815661,-0.527883 -1.766091,3.089491 -3.932299,2.353864 -2.061298,-0.06631 -1.77341,1.982782 -3.133763,3.233234 -0.362428,1.314935 -1.081246,0.477864 -1.717695,0.576314 1.047284,1.486273 -3.210847,1.17669 -1.946747,3.468818 -0.28004,1.774595 0.148127,3.050106 2.100381,3.419658 0.632164,-0.856033 1.237532,-1.557034 1.37893,0.02223 1.127327,-0.328156 2.609222,-2.206592 2.457115,-0.276074 0.764982,-1.164972 3.186707,-1.772153 3.15626,-3.026934 1.22582,0.128675 2.601541,1.497732 3.636308,-0.166368 1.038838,-1.229198 1.210401,-0.226249 1.22608,0.723128 1.262817,1.179501 2.710794,-0.63257 4.02371,-0.932741 -0.33818,-1.520814 3.072362,-0.104495 1.271362,-1.618587 0.715322,-0.716344 2.651316,-1.134963 3.770106,-0.886028 0.981651,0.931187 4.005401,1.560192 4.474617,-0.304985 0.09846,-1.467158 2.388541,-1.968958 3.24482,-0.954603 1.489048,-1.305556 3.837837,0.591539 5.119178,-0.409231 -1.151756,-1.494857 1.62779,-2.471618 2.146871,-1.325525 1.019798,-0.547569 1.968835,-2.517831 3.084411,-1.107284 1.283081,-0.418141 2.849842,-0.999528 3.935252,-1.435305 0.81467,1.343012 2.92362,-0.0386 2.00942,-1.664072 -0.49488,-1.161027 1.62522,0.571627 1.04804,-0.901434 0.0129,-1.685752 -0.62202,-4.294422 -2.70827,-3.713995 -1.53841,-0.384382 -2.450593,0.653758 -2.51445,2.122878 -0.01945,-1.072072 -2.44847,-0.68494 -3.401796,-0.296181 l -0.312302,0.165163 -0.223203,0.176627"
       inkscape:connector-curvature="0" />
    <path
       id="path3126"
       style="fill:none;stroke:#000000;stroke-width:0.14550522px;stroke-linecap:butt;stroke-linejoin:miter;stroke-opacity:1"
       d="m 58.535384,-66.230637 c 0.548178,-7.130845 4.152288,-10.378373 3.517855,-16.081724 -0.374995,-3.371076 -3.410622,-0.81573 -2.421208,2.346556"
       inkscape:connector-curvature="0" />
    <path
       id="path3249"
       style="opacity:0.11235956;fill:#000000;fill-opacity:1;fill-rule:evenodd;stroke:none"
       d="m 59.984023,-56.501636 c -0.362428,1.314934 -1.081246,0.477862 -1.717695,0.576312 1.047284,1.486274 -3.210847,1.176692 -1.946749,3.46882 -0.280038,1.774595 0.148128,3.050104 2.100385,3.419656 0.632161,-0.856033 1.23753,-1.557034 1.378928,0.02223 1.127327,-0.328157 2.609222,-2.206594 2.457117,-0.276075 0.76498,-1.164971 3.186705,-1.772154 3.156258,-3.026933 1.22582,0.128673 2.5428,1.28305 3.577566,-0.381049 1.038839,-1.229199 1.269142,-0.01157 1.284822,0.937807 1.262817,1.179503 2.710794,-0.632568 4.023712,-0.932739 -0.338182,-1.520816 1.547838,-0.269756 1.271359,-1.618587 -0.181069,-0.883363 5.873478,-0.621836 5.002667,-1.48569 -2.602154,-2.581363 -6.667118,1.307918 -7.25523,1.059672 -0.588112,-0.248243 -1.237937,-0.09769 -0.416333,-0.474706 0.821606,-0.377019 -1.177051,0.243091 -2.841591,-0.34816 -1.664541,-0.591251 -2.882958,0.15623 -2.994145,1.630997 -1.253737,-0.779759 -1.343567,0.10594 -3.296816,0.649068 1.244605,-1.819536 -2.199544,-0.483364 -2.199544,-0.483364 0,0 0.600056,-1.995009 -0.47822,-1.731696 0.579699,-1.041181 -0.0637,-1.361942 -0.0637,-1.361942 0,0 0.31756,-0.894075 -1.042791,0.356379 z"
       inkscape:connector-curvature="0" />
    <path
       id="path2251"
       style="fill:#ffffff;fill-opacity:1;fill-rule:evenodd;stroke:#000000;stroke-width:0.14203256;stroke-linecap:butt;stroke-linejoin:miter;stroke-miterlimit:4;stroke-opacity:1;stroke-dasharray:none"
       d="m 39.553235,-77.515597 c -0.227237,-0.404707 -0.935273,-0.516141 -1.026383,-0.859347 0.158249,-0.39862 -0.464207,-0.109486 -0.586859,-0.328616 -0.732237,0.599413 -1.743019,0.858877 -2.285627,1.683322 0.288531,-0.06328 0.287841,-0.485064 -0.02742,-0.173901 -0.593738,0.294968 -1.167568,0.813108 -0.944307,1.552442 0.05408,0.379389 -0.423435,0.705854 0.159483,0.79571 -0.07601,0.607397 -0.987197,0.581822 -0.98774,1.117909 0.20169,0.584731 0.112968,1.194102 -0.366731,1.604241 -0.474493,0.443725 -0.27908,1.09686 -0.261786,1.635893 -0.238638,0.360546 -0.372961,0.695798 -0.05843,1.039231 0.06659,0.619418 0.580802,1.02955 0.584633,1.674028 0.216479,0.337786 0.650581,0.316884 0.872312,0.698599 0.647747,0.05506 0.695274,0.959534 1.312298,1.084985 0.530034,0.172876 1.157177,0.053 1.634769,0.179773 0.391694,0.317551 0.841301,0.53889 1.334413,0.628063 0.619889,0.39453 0.830575,-0.587398 1.205725,-0.903578 0.01945,-0.494381 0.374634,-0.532851 0.612494,-0.116562 0.541349,0.367012 1.102253,-0.26502 1.490355,-0.599454 0.379432,-0.413571 0.805109,-0.771611 1.22761,-1.134225 0.599817,-0.67709 0.812777,-1.646168 0.779216,-2.537415 0.05946,-0.558515 -0.459846,-0.589416 -0.801384,-0.653191 0.154425,-0.468261 0.543522,-1.141981 -0.25008,-1.192129 -0.455103,-0.118866 -1.486885,-0.627336 -0.89599,-1.163005 0.436054,-0.509527 -0.164056,-1.195422 -0.431811,-1.655679 -0.463702,-0.369056 -0.733118,-0.883153 -1.02145,-1.332012 -0.558226,-0.08895 -1.08136,-0.428183 -1.223666,-1.020394 -0.149023,-0.470305 -0.04127,-0.122031 0.0058,0.106919"
       inkscape:connector-curvature="0" />
    <path
       id="path4128"
       style="opacity:0.0955056;fill:#000000;fill-opacity:1;fill-rule:evenodd;stroke:none"
       d="m 34.920098,-71.3006 c -0.279542,-0.343629 0.824228,-0.181758 0.733119,-0.524964 0.158248,-0.398617 -0.03112,-0.415214 -0.153773,-0.634346 -0.732236,0.599414 -0.559791,-0.820644 -1.102398,0.0038 0.288531,-0.06328 0.241086,-1.105667 -0.07417,-0.794504 -0.593738,0.294967 -0.467946,-1.013552 -0.468489,-0.477464 0.20169,0.58473 0.112968,1.194102 -0.366731,1.60424 -0.474493,0.443725 -0.27908,1.09686 -0.261786,1.635893 -0.238638,0.360546 -0.372961,0.695799 -0.05843,1.039232 0.06659,0.619418 0.580802,1.029549 0.584633,1.674027 0.216479,0.337786 0.650581,0.316884 0.872312,0.698599 0.647747,0.05506 0.695274,0.959534 1.312298,1.084986 0.530034,0.172875 1.157177,0.053 1.634769,0.179773 0.391694,0.31755 0.841301,0.538889 1.334413,0.628062 0.619889,0.394531 0.830575,-0.587398 1.205725,-0.903578 0.01945,-0.494381 0.374634,-0.532851 0.612494,-0.116562 0.541349,0.367012 1.102253,-0.26502 1.490355,-0.599454 0.379432,-0.413571 -1.456974,0.06273 -1.034473,-0.299888 0.599817,-0.677091 -1.35337,0.945097 -1.386932,0.05385 0.05946,-0.558513 -2.159528,0.710608 -1.689601,-0.27127 0.154425,-0.468261 0.268127,-0.130563 -0.525474,-0.180712 -0.455103,-0.118867 -1.711426,-0.959032 -1.120532,-1.4947 0.436055,-0.509527 -0.234287,0.07967 -0.502042,-0.380584 -0.463703,-0.369057 -0.167528,-0.165846 -0.45586,-0.614701 -0.558226,-0.08895 -0.312796,-0.31713 -0.455102,-0.909339 -0.241497,0.694809 -0.171345,-0.629348 -0.124321,-0.400398 z"
       inkscape:connector-curvature="0" />
    <path
       id="path5880"
       style="fill:#000000;fill-opacity:0.22346371;fill-rule:evenodd;stroke:none"
       d="m 58.882877,-69.464908 c 0,0 2.294679,-5.85021 2.846041,-8.184219 0.515862,-2.183706 0.449113,-5.51704 -0.3235,-6.13399 -0.772614,-0.616949 -1.788856,0.450099 -1.895965,1.713609 -0.107107,1.263508 -0.196817,1.581913 0.321824,3.992029 0.235113,1.092564 0.117688,3.682278 -0.201971,4.90454 -0.31966,1.222262 -1.017176,4.005752 -0.746429,3.708031 z"
       inkscape:connector-curvature="0" />
  </g>
</svg>
