<?xml version="1.0" standalone="no"?>
<!DOCTYPE svg PUBLIC "-//W3C//DTD SVG 1.1//EN" "http://www.w3.org/Graphics/SVG/1.1/DTD/svg11.dtd">
<svg width="267px" height="80px" version="1.1" xmlns="http://www.w3.org/2000/svg" xmlns:xlink="http://www.w3.org/1999/xlink" xml:space="preserve" style="fill-rule:evenodd;clip-rule:evenodd;stroke-miterlimit:1.41421;">
    <g id="svg2">
        <g id="g3840">
            <g id="g3046">
                <g id="g13">
                    <g id="use15">
                        <path d="M88.1686,55.5086C88.1686,57.9722 87.3228,59.8334 85.6312,61.0922C83.9396,62.3512 81.5113,62.9806 78.3464,62.9806C76.6275,62.9806 75.1337,62.8866 73.865,62.6964C72.5963,62.5204 71.3003,62.1888 69.977,61.7014L69.977,55.3462C71.2185,55.8876 72.5758,56.3344 74.0492,56.6862C75.5361,57.0382 76.8594,57.2142 78.019,57.2142C79.7515,57.2142 80.6178,56.8216 80.6178,56.0364C80.6178,55.6304 80.3722,55.2716 79.8811,54.9604C79.4036,54.6356 77.9985,54.0128 75.6657,53.0924C73.5376,52.2262 72.0506,51.2446 71.2048,50.1482C70.359,49.0382 69.9361,47.6374 69.9361,45.9452C69.9361,43.8064 70.7683,42.1414 72.4326,40.9502C74.0969,39.759 76.4501,39.1636 79.4923,39.1636C81.0202,39.1636 82.4526,39.3316 83.7895,39.671C85.14,39.996 86.5383,40.4766 87.9844,41.1126L85.8153,46.2294C84.7513,45.7558 83.6258,45.3564 82.439,45.0314C81.2521,44.6932 80.2835,44.5238 79.5332,44.5238C78.2236,44.5238 77.5688,44.842 77.5688,45.4782C77.5688,45.8708 77.7939,46.2092 78.2441,46.4934C78.7079,46.764 80.0311,47.3258 82.2139,48.1786C83.8372,48.842 85.0446,49.4918 85.8358,50.128C86.6407,50.764 87.2273,51.5154 87.5956,52.3816C87.9776,53.2344 88.1686,54.2768 88.1686,55.5086" style="fill:white;fill-rule:nonzero;"/>
                    </g>
                    <path id="path17" d="M101.874,62.9806C98.0814,62.9806 95.2029,61.9654 93.2385,59.935C91.2877,57.9046 90.3123,54.9874 90.3123,51.1838C90.3123,47.3666 91.3696,44.4088 93.4841,42.3108C95.5986,40.2126 98.6066,39.1636 102.508,39.1636C105.196,39.1636 107.726,39.7456 110.1,40.9096L107.747,46.7776C106.778,46.358 105.885,46.0264 105.066,45.7828C104.248,45.5254 103.395,45.397 102.508,45.397C101.212,45.397 100.21,45.8978 99.5002,46.8996C98.7908,47.9012 98.4361,49.3158 98.4361,51.143C98.4361,54.825 99.8071,56.666 102.549,56.666C104.896,56.666 107.146,55.9892 109.302,54.6356L109.302,60.9502C107.242,62.3038 104.766,62.9806 101.874,62.9806" style="fill:white;fill-rule:nonzero;"/>
                    <g id="use19">
                        <path d="M126.606,39.1636C127.302,39.1636 127.964,39.2176 128.591,39.3256L129.041,39.4076L128.325,46.9002C127.67,46.7382 126.763,46.6564 125.604,46.6564C123.858,46.6564 122.589,47.0556 121.798,47.8544C121.006,48.6396 120.611,49.7766 120.611,51.2654L120.611,62.5752L112.61,62.5752L112.61,39.5702L118.564,39.5702L119.813,43.2454L120.202,43.2454C120.87,42.027 121.798,41.0458 122.984,40.3012C124.185,39.5432 125.392,39.1642 126.606,39.1642" style="fill:white;fill-rule:nonzero;"/>
                    </g>
                    <path id="path21" d="M153.266,51.0214C153.266,54.7844 152.243,57.7218 150.196,59.8334C148.164,61.9316 145.312,62.9806 141.643,62.9806C138.123,62.9806 135.32,61.9046 133.232,59.7522C131.159,57.6 130.122,54.6896 130.122,51.0214C130.122,47.2718 131.138,44.3614 133.171,42.2904C135.217,40.2058 138.082,39.1636 141.766,39.1636C144.044,39.1636 146.056,39.644 147.802,40.6052C149.548,41.5662 150.892,42.947 151.833,44.7472C152.788,46.534 153.266,48.6254 153.266,51.0214M138.246,51.0214C138.246,52.9976 138.512,54.5068 139.044,55.5492C139.576,56.578 140.47,57.0922 141.725,57.0922C142.966,57.0922 143.839,56.578 144.344,55.5492C144.862,54.5068 145.121,52.9976 145.121,51.0214C145.121,49.0584 144.862,47.5764 144.344,46.5746C143.825,45.573 142.939,45.0722 141.684,45.0722C140.456,45.0722 139.576,45.573 139.044,46.5746C138.512,47.5628 138.246,49.045 138.246,51.0214" style="fill:white;fill-rule:nonzero;"/>
                    <g id="use23">
                        <path d="M164.61,62.5746L156.61,62.5746L156.61,30.9806L164.61,30.9806" style="fill:white;fill-rule:nonzero;"/>
                    </g>
                    <path id="path25" d="M176.61,62.5746L168.61,62.5746L168.61,30.9806L176.61,30.9806" style="fill:white;fill-rule:nonzero;"/>
                    <g id="use27">
                        <path d="M189.883,40.0772C192.954,40.0772 195.264,41.0518 196.813,43.001C198.375,44.9366 199.157,47.7726 199.157,51.5086C199.157,55.1768 198.335,58.006 196.692,59.9958C195.062,61.9858 192.766,62.9806 189.803,62.9806C188.24,62.9806 186.833,62.6558 185.58,62.006C184.327,61.3562 183.338,60.4358 182.61,59.2446L182.428,59.2446L181.863,62.5746L180.61,62.5746L180.61,30.9806L182.61,30.9806L182.61,38.9198C182.61,40.111 182.583,41.2074 182.529,42.2092L182.469,43.935L182.61,43.935C183.445,42.6086 184.449,41.634 185.621,41.0112C186.806,40.3886 188.227,40.0772 189.883,40.0772M189.843,41.9046C187.257,41.9046 185.405,42.649 184.287,44.1382C183.169,45.6272 182.61,48.0838 182.61,51.5086L182.61,51.8538C182.61,55.1838 183.189,57.573 184.348,59.0214C185.52,60.4696 187.338,61.1938 189.803,61.1938C192.2,61.1938 194.005,60.3546 195.217,58.676C196.429,56.984 197.035,54.5814 197.035,51.468C197.035,45.0924 194.638,41.9046 189.843,41.9046" style="fill:white;fill-rule:nonzero;"/>
                    </g>
                    <path id="path29" d="M217.135,62.5746L216.63,59.0822L216.469,59.0822C215.364,60.5034 214.226,61.512 213.054,62.1076C211.896,62.6896 210.522,62.9806 208.933,62.9806C206.778,62.9806 205.101,62.4256 203.902,61.3158C202.703,60.2056 202.104,58.6694 202.104,56.7064C202.104,54.5542 202.993,52.8824 204.771,51.6914C206.562,50.5002 209.148,49.8708 212.529,49.803L216.711,49.681L216.711,48.219C216.711,46.121 216.287,44.5372 215.438,43.4678C214.59,42.3984 213.223,41.8636 211.337,41.8636C209.303,41.8636 207.195,42.4322 205.013,43.5692L204.266,41.8232C206.677,40.686 209.061,40.1176 211.418,40.1176C213.829,40.1176 215.627,40.7468 216.812,42.006C218.011,43.2648 218.61,45.2274 218.61,47.894L218.61,62.5742M209.054,61.153C211.398,61.153 213.243,60.4828 214.59,59.1428C215.95,57.7892 216.63,55.9144 216.63,53.5184L216.63,51.3458L212.792,51.5078C209.707,51.6578 207.505,52.144 206.185,52.9696C204.879,53.782 204.225,55.0542 204.225,56.787C204.225,58.1678 204.643,59.2438 205.478,60.0154C206.327,60.7734 207.519,61.1524 209.054,61.1524" style="fill:white;fill-rule:nonzero;"/>
                    <g id="use31">
                        <path d="M231.751,62.9806C228.613,62.9806 226.155,61.9858 224.377,59.9958C222.599,58.006 221.71,55.231 221.71,51.671C221.71,48.0164 222.633,45.1736 224.478,43.143C226.323,41.0992 228.849,40.0772 232.054,40.0772C233.953,40.0772 235.772,40.4088 237.509,41.0722L236.964,42.8588C235.064,42.2228 233.415,41.9046 232.014,41.9046C229.32,41.9046 227.279,42.7438 225.892,44.4224C224.505,46.0872 223.811,48.49 223.811,51.6304C223.811,54.6086 224.505,56.9434 225.892,58.6356C227.279,60.314 229.219,61.1532 231.711,61.1532C233.704,61.1532 235.556,60.7944 237.267,60.0772L237.267,61.945C235.866,62.6354 234.027,62.9806 231.751,62.9806" style="fill:white;fill-rule:nonzero;"/>
                    </g>
                    <path id="path33" d="M242.57,52.8892L253.783,40.5036L256.207,40.5036L247.56,49.9248L256.955,62.5746L254.55,62.5746L246.206,51.4274L242.61,54.7168L242.61,62.5746L240.61,62.5746L240.61,30.9806L242.61,30.9806L242.61,46.8182L242.469,52.8892" style="fill:white;fill-rule:nonzero;"/>
                </g>
                <g id="use35">
                    <path d="M40.6102,18.9806L20.6101,38.9806L31.9396,38.9806L40.61,30.2478L49.2806,38.9806L60.6102,38.9806Z" style="fill:rgb(51,204,170);fill-rule:nonzero;"/>
                </g>
                <rect id="path37" x="20.6101" y="42.9802" width="40" height="8" style="fill:white;fill-rule:nonzero;"/>
                <g id="use39">
                    <path d="M40.6102,74.9806L20.6101,54.9806L31.9396,54.9806L40.61,63.7134L49.2806,54.9806L60.6102,54.9806Z" style="fill:white;fill-rule:nonzero;"/>
                </g>
            </g>
            <g>
                <path id="path1309" d="M31.449,1.03501C27.5666,2.07426 23.587,4.14099 20.7875,6.1421C17.988,8.1432 10.6753,13.1855 9.00573,14.7833C7.38702,16.3324 5.47498,16.8728 4.6383,18.7818C4.31563,19.5179 6.82633,21.7387 7.31831,21.9692C8.59511,22.5676 10.6763,21.5066 11.6259,21.4433C14.708,21.2376 17.8663,20.8387 20.9879,22.8935C20.4103,23.4607 21.3275,22.8501 20.1468,27.8242C19.7304,29.5782 18.8206,34.1289 19.9386,34.9971C21.0493,35.8598 21.7277,32.497 22.8313,33.0118C22.8307,33.0126 22.831,33.0147 22.8306,33.0154L22.8292,33.0225C22.8296,33.0229 22.8321,33.0229 22.8326,33.0231C22.8359,33.024 22.8433,33.0237 22.8504,33.0229C22.8524,33.0238 22.8551,33.0231 22.8573,33.0242C22.8651,33.0278 22.8722,33.0321 22.8801,33.0358L22.8866,33.0187C23.4091,32.8874 27.4823,31.1421 31.2007,31.8439C33.2968,32.2395 36.6401,31.1304 38.5634,30.5518C41.6135,29.6343 45.8954,28.8052 48.6117,28.7578C50.6127,28.723 52.4232,27.6212 54.3483,27.4927C55.484,27.417 54.4309,23.8558 54.4075,23.4796C54.2947,21.6716 51.9806,18.8933 50.7889,16.4244C49.5971,13.9555 47.5998,10.8214 45.4,8.36386C43.2004,5.90616 40.2327,2.72389 38.1431,1.74468C36.0536,0.765469 35.6627,-0.0929477 31.449,1.03496Z" style="fill:rgb(255,50,50);"/>
                <path id="path5882" d="M22.1718,9.71025C19.6527,10.3037 17.4953,18.1343 14.3906,19.4956C12.36,20.3859 6.82633,21.7387 7.31831,21.9692C8.59511,22.5676 10.6763,21.5066 11.6259,21.4433C14.708,21.2376 17.8663,20.8387 20.9879,22.8935C20.5998,23.2746 20.8865,23.124 20.7583,24.4927C20.6958,25.1612 20.5342,26.1921 20.1468,27.8242C19.7304,29.5782 18.8206,34.1289 19.9386,34.9971C21.0493,35.8598 21.7277,32.497 22.8313,33.0118C22.8307,33.0126 22.831,33.0147 22.8306,33.0154L22.8292,33.0225C22.8296,33.0229 22.8321,33.0229 22.8326,33.0231C22.8359,33.024 22.8433,33.0237 22.8504,33.0229C22.8524,33.0238 22.8551,33.0231 22.8573,33.0242C22.8651,33.0278 22.8722,33.0321 22.8801,33.0358L22.8866,33.0187C23.4091,32.8874 27.4823,31.1421 31.2007,31.8439C33.2968,32.2395 36.6401,31.1304 38.5634,30.5518C41.6135,29.6343 45.8954,28.8052 48.6117,28.7578C50.6127,28.723 52.4232,27.6212 54.3483,27.4927C55.484,27.417 47.2902,28.1002 50.5558,25.8029C52.0044,24.7837 36.0509,27.927 29.9262,21.1298C23.8615,14.3992 24.7512,9.10255 22.1716,9.7103Z" style="fill:rgb(14,0,0);fill-opacity:0.101124;"/>
                <path id="path5878" d="M4.89695,17.9458C5.38756,18.262 8.68233,22.3153 9.07157,22.0316C9.11863,21.584 8.73436,21.4078 8.46405,21.3567C8.82599,20.9093 8.89422,20.4415 8.26613,20.4013C7.56977,20.2818 6.80955,20.1979 7.55702,19.4693C7.90212,19.061 7.53381,18.3359 7.3219,17.967C6.76517,17.6746 6.34565,17.1454 6.11745,16.7857" style="fill:black;fill-opacity:0.269663;stroke-width:0.11px;stroke:black;stroke-opacity:0.269663;"/>
                <path id="path5003" d="M49.6166,26.674C48.5871,26.3189 47.2953,25.9088 46.3851,25.9635C45.7599,25.4499 45.28,26.0828 44.7383,26.2513C44.6474,25.2623 43.148,26.6695 42.4875,26.6776C42.0185,26.9394 42.3417,25.8981 41.5019,26.2942C40.4577,26.3901 39.8118,26.4599 39.0372,26.7861C38.8512,27.8628 37.1791,28.4693 36.9288,27.2892C36.0171,27.6751 34.3218,28.4235 34.3109,27.203C32.8513,28.304 32.8048,29.299 31.3799,29.8304C31.506,28.8774 28.2891,28.3646 27.8506,29.3648C26.9678,29.7106 28.0343,28.1123 26.7585,28.5516C25.3215,28.1452 26.1579,30.9615 23.2279,29.8101C21.5966,29.7591 22.5,32.0567 21.4234,33.0193C21.1365,34.0314 19.892,32.6667 19.3883,32.7424C19.5055,34.3451 19.8592,33.8016 19.4877,34.892C19.2661,36.2579 18.9694,36.9419 20.5145,37.2264C21.0148,36.5674 20.4894,36.8462 20.6013,38.0618C21.4935,37.8092 22.6663,36.3633 22.5459,37.8493C23.1513,36.9526 25.068,36.4852 25.0439,35.5194C26.014,35.6184 27.1028,36.6722 27.9218,35.3913C28.7439,34.4452 29.9257,34.0064 29.9382,34.7371C30.9376,35.645 31.0375,35.461 32.0766,35.23C31.809,34.0594 34.5082,35.1496 33.0828,33.9841C33.649,33.4327 35.1812,33.1105 36.0666,33.3021C36.8499,34.4113 39.2366,34.503 39.608,33.0674C39.6859,31.938 41.4984,31.5518 42.176,32.3326C43.3545,31.3276 45.2134,32.7879 46.2275,32.0176C45.316,30.8669 47.5158,30.1151 47.9266,30.9973C48.7337,30.5758 49.4848,29.0592 50.3678,30.145C51.3832,29.8231 52.6232,29.3756 53.4822,29.0402C54.127,30.0739 55.7961,29.0104 55.0726,27.7593C54.6809,26.8656 56.3588,28.1993 55.902,27.0654C55.3824,25.8457 54.6527,24.1506 53.7586,24.2066C52.5411,23.9107 51.8191,24.7098 51.7686,25.8407C51.7532,25.0155 50.3148,25.8198 49.5603,26.1191L49.1467,26.2148" style="fill:black;fill-opacity:0.294045;stroke-width:0.08px;stroke:black;stroke-opacity:0.294045;"/>
                <path id="path1307" d="M50.2973,26.9756C49.2678,26.6205 48.3138,26.5706 47.4035,26.6253C46.7783,26.1117 46.0364,26.2801 45.4947,26.4486C45.4038,25.4596 44.1664,27.3313 43.5059,27.3394C43.0369,27.6012 43.3602,26.5599 42.5203,26.956C41.4762,27.0519 40.2657,26.4222 39.4911,26.7484C39.305,27.8251 37.6329,28.4316 37.3827,27.2515C36.471,27.6374 35.3403,29.0853 35.3293,27.8648C33.6182,27.7918 32.8852,29.428 31.4603,29.9594C31.5864,29.0064 29.3076,29.0264 28.8691,30.0266C27.9863,30.3724 28.6343,28.2208 27.3586,28.66C25.9216,28.2537 25.9608,31.0381 24.2464,30.4719C22.615,30.4209 22.8429,31.9981 21.7663,32.9606C21.4794,33.9728 20.9105,33.3284 20.4068,33.4042C21.2357,34.5483 17.8656,34.31 18.8661,36.0743C18.6445,37.4402 18.9833,38.4221 20.5284,38.7065C21.0287,38.0476 21.5078,37.508 21.6197,38.7236C22.5119,38.471 23.6848,37.0251 23.5644,38.5111C24.1698,37.6144 26.0864,37.147 26.0623,36.1812C27.0325,36.2802 28.1213,37.334 28.9402,36.0531C29.7624,35.107 29.8982,35.879 29.9106,36.6097C30.91,37.5176 32.056,36.1228 33.0951,35.8918C32.8275,34.7212 35.5267,35.8113 34.1013,34.6459C34.6674,34.0945 36.1996,33.7723 37.0851,33.9639C37.862,34.6807 40.2551,35.1648 40.6265,33.7291C40.7044,32.5998 42.5168,32.2136 43.1945,32.9944C44.373,31.9894 46.2319,33.4497 47.246,32.6794C46.3345,31.5287 48.5343,30.7769 48.9451,31.6591C49.7522,31.2376 50.5033,29.721 51.3862,30.8067C52.4017,30.4849 53.6417,30.0374 54.5007,29.7019C55.1455,30.7357 56.8146,29.6722 56.091,28.4211C55.6994,27.5274 57.3773,28.8611 56.9205,27.7272C56.9307,26.4296 56.4282,24.4216 54.7771,24.8684C53.5595,24.5725 52.8376,25.3716 52.7871,26.5025C52.7717,25.6772 50.8493,25.9752 50.0948,26.2745L49.8476,26.4016" style="fill:white;"/>
                <path id="path3249" d="M21.7604,32.9939C21.4735,34.0061 20.9046,33.3617 20.4009,33.4375C21.2298,34.5816 17.8598,34.3433 18.8602,36.1076C18.6386,37.4736 18.9774,38.4554 20.5225,38.7398C21.0228,38.0809 21.5019,37.5413 21.6139,38.7569C22.5061,38.5043 23.6789,37.0584 23.5585,38.5444C24.1639,37.6477 26.0806,37.1803 26.0565,36.2145C27.0266,36.3135 28.0689,37.2021 28.8879,35.9212C29.71,34.975 29.8923,35.9123 29.9047,36.643C30.9042,37.5509 32.0501,36.1561 33.0892,35.9251C32.8216,34.7545 34.3142,35.7174 34.0954,34.6792C33.9521,33.9993 38.7439,34.2006 38.0547,33.5356C35.9953,31.5487 32.7781,34.5424 32.3127,34.3513C31.8472,34.1602 31.3329,34.2761 31.9832,33.9859C32.6334,33.6957 31.0516,34.173 29.7342,33.7179C28.4169,33.2628 27.4526,33.8382 27.3646,34.9733C26.3723,34.3731 26.3012,35.0549 24.7554,35.4729C25.7404,34.0724 23.0146,35.1009 23.0146,35.1009C23.0146,35.1009 23.4895,33.5653 22.6361,33.7679C23.0949,32.9665 22.5857,32.7196 22.5857,32.7196Z" style="fill:black;fill-opacity:0.11236;"/>
                <path id="path2251" d="M5.59075,16.8188C5.41091,16.5073 4.85055,16.4215 4.77844,16.1573C4.90368,15.8505 4.41105,16.0731 4.31398,15.9044C3.73446,16.3658 2.93449,16.5655 2.50506,17.2001C2.73341,17.1514 2.73286,16.8267 2.48335,17.0662C2.01345,17.2933 1.5593,17.6921 1.736,18.2612C1.7788,18.5532 1.40088,18.8045 1.86222,18.8737C1.80206,19.3412 1.08092,19.3215 1.08049,19.7342C1.24011,20.1843 1.16989,20.6533 0.790244,20.969C0.414714,21.3106 0.56937,21.8133 0.583057,22.2282C0.394191,22.5057 0.287883,22.7638 0.536814,23.0281C0.589516,23.5049 0.99648,23.8206 0.999512,24.3167C1.17084,24.5767 1.5144,24.5606 1.68989,24.8544C2.20254,24.8968 2.24015,25.593 2.72849,25.6896C3.14797,25.8226 3.64432,25.7304 4.0223,25.828C4.3323,26.0724 4.68813,26.2428 5.0784,26.3114C5.569,26.6151 5.73574,25.8593 6.03265,25.6159C6.04804,25.2353 6.32915,25.2057 6.5174,25.5262C6.94584,25.8087 7.38976,25.3222 7.69692,25.0647C7.99721,24.7464 8.33411,24.4708 8.66849,24.1917C9.1432,23.6705 9.31175,22.9246 9.28519,22.2386C9.33224,21.8087 8.92125,21.7849 8.65094,21.7358C8.77316,21.3753 9.08111,20.8568 8.45302,20.8182C8.09284,20.7267 7.27625,20.3353 7.74391,19.923C8.08901,19.5308 7.61407,19.0028 7.40216,18.6485C7.03517,18.3645 6.82194,17.9687 6.59375,17.6232C6.15195,17.5548 5.73792,17.2936 5.62529,16.8378C5.50735,16.4758 5.59263,16.7439 5.62988,16.9201" style="fill:white;"/>
                <path id="path4128" d="M1.92393,21.6027C1.70269,21.3382 2.57625,21.4628 2.50415,21.1986C2.62939,20.8918 2.47952,20.879 2.38245,20.7103C1.80293,21.1717 1.93941,20.0786 1.50997,20.7133C1.73832,20.6645 1.70077,19.8622 1.45127,20.1017C0.981365,20.3287 1.08092,19.3215 1.08049,19.7342C1.24012,20.1843 1.1699,20.6533 0.790248,20.969C0.414718,21.3106 0.569374,21.8133 0.583061,22.2282C0.394195,22.5057 0.287887,22.7638 0.536818,23.0281C0.58952,23.5049 0.996484,23.8206 0.999516,24.3167C1.17085,24.5767 1.51441,24.5606 1.68989,24.8544C2.20254,24.8968 2.24016,25.593 2.72849,25.6896C3.14798,25.8226 3.64432,25.7304 4.0223,25.828C4.3323,26.0724 4.68814,26.2428 5.0784,26.3114C5.569,26.6151 5.73575,25.8593 6.03265,25.6159C6.04805,25.2353 6.32915,25.2057 6.5174,25.5262C6.94584,25.8087 7.38976,25.3222 7.69692,25.0647C7.99722,24.7464 6.54382,25.113 6.8782,24.8339C7.35292,24.3127 5.8071,25.5614 5.78054,24.8754C5.8276,24.4455 4.07141,25.4223 4.44333,24.6666C4.56555,24.3061 4.65554,24.5661 4.02745,24.5275C3.66727,24.436 2.67297,23.7893 3.14063,23.3769C3.48573,22.9847 2.9552,23.4383 2.74329,23.084C2.3763,22.7999 2.6107,22.9563 2.38251,22.6108C1.94071,22.5424 2.13495,22.3667 2.02233,21.9109C1.8312,22.4457 1.88672,21.4265 1.92393,21.6027Z" style="fill:black;fill-opacity:0.0955056;"/>
                <path id="path5880" d="M20.8889,23.0157C20.8889,23.0157 22.705,18.5126 23.1413,16.716C23.5496,15.0351 23.4968,12.4694 22.8853,11.9945C22.2738,11.5196 21.4696,12.3409 21.3848,13.3135C21.3,14.2861 21.229,14.5312 21.6395,16.3863C21.8256,17.2273 21.7326,19.2207 21.4796,20.1615C21.2266,21.1023 20.6746,23.2448 20.8889,23.0157Z" style="fill:black;fill-opacity:0.219608;"/>
            </g>
        </g>
    </g>
</svg>
