<?xml version="1.0" standalone="no"?>
<!DOCTYPE svg PUBLIC "-//W3C//DTD SVG 1.1//EN" "http://www.w3.org/Graphics/SVG/1.1/DTD/svg11.dtd">
<svg width="116px" height="35px" version="1.1" xmlns="http://www.w3.org/2000/svg" xmlns:xlink="http://www.w3.org/1999/xlink" xml:space="preserve" style="fill-rule:evenodd;clip-rule:evenodd;stroke-miterlimit:1.41421;">
    <g id="svg2">
        <g id="g3840">
            <g id="g3046">
                <g id="g13">
                    <g id="use15">
                        <path d="M38.9163,25.9207C38.9163,27.0712 38.5429,27.9404 37.7962,28.5283C37.0495,29.1163 35.9776,29.4102 34.5805,29.4102C33.8218,29.4102 33.1624,29.3663 32.6024,29.2775C32.0423,29.1953 31.4703,29.0405 30.8861,28.8128L30.8861,25.8448C31.4341,26.0977 32.0333,26.3063 32.6837,26.4706C33.34,26.635 33.9242,26.7172 34.436,26.7172C35.2008,26.7172 35.5832,26.5339 35.5832,26.1672C35.5832,25.9776 35.4748,25.81 35.258,25.6646C35.0472,25.513 34.427,25.2221 33.3973,24.7923C32.4578,24.3877 31.8015,23.9293 31.4281,23.4173C31.0547,22.8989 30.8681,22.2447 30.8681,21.4544C30.8681,20.4555 31.2354,19.6779 31.9701,19.1216C32.7047,18.5653 33.7435,18.2872 35.0864,18.2872C35.7608,18.2872 36.3931,18.3657 36.9833,18.5242C37.5794,18.676 38.1967,18.9004 38.835,19.1975L37.8775,21.5871C37.4078,21.3659 36.911,21.1794 36.3871,21.0276C35.8632,20.8697 35.4356,20.7906 35.1044,20.7906C34.5263,20.7906 34.2373,20.9392 34.2373,21.2363C34.2373,21.4196 34.3367,21.5777 34.5354,21.7104C34.7401,21.8368 35.3242,22.0991 36.2877,22.4974C37.0043,22.8072 37.5373,23.1107 37.8866,23.4078C38.2418,23.7048 38.5008,24.0558 38.6634,24.4603C38.832,24.8586 38.9163,25.3454 38.9163,25.9207" style="fill:rgb(51,51,51);fill-rule:nonzero;"/>
                    </g>
                    <g id="path17">
                        <path d="M44.9661,29.4102C43.292,29.4102 42.0214,28.9361 41.1543,27.9879C40.2931,27.0396 39.8626,25.6773 39.8626,23.9009C39.8626,22.1182 40.3293,20.7368 41.2627,19.757C42.1961,18.7771 43.5239,18.2872 45.2461,18.2872C46.4324,18.2872 47.5495,18.559 48.5973,19.1027L47.5585,21.8431C47.131,21.6472 46.7365,21.4923 46.3752,21.3785C46.0139,21.2583 45.6375,21.1984 45.2461,21.1984C44.674,21.1984 44.2314,21.4322 43.9183,21.9001C43.6052,22.3679 43.4486,23.0285 43.4486,23.8818C43.4486,25.6014 44.0538,26.4612 45.2642,26.4612C46.2999,26.4612 47.2936,26.1451 48.245,25.513L48.245,28.462C47.3357,29.0942 46.2427,29.4102 44.9661,29.4102" style="fill:rgb(51,51,51);fill-rule:nonzero;"/>
                    </g>
                    <g id="use19">
                        <path d="M55.8836,18.2872C56.1907,18.2872 56.4828,18.3125 56.7598,18.3629L56.9585,18.4012L56.6424,21.9004C56.3533,21.8247 55.9529,21.7865 55.441,21.7865C54.6702,21.7865 54.1102,21.973 53.7609,22.346C53.4116,22.7127 53.237,23.2437 53.237,23.939L53.237,29.2209L49.7052,29.2209L49.7052,18.4771L52.3337,18.4771L52.8847,20.1935L53.0564,20.1935C53.3514,19.6245 53.7609,19.1663 54.2848,18.8185C54.8147,18.4645 55.3477,18.2875 55.8836,18.2875" style="fill:rgb(51,51,51);fill-rule:nonzero;"/>
                    </g>
                    <g id="path21">
                        <path d="M67.6516,23.8251C67.6516,25.5825 67.2,26.9543 66.2967,27.9404C65.3994,28.9203 64.1409,29.4102 62.521,29.4102C60.9674,29.4102 59.7299,28.9077 58.8085,27.9025C57.8932,26.8974 57.4355,25.5382 57.4355,23.8251C57.4355,22.0739 57.8842,20.7147 58.7814,19.7475C59.6847,18.774 60.9493,18.2872 62.5752,18.2872C63.5808,18.2872 64.4691,18.5116 65.2399,18.9605C66.0107,19.4093 66.6038,20.0542 67.0193,20.8949C67.4409,21.7294 67.6516,22.7061 67.6516,23.8251M61.0216,23.8251C61.0216,24.748 61.139,25.4528 61.3738,25.9396C61.6087,26.4201 62.0031,26.6602 62.5571,26.6602C63.1051,26.6602 63.4905,26.4201 63.7133,25.9396C63.9422,25.4528 64.0566,24.748 64.0566,23.8251C64.0566,22.9083 63.9422,22.2162 63.7133,21.7483C63.4845,21.2805 63.0931,21.0467 62.5391,21.0467C61.9971,21.0467 61.6087,21.2805 61.3738,21.7483C61.139,22.2098 61.0216,22.902 61.0216,23.8251" style="fill:rgb(51,51,51);fill-rule:nonzero;"/>
                    </g>
                    <g id="use23">
                        <path d="M72.6593,29.2206L69.1279,29.2206L69.1279,14.4656L72.6593,14.4656" style="fill:rgb(51,51,51);fill-rule:nonzero;"/>
                    </g>
                    <g id="path25">
                        <path d="M77.9564,29.2206L74.425,29.2206L74.425,14.4656L77.9564,14.4656" style="fill:rgb(51,51,51);fill-rule:nonzero;"/>
                    </g>
                    <g id="use27">
                        <path d="M83.8155,18.7139C85.1711,18.7139 86.1907,19.1691 86.8745,20.0794C87.5641,20.9833 87.909,22.3078 87.909,24.0526C87.909,25.7657 87.5463,27.087 86.8209,28.0163C86.1015,28.9456 85.0878,29.4102 83.7799,29.4102C83.0902,29.4102 82.4689,29.2586 81.916,28.9551C81.363,28.6516 80.926,28.2218 80.605,27.6655L80.5247,27.6655L80.275,29.2206L79.7221,29.2206L79.7221,14.4656L80.605,14.4656L80.605,18.1734C80.605,18.7297 80.5931,19.2417 80.5693,19.7096L80.5426,20.5156L80.605,20.5156C80.9736,19.8961 81.4166,19.441 81.9338,19.1501C82.457,18.8593 83.0843,18.7139 83.8155,18.7139M83.7977,19.5673C82.6562,19.5673 81.8387,19.915 81.3452,20.6105C80.8517,21.3059 80.605,22.4531 80.605,24.0526L80.605,24.2138C80.605,25.769 80.8607,26.8848 81.372,27.5612C81.8892,28.2376 82.6919,28.5758 83.7799,28.5758C84.8382,28.5758 85.6348,28.1838 86.1699,27.3999C86.705,26.6097 86.9726,25.4876 86.9726,24.0336C86.9726,21.0561 85.9143,19.5673 83.7977,19.5673" style="fill:rgb(51,51,51);fill-rule:nonzero;"/>
                    </g>
                    <g id="path29">
                        <path d="M95.8451,29.2206L95.6222,27.5896L95.5509,27.5896C95.0633,28.2533 94.5609,28.7244 94.0437,29.0025C93.5324,29.2743 92.9259,29.4102 92.2244,29.4102C91.2731,29.4102 90.5329,29.151 90.0038,28.6327C89.4746,28.1143 89.21,27.3968 89.21,26.4801C89.21,25.4749 89.6024,24.6942 90.3872,24.138C91.178,23.5816 92.3195,23.2877 93.8118,23.256L95.6579,23.1991L95.6579,22.5163C95.6579,21.5365 95.4706,20.7968 95.096,20.2974C94.7215,19.7979 94.118,19.5482 93.2856,19.5482C92.3879,19.5482 91.4574,19.8137 90.4942,20.3447L90.1643,19.5293C91.2285,18.9982 92.2809,18.7328 93.3213,18.7328C94.3855,18.7328 95.1793,19.0266 95.7025,19.6147C96.2316,20.2026 96.4962,21.1191 96.4962,22.3645L96.4962,29.2204M92.2779,28.5567C93.3124,28.5567 94.1269,28.2437 94.7215,27.6179C95.3219,26.9858 95.6222,26.1102 95.6222,24.9912L95.6222,23.9766L93.9277,24.0522C92.5662,24.1223 91.5942,24.3493 91.0115,24.7349C90.4348,25.1143 90.1464,25.7085 90.1464,26.5177C90.1464,27.1626 90.3307,27.6651 90.6994,28.0254C91.0739,28.3794 91.6001,28.5564 92.2779,28.5564" style="fill:rgb(51,51,51);fill-rule:nonzero;"/>
                    </g>
                    <g id="use31">
                        <path d="M102.297,29.4102C100.912,29.4102 99.8266,28.9456 99.0418,28.0163C98.257,27.087 97.8646,25.791 97.8646,24.1284C97.8646,22.4217 98.2718,21.094 99.0864,20.1457C99.9009,19.1912 101.016,18.7139 102.431,18.7139C103.269,18.7139 104.072,18.8688 104.839,19.1786L104.598,20.013C103.759,19.7159 103.031,19.5673 102.413,19.5673C101.224,19.5673 100.323,19.9593 99.7106,20.7432C99.0982,21.5207 98.792,22.6428 98.7921,24.1095C98.792,25.5004 99.0982,26.5907 99.7106,27.381C100.323,28.1649 101.179,28.5568 102.279,28.5568C103.159,28.5568 103.976,28.3892 104.732,28.0543L104.732,28.9266C104.113,29.249 103.302,29.4102 102.297,29.4102" style="fill:rgb(51,51,51);fill-rule:nonzero;"/>
                    </g>
                    <g id="path33">
                        <path d="M107.073,24.6974L112.022,18.913L113.092,18.913L109.275,23.3129L113.422,29.2206L112.361,29.2206L108.678,24.0147L107.09,25.5509L107.09,29.2206L106.207,29.2206L106.207,14.4656L107.09,14.4656L107.09,21.8621L107.028,24.6974" style="fill:rgb(51,51,51);fill-rule:nonzero;"/>
                    </g>
                </g>
                <g id="use35">
                    <path d="M17.9229,8.86138L9.09445,18.2018L14.0955,18.2018L17.9229,14.1234L21.7503,18.2018L26.7514,18.2018Z" style="fill:rgb(51,204,170);fill-rule:nonzero;"/>
                </g>
                <g id="path37">
                    <rect x="9.09445" y="20.0697" width="17.6569" height="3.73616" style="fill:rgb(51,51,51);fill-rule:nonzero;"/>
                </g>
                <g id="use39">
                    <path d="M17.9229,35.0145L9.09445,25.6741L14.0955,25.6741L17.9229,29.7525L21.7503,25.6741L26.7514,25.6741Z" style="fill:rgb(51,51,51);fill-rule:nonzero;"/>
                </g>
            </g>
            <g>
                <g id="path1309">
                    <path d="M13.879,0.524371C12.1652,1.00972 10.4085,1.97492 9.17274,2.90948C7.93697,3.84404 4.70897,6.19888 3.97201,6.94508C3.25747,7.66857 2.41345,7.92094 2.04412,8.81244C1.90169,9.15625 3.00997,10.1934 3.22714,10.3011C3.79075,10.5805 4.70943,10.085 5.12863,10.0554C6.4891,9.95939 7.88328,9.7731 9.2612,10.7327C9.00624,10.9976 9.41111,10.7124 8.88993,13.0354C8.70614,13.8546 8.30452,15.9799 8.79801,16.3853C9.28832,16.7882 9.58777,15.2177 10.0749,15.4582C10.0747,15.4585 10.0748,15.4595 10.0746,15.4598L10.074,15.4631C10.0742,15.4633 10.0753,15.4633 10.0755,15.4634C10.077,15.4639 10.0802,15.4637 10.0834,15.4633C10.0843,15.4637 10.0854,15.4634 10.0864,15.4639C10.0899,15.4656 10.093,15.4676 10.0964,15.4694L10.0993,15.4614C10.33,15.4 12.128,14.5849 13.7694,14.9127C14.6947,15.0975 16.1704,14.5795 17.0194,14.3093C18.3658,13.8808 20.2559,13.4936 21.455,13.4715C22.3383,13.4552 23.1375,12.9406 23.9872,12.8806C24.4886,12.8453 24.0237,11.1821 24.0134,11.0064C23.9636,10.162 22.9421,8.86456 22.416,7.71153C21.8899,6.55851 21.0083,5.09483 20.0373,3.94708C19.0663,2.79929 17.7563,1.31311 16.8339,0.855798C15.9116,0.398489 15.739,-0.00240862 13.879,0.524346Z" style="fill:rgb(255,50,50);"/>
                </g>
                <g id="path5882">
                    <path d="M9.7838,4.57588C8.67182,4.85304 7.7195,8.51009 6.34901,9.14583C5.45265,9.56163 3.00997,10.1934 3.22714,10.3011C3.79075,10.5805 4.70943,10.085 5.12863,10.0554C6.4891,9.95939 7.88328,9.7731 9.2612,10.7327C9.0899,10.9107 9.21646,10.8403 9.15988,11.4796C9.13225,11.7918 9.06094,12.2732 8.88993,13.0354C8.70614,13.8546 8.30452,15.9799 8.79801,16.3853C9.28832,16.7882 9.58777,15.2177 10.0749,15.4582C10.0747,15.4585 10.0748,15.4595 10.0746,15.4598L10.074,15.4631C10.0742,15.4633 10.0753,15.4633 10.0755,15.4634C10.077,15.4639 10.0802,15.4637 10.0834,15.4633C10.0843,15.4637 10.0854,15.4634 10.0864,15.4639C10.0899,15.4656 10.093,15.4676 10.0964,15.4694L10.0993,15.4614C10.33,15.4 12.128,14.5849 13.7694,14.9127C14.6947,15.0975 16.1704,14.5795 17.0194,14.3093C18.3658,13.8808 20.2559,13.4936 21.455,13.4715C22.3383,13.4552 23.1375,12.9406 23.9872,12.8806C24.4886,12.8453 20.8716,13.1643 22.3131,12.0914C22.9526,11.6155 15.9104,13.0835 13.2068,9.90902C10.5297,6.76571 10.9224,4.29207 9.78371,4.5759Z" style="fill:rgb(14,0,0);fill-opacity:0.101124;"/>
                </g>
                <g id="path5878">
                    <path d="M2.1583,8.42206C2.37486,8.56971 3.82925,10.4627 4.00107,10.3302C4.02184,10.1211 3.85222,10.0389 3.7329,10.015C3.89266,9.80607 3.92278,9.5876 3.64553,9.56883C3.33814,9.51298 3.00256,9.4738 3.33251,9.13356C3.48485,8.94286 3.32227,8.60422 3.22873,8.43196C2.98297,8.29538 2.79778,8.04825 2.69705,7.88026" style="fill:black;fill-opacity:0.269663;stroke-width:0.05px;stroke:black;stroke-opacity:0.269663;"/>
                </g>
                <g id="path5003">
                    <path d="M21.8986,12.4983C21.4441,12.3324 20.8739,12.1409 20.4721,12.1665C20.1961,11.9266 19.9843,12.2222 19.7452,12.3009C19.7051,11.839 19.0432,12.4962 18.7516,12.5C18.5446,12.6222 18.6873,12.1359 18.3165,12.3209C17.8556,12.3657 17.5705,12.3983 17.2286,12.5506C17.1465,13.0535 16.4084,13.3367 16.2979,12.7856C15.8955,12.9658 15.1471,13.3153 15.1423,12.7453C14.498,13.2595 14.4775,13.7242 13.8485,13.9724C13.9041,13.5273 12.4841,13.2878 12.2906,13.755C11.9009,13.9164 12.3716,13.17 11.8085,13.3751C11.1742,13.1854 11.5434,14.5006 10.25,13.9629C9.52989,13.9391 9.92869,15.0121 9.45344,15.4616C9.32682,15.9343 8.77747,15.297 8.55513,15.3324C8.60684,16.0808 8.76295,15.827 8.59899,16.3362C8.50116,16.9742 8.37021,17.2936 9.05224,17.4264C9.27309,17.1187 9.04114,17.2489 9.09054,17.8166C9.48438,17.6987 10.0021,17.0234 9.94895,17.7174C10.2162,17.2986 11.0622,17.0803 11.0516,16.6293C11.4799,16.6755 11.9605,17.1677 12.322,16.5694C12.6849,16.1276 13.2066,15.9226 13.2121,16.2639C13.6532,16.6879 13.6974,16.602 14.156,16.4941C14.0379,15.9474 15.2294,16.4565 14.6002,15.9122C14.8501,15.6547 15.5264,15.5042 15.9173,15.5937C16.2631,16.1117 17.3166,16.1546 17.4805,15.4841C17.5149,14.9567 18.315,14.7763 18.6141,15.1409C19.1343,14.6716 19.9549,15.3536 20.4026,14.9938C20.0002,14.4565 20.9712,14.1053 21.1526,14.5173C21.5089,14.3205 21.8404,13.6122 22.2301,14.1193C22.6784,13.969 23.2258,13.76 23.605,13.6033C23.8896,14.0861 24.6263,13.5894 24.307,13.0051C24.1341,12.5878 24.8747,13.2106 24.6731,12.6811C24.4437,12.1114 24.1216,11.3198 23.7269,11.346C23.1895,11.2078 22.8708,11.581 22.8485,12.1091C22.8417,11.7237 22.2068,12.0994 21.8737,12.2391L21.6911,12.2838" style="fill:black;fill-opacity:0.294045;stroke-width:0.04px;stroke:black;stroke-opacity:0.294045;"/>
                </g>
                <g id="path1307">
                    <path d="M22.199,12.6391C21.7446,12.4733 21.3235,12.45 20.9217,12.4755C20.6457,12.2357 20.3182,12.3143 20.0791,12.393C20.039,11.9311 19.4927,12.8052 19.2012,12.809C18.9942,12.9313 19.1369,12.445 18.7661,12.63C18.3052,12.6748 17.7709,12.3807 17.4289,12.533C17.3468,13.0359 16.6087,13.3191 16.4982,12.768C16.0958,12.9482 15.5967,13.6244 15.5918,13.0544C14.8365,13.0203 14.513,13.7844 13.884,14.0326C13.9396,13.5875 12.9337,13.5969 12.7401,14.064C12.3505,14.2255 12.6365,13.2207 12.0734,13.4258C11.4391,13.236 11.4564,14.5364 10.6996,14.272C9.97946,14.2481 10.08,14.9847 9.60479,15.4343C9.47817,15.9069 9.22705,15.606 9.0047,15.6414C9.37058,16.1757 7.88297,16.0644 8.32459,16.8884C8.22676,17.5263 8.37634,17.9848 9.05837,18.1177C9.27923,17.81 9.49072,17.558 9.54011,18.1257C9.93395,18.0077 10.4517,17.3325 10.3985,18.0264C10.6658,17.6077 11.5118,17.3894 11.5012,16.9383C11.9294,16.9846 12.4101,17.4767 12.7716,16.8785C13.1345,16.4366 13.1944,16.7972 13.1999,17.1385C13.6411,17.5625 14.1469,16.9111 14.6056,16.8032C14.4875,16.2565 15.679,16.7656 15.0498,16.2213C15.2997,15.9638 15.976,15.8133 16.3669,15.9028C16.7098,16.2375 17.7662,16.4637 17.9301,15.7932C17.9645,15.2658 18.7646,15.0854 19.0637,15.45C19.5839,14.9807 20.4045,15.6627 20.8521,15.3029C20.4498,14.7655 21.4208,14.4144 21.6022,14.8264C21.9584,14.6296 22.29,13.9213 22.6797,14.4284C23.128,14.278 23.6753,14.069 24.0545,13.9124C24.3391,14.3952 25.0759,13.8985 24.7565,13.3142C24.5836,12.8968 25.3243,13.5197 25.1227,12.9901C25.1272,12.3841 24.9054,11.4464 24.1765,11.655C23.6391,11.5169 23.3204,11.89 23.2981,12.4182C23.2913,12.0328 22.4427,12.1719 22.1096,12.3117L22.0005,12.3711" style="fill:white;"/>
                </g>
                <g id="path3249">
                    <path d="M9.6022,15.4498C9.47558,15.9225 9.22445,15.6216 9.00211,15.657C9.36798,16.1913 7.88037,16.08 8.322,16.904C8.22416,17.5419 8.37375,18.0004 9.05578,18.1332C9.27663,17.8255 9.48812,17.5735 9.53752,18.1412C9.93136,18.0233 10.4491,17.348 10.3959,18.042C10.6632,17.6232 11.5092,17.4049 11.4986,16.9539C11.9268,17.0001 12.3869,17.4151 12.7484,16.8169C13.1114,16.375 13.1918,16.8127 13.1973,17.154C13.6385,17.578 14.1443,16.9266 14.603,16.8187C14.4849,16.272 15.1438,16.7217 15.0472,16.2369C14.9839,15.9193 17.0991,16.0133 16.7949,15.7028C15.8858,14.7748 14.4657,16.173 14.2602,16.0837C14.0548,15.9945 13.8277,16.0486 14.1148,15.9131C14.4018,15.7775 13.7036,16.0005 13.122,15.7879C12.5405,15.5754 12.1149,15.8441 12.076,16.3742C11.638,16.0939 11.6066,16.4123 10.9243,16.6076C11.3591,15.9535 10.1558,16.4338 10.1558,16.4338C10.1558,16.4338 10.3655,15.7166 9.98876,15.8113C10.1913,15.437 9.9665,15.3217 9.9665,15.3217Z" style="fill:black;fill-opacity:0.11236;"/>
                </g>
                <g id="path2251">
                    <path d="M2.46456,7.89571C2.38517,7.75022 2.13781,7.71017 2.10598,7.58679C2.16127,7.44349 1.94381,7.54743 1.90096,7.46866C1.64515,7.68414 1.29202,7.77741 1.10246,8.07378C1.20326,8.05103 1.20302,7.89941 1.09288,8.01127C0.885454,8.1173 0.684983,8.30356 0.762981,8.56934C0.781874,8.70572 0.615051,8.82308 0.818697,8.85538C0.792143,9.07373 0.473813,9.06453 0.473623,9.25725C0.544085,9.46744 0.513089,9.6865 0.345503,9.83394C0.179736,9.99345 0.248005,10.2282 0.254047,10.422C0.170677,10.5516 0.12375,10.6721 0.233634,10.7956C0.256897,11.0183 0.436541,11.1657 0.437879,11.3974C0.513508,11.5188 0.665164,11.5113 0.742628,11.6485C0.968922,11.6683 0.985526,11.9934 1.20109,12.0385C1.38626,12.1007 1.60536,12.0576 1.77221,12.1032C1.90905,12.2173 2.06612,12.2969 2.23839,12.3289C2.45495,12.4708 2.52856,12.1178 2.65962,12.0041C2.66642,11.8264 2.7905,11.8126 2.8736,11.9622C3.06272,12.0941 3.25868,11.8669 3.39427,11.7467C3.52682,11.5981 3.67554,11.4693 3.82314,11.339C4.03269,11.0956 4.10709,10.7472 4.09536,10.4268C4.11614,10.2261 3.93471,10.215 3.8154,10.192C3.86934,10.0237 4.00528,9.78151 3.72803,9.76349C3.56903,9.72076 3.20857,9.53797 3.41501,9.34541C3.56735,9.16224 3.35769,8.91568 3.26415,8.75023C3.10215,8.61756 3.00803,8.43275 2.9073,8.27139C2.71228,8.23942 2.52952,8.11747 2.4798,7.90458C2.42774,7.73552 2.46539,7.86072 2.48183,7.94302" style="fill:white;"/>
                </g>
                <g id="path4128">
                    <path d="M0.845939,10.1299C0.748279,10.0063 1.13389,10.0645 1.10206,9.94116C1.15734,9.79787 1.09119,9.7919 1.04834,9.71313C0.792525,9.9286 0.85277,9.41812 0.663207,9.71449C0.764007,9.69174 0.747432,9.31703 0.637295,9.42888C0.429868,9.53492 0.473815,9.06453 0.473625,9.25725C0.544087,9.46744 0.513091,9.6865 0.345505,9.83394C0.179738,9.99345 0.248007,10.2282 0.254048,10.422C0.170678,10.5516 0.123752,10.6721 0.233635,10.7956C0.256899,11.0183 0.436543,11.1657 0.437881,11.3974C0.513509,11.5188 0.665166,11.5113 0.742629,11.6485C0.968924,11.6683 0.985528,11.9934 1.20109,12.0385C1.38626,12.1007 1.60536,12.0576 1.77221,12.1032C1.90905,12.2173 2.06612,12.2969 2.23839,12.3289C2.45496,12.4708 2.52856,12.1178 2.65962,12.0041C2.66642,11.8264 2.7905,11.8126 2.8736,11.9622C3.06273,12.0941 3.25868,11.8669 3.39427,11.7467C3.52682,11.5981 2.88526,11.7693 3.03287,11.6389C3.24242,11.3955 2.56006,11.9787 2.54833,11.6583C2.56911,11.4575 1.79389,11.9137 1.95806,11.5608C2.01201,11.3924 2.05173,11.5138 1.77448,11.4958C1.61549,11.4531 1.17658,11.151 1.38302,10.9585C1.53535,10.7753 1.30117,10.9871 1.20762,10.8217C1.04563,10.689 1.1491,10.7621 1.04837,10.6007C0.853345,10.5687 0.939088,10.4867 0.889372,10.2738C0.805004,10.5236 0.829512,10.0476 0.84594,10.1299Z" style="fill:black;fill-opacity:0.0955056;"/>
                </g>
                <g id="path5880">
                    <path d="M9.2175,10.7898C9.2175,10.7898 10.0192,8.68674 10.2118,7.84771C10.392,7.06271 10.3687,5.86444 10.0988,5.64266C9.82885,5.42088 9.47382,5.80446 9.4364,6.25867C9.39898,6.71287 9.36764,6.82733 9.54883,7.69372C9.63097,8.08648 9.58995,9.01743 9.47827,9.45681C9.3666,9.89619 9.12292,10.8968 9.2175,10.7898Z" style="fill:black;fill-opacity:0.219608;"/>
                </g>
            </g>
        </g>
    </g>
</svg>
