<?xml version="1.0" standalone="no"?><!DOCTYPE svg PUBLIC "-//W3C//DTD SVG 1.1//EN" "http://www.w3.org/Graphics/SVG/1.1/DTD/svg11.dtd"><svg width="128px" height="128px" version="1.1" xmlns="http://www.w3.org/2000/svg" xmlns:xlink="http://www.w3.org/1999/xlink" xml:space="preserve" style="fill-rule:evenodd;clip-rule:evenodd;stroke-linejoin:round;stroke-miterlimit:1.41421;"><g><g transform="matrix(0.927083,0,0,2.43902,11,-126.963)"><path d="M1.82493e-06,58l0,37.4375c0,3.55556 0.0125,3.5625 4.8125,3.5625l86.375,0c4.8,0 4.8125,-0.007 4.8125,-3.5625l0,-37.4375Z" style="fill:#eee;fill-rule:nonzero;"/></g><g transform="matrix(1.24995,2.26234e-18,1.82342e-18,1,11.5027,-32.9998)"><path d="M14,66.9998l32,0c4,0 4,0 4,2c0,2 0,2 -4,2l-32,0c-4,0 -4,0 -4,-2c0,-2 -0.210526,-2 4,-2Z" style="fill:#000;fill-opacity:0.101961;fill-rule:nonzero;"/></g><g transform="matrix(1.24995,2.26234e-18,1.82342e-18,1,11.7536,-33)"><path d="M14,77l32,0c4,0 4,0 4,0.5c0,0.5 0,0.5 -4,0.5l-32,0c-4,0 -4,0 -4,-0.5c0,-0.5 -0.210526,-0.5 4,-0.5Z" style="fill:#000;fill-opacity:0.101961;fill-rule:nonzero;"/></g><g transform="matrix(0.999956,7.04106e-17,9.88241e-17,1,14.253,-35)"><path d="M14,85l32,0c4,0 4,0 4,0.5c0,0.5 0,0.5 -4,0.5l-32,0c-4,0 -4,0 -4,-0.5c0,-0.5 -0.210526,-0.5 4,-0.5Z" style="fill:#000;fill-opacity:0.101961;fill-rule:nonzero;"/></g><g transform="matrix(1.14995,-2.22295e-17,-1.79168e-17,1,12.7534,-29)"><path d="M14,85l32,0c4,0 4,0 4,0.5c0,0.5 0,0.5 -4,0.5l-32,0c-4,0 -4,0 -4,-0.5c0,-0.5 -0.210526,-0.5 4,-0.5Z" style="fill:#000;fill-opacity:0.101961;fill-rule:nonzero;"/></g><g transform="matrix(1.24071,0,0,1,11.7154,-23)"><path d="M14,85l32,0c4,0 4,0 4,0.5c0,0.5 0,0.5 -4,0.5l-32,0c-4,0 -4,0 -4,-0.5c0,-0.5 -0.210526,-0.5 4,-0.5Z" style="fill:#000;fill-opacity:0.101961;fill-rule:nonzero;"/></g><g transform="matrix(1.24995,-2.26234e-18,1.82342e-18,-1,11.8841,158)"><path d="M14,77l32,0c4,0 4,0 4,0.5c0,0.5 0,0.5 -4,0.5l-32,0c-4,0 -4,0 -4,-0.5c0,-0.5 -0.210526,-0.5 4,-0.5Z" style="fill:#000;fill-opacity:0.101961;fill-rule:nonzero;"/></g><g transform="matrix(0.999956,-7.04106e-17,9.88241e-17,-1,14.3836,160)"><path d="M14,85l32,0c4,0 4,0 4,0.5c0,0.5 0,0.5 -4,0.5l-32,0c-4,0 -4,0 -4,-0.5c0,-0.5 -0.210526,-0.5 4,-0.5Z" style="fill:#000;fill-opacity:0.101961;fill-rule:nonzero;"/></g><g transform="matrix(1.14995,2.22295e-17,-1.79168e-17,-1,12.8839,154)"><path d="M14,85l32,0c4,0 4,0 4,0.5c0,0.5 0,0.5 -4,0.5l-32,0c-4,0 -4,0 -4,-0.5c0,-0.5 -0.210526,-0.5 4,-0.5Z" style="fill:#000;fill-opacity:0.101961;fill-rule:nonzero;"/></g><g transform="matrix(1.24071,0,0,-1,11.8459,173)"><path d="M14,85l32,0c4,0 4,0 4,0.5c0,0.5 0,0.5 -4,0.5l-32,0c-4,0 -4,0 -4,-0.5c0,-0.5 -0.210526,-0.5 4,-0.5Z" style="fill:#000;fill-opacity:0.101961;fill-rule:nonzero;"/></g><g transform="matrix(0.888889,3.95845e-18,3.95845e-18,0.872727,13.3333,27.2727)"><path d="M79.5,37.5c14.9117,0 27,12.3122 27,27.5c0,15.1878 -12.0883,27.5 -27,27.5c-14.9117,0 -27,-12.3122 -27,-27.5c0,-15.1878 12.0883,-27.5 27,-27.5Z" style="fill:#90afff;"/></g><g transform="matrix(0.777778,3.46365e-18,3.46365e-18,0.763636,22.1667,34.3636)"><path d="M79.5,37.5c14.9117,0 27,12.3122 27,27.5c0,15.1878 -12.0883,27.5 -27,27.5c-14.9117,0 -27,-12.3122 -27,-27.5c0,-15.1878 12.0883,-27.5 27,-27.5Z" style="fill:#fff;"/></g><g transform="matrix(1.41501,-1.41341,0.719556,0.72037,-98.5768,155.465)"><rect x="90" y="100.5" width="1.5" height="27.5" style="fill:#90afff;"/></g><path d="M66.1112,95c-1.11817,-1.63145 -2.05395,-3.82154 -2.50739,-6l22.8964,0c4.99978,0 4.99978,0 4.99978,3c0,3 0,3 -4.99978,3Z" style="fill:#000;fill-opacity:0.101961;"/><path d="M63.8746,78c0.682086,-2.1983 1.69201,-4.23495 2.89582,-6l20.2298,0c4.99978,0 4.99978,0 4.99978,3c0,3 0,3 -4.99978,3Z" style="fill:#000;fill-opacity:0.101961;"/></g></svg>