<?xml version="1.0" encoding="UTF-8" standalone="no"?>
<!-- Generator: Adobe Illustrator 16.0.4, SVG Export Plug-In . SVG Version: 6.00 Build 0)  -->

<svg
   xmlns:dc="http://purl.org/dc/elements/1.1/"
   xmlns:cc="http://creativecommons.org/ns#"
   xmlns:rdf="http://www.w3.org/1999/02/22-rdf-syntax-ns#"
   xmlns:svg="http://www.w3.org/2000/svg"
   xmlns="http://www.w3.org/2000/svg"
   xmlns:sodipodi="http://sodipodi.sourceforge.net/DTD/sodipodi-0.dtd"
   xmlns:inkscape="http://www.inkscape.org/namespaces/inkscape"
   version="1.1"
   id="Capa_1"
   x="0px"
   y="0px"
   width="25.680553"
   height="22.470413"
   viewBox="0 0 25.680554 22.470413"
   xml:space="preserve"
   inkscape:version="0.48.4 r9939"
   sodipodi:docname="speaker.svg"><metadata
     id="metadata39"><rdf:RDF><cc:Work
         rdf:about=""><dc:format>image/svg+xml</dc:format><dc:type
           rdf:resource="http://purl.org/dc/dcmitype/StillImage" /><dc:title></dc:title></cc:Work></rdf:RDF></metadata><defs
     id="defs37" /><sodipodi:namedview
     pagecolor="#ffffff"
     bordercolor="#666666"
     borderopacity="1"
     objecttolerance="10"
     gridtolerance="10"
     guidetolerance="10"
     inkscape:pageopacity="0"
     inkscape:pageshadow="2"
     inkscape:window-width="1920"
     inkscape:window-height="1056"
     id="namedview35"
     showgrid="false"
     inkscape:zoom="5.5625733"
     inkscape:cx="77.072662"
     inkscape:cy="19.067489"
     inkscape:window-x="0"
     inkscape:window-y="24"
     inkscape:window-maximized="1"
     inkscape:current-layer="Capa_1"
     fit-margin-top="0"
     fit-margin-left="0"
     fit-margin-right="0"
     fit-margin-bottom="0" /><g
     id="g5"
     transform="translate(-11.224269,35.978227)" /><g
     id="g7"
     transform="translate(-11.224269,35.978227)" /><g
     id="g9"
     transform="translate(-11.224269,35.978227)" /><g
     id="g11"
     transform="translate(-11.224269,35.978227)" /><g
     id="g13"
     transform="translate(-11.224269,35.978227)" /><g
     id="g15"
     transform="translate(-11.224269,35.978227)" /><g
     id="g17"
     transform="translate(-11.224269,35.978227)" /><g
     id="g19"
     transform="translate(-11.224269,35.978227)" /><g
     id="g21"
     transform="translate(-11.224269,35.978227)" /><g
     id="g23"
     transform="translate(-11.224269,35.978227)" /><g
     id="g25"
     transform="translate(-11.224269,35.978227)" /><g
     id="g27"
     transform="translate(-11.224269,35.978227)" /><g
     id="g29"
     transform="translate(-11.224269,35.978227)" /><g
     id="g31"
     transform="translate(-11.224269,35.978227)" /><g
     id="g33"
     transform="translate(-11.224269,35.978227)" /><text
     xml:space="preserve"
     style="font-size:40px;font-style:normal;font-weight:normal;line-height:1000%;letter-spacing:0px;word-spacing:0px;fill:#000000;fill-opacity:1;stroke:none;font-family:Sans"
     x="-9.0669937"
     y="15.023643"
     id="text3790"
     sodipodi:linespacing="1000%"><tspan
       sodipodi:role="line"
       id="tspan3792"
       x="-9.0669937"
       y="15.023643" /></text>
<path
     id="path3803"
     d="m 25.680555,9.1601357 c 0,-5.038955 -1.474425,-9.12707795 -3.297392,-9.15937995453 0.0073,-1.88e-4 0.0145,-7.5599999771e-4 0.02192,-7.5599999771e-4 h -2.080124 c 0,0 -4.885275,3.66991195452771 -11.918135,5.10987795452771 -0.214673,1.135864 -0.351854,2.48966 -0.351854,4.050255 0,1.5605953 0.13708,2.9143423 0.351854,4.0502043 7.032761,1.439968 11.918135,5.109928 11.918135,5.109928 h 2.080124 c -0.0073,0 -0.0145,-5.72e-4 -0.02192,-8.47e-4 1.823119,-0.0323 3.297392,-4.120374 3.297392,-9.1593303 z m -3.991921,7.7742863 c -0.235288,0 -0.489836,-0.244316 -0.620597,-0.389923 -0.316744,-0.352656 -0.621751,-0.901778 -0.882469,-1.588182 -0.583229,-1.535566 -0.904488,-3.593973 -0.904488,-5.7962813 0,-2.202157 0.321259,-4.260615 0.904488,-5.796231 0.260618,-0.686353 0.565775,-1.235526 0.882469,-1.588181 0.130761,-0.145758 0.385309,-0.390024 0.620597,-0.390024 0.235187,0 0.489937,0.244367 0.620546,0.390024 0.316795,0.352706 0.621799,0.901778 0.882468,1.588181 0.583281,1.535566 0.904538,3.594074 0.904538,5.796231 0,2.2019563 -0.321257,4.2605643 -0.904538,5.7962813 -0.260568,0.686404 -0.565824,1.235526 -0.882468,1.588182 -0.130609,0.145607 -0.385207,0.389923 -0.620546,0.389923 z M 6.315109,9.1601357 c 0,-1.302836 0.09555,-2.568807 0.27717,-3.739078 -1.188027,0.164365 -2.230547,0.258912 -3.519541,0.258912 -1.681724,0 -1.681724,0 -1.681724,0 L 0,8.0545687 v 2.2111853 l 1.390863,2.3746 c 0,0 0,0 1.681775,0 1.288993,0 2.331514,0.09465 3.51954,0.258911 C 6.410708,11.728995 6.315109,10.462972 6.315109,9.1601357 z M 9.232711,14.499786 6.022692,13.885107 8.07518,21.948952 c 0.106233,0.417159 0.520232,0.62797 0.920036,0.467818 l 2.973227,-1.190034 c 0.399853,-0.159901 0.559958,-0.600985 0.356017,-0.980175 L 9.232711,14.499786 z m 12.455923,-2.343401 c -0.09079,0 -0.188793,-0.09414 -0.239251,-0.150272 -0.122134,-0.135925 -0.239601,-0.34759 -0.340068,-0.61212 -0.224754,-0.591857 -0.348593,-1.385195 -0.348593,-2.2339573 0,-0.848763 0.123839,-1.642101 0.348593,-2.233957 0.100467,-0.26453 0.218085,-0.476194 0.340068,-0.612119 0.05046,-0.05618 0.148466,-0.150323 0.239251,-0.150323 0.09069,0 0.188841,0.0942 0.2392,0.150323 0.122183,0.135925 0.239652,0.347539 0.340066,0.612119 0.224805,0.591806 0.348646,1.385194 0.348646,2.233957 0,0.8487123 -0.123841,1.6421003 -0.348646,2.2339573 -0.100414,0.26453 -0.218083,0.476195 -0.340066,0.61212 -0.05036,0.05613 -0.148467,0.150272 -0.2392,0.150272 z"
     inkscape:connector-curvature="0"
     style="fill:#1c7e9a;fill-opacity:1"
     inkscape:export-filename="/home/priyanka/Downloads/speaker.png"
     inkscape:export-xdpi="90"
     inkscape:export-ydpi="90" /></svg>