<?xml version="1.0" standalone="no"?><!DOCTYPE svg PUBLIC "-//W3C//DTD SVG 1.1//EN" "http://www.w3.org/Graphics/SVG/1.1/DTD/svg11.dtd"><svg width="640px" height="360px" version="1.1" xmlns="http://www.w3.org/2000/svg" xmlns:xlink="http://www.w3.org/1999/xlink" xml:space="preserve" style="fill-rule:evenodd;clip-rule:evenodd;stroke-linejoin:round;stroke-miterlimit:1.41421;"><g><g transform="matrix(1,0,0,1,80,50)"><path d="M10.093,0l459.872,0c10.0351,0 10.0351,0 10.0351,8.15764l0,243.711c0,8.13121 0,8.13121 -10,8.13121l-460,0c-10,0 -10,0 -10,-8.02862l0,-243.865c0,-8.10634 0,-8.10634 10.093,-8.10634Z" style="fill:#333;fill-rule:nonzero;"/></g><g transform="matrix(1,0,0,1,80,50)"><path d="M35,29.9994l410,0c5,0 5,0 5,3.84616l0,192.308c0,3.84617 0,3.84617 -5,3.84617l-410,0c-5,0 -5,0 -5,-3.84617l0,-192.308c0,-3.84616 0,-3.84616 5,-3.84616Z" style="fill:#fff;fill-rule:nonzero;"/></g><g transform="matrix(1,0,0,1,80,50)"><path d="M33.3438,30c-3.34961,0.052584 -3.34375,0.478356 -3.34375,3.84375l0,192.312c0,3.84617 0,3.84375 5,3.84375l175,0l0,-200l-175,0c-0.625,0 -1.17773,-0.007512 -1.65625,0Z" style="fill:#eee;fill-rule:nonzero;"/></g><g transform="matrix(1,0,0,1,80,50)"><path d="M33.3438,29.9994c-3.34961,0.052585 -3.34375,0.480771 -3.34375,3.84616l0,26.1544l420,0l0,-26.1544c0,-3.84616 0,-3.84616 -5,-3.84616l-410,0c-0.625,0 -1.17773,-0.0077 -1.65625,0Z" style="fill:#eee;fill-rule:nonzero;"/></g><g transform="matrix(1,0,0,1,80,89.5482)"><rect x="12.09" y="90" width="4" height="20" style="fill:#555;"/><path d="M19.0554,75.9035c0,2.74292 -2.25708,5 -5,5c-2.74292,0 -5,-2.25708 -5,-5c0,-2.74292 2.25708,-5 5,-5c2.74292,0 5,2.25708 5,5Z" style="fill:#555;fill-rule:nonzero;"/></g><g transform="matrix(1,0,0,1,80,50)"><rect x="30" y="59" width="420" height="1" style="fill:#ddd;fill-rule:nonzero;"/></g><g transform="matrix(1,0,0,1,80,50.5)"><rect x="209" y="29.5" width="1" height="200" style="fill:#ddd;fill-rule:nonzero;"/></g><g transform="matrix(1,0,0,1,80,50)"><path d="M220,41c0,-2 0,-2 2.16897,-2l75.919,0c1.91205,0 1.91205,0 1.91205,2l0,8.00692c0,1.99308 0,1.99308 -2,1.99308l-76,0c-2,0 -2,0 -2,-1.99308Z" style="fill:#ddd;fill-rule:nonzero;"/></g><g transform="matrix(1,0,0,1,80,50)"><path d="M47.1186,37.8794l-5.84746,5.84745l-1.27119,1.27119l1.27119,1.27119l5.84746,5.84746c0.508475,0.508471 0.508475,0.508471 1.01695,0l0.254237,-0.254242c0.508475,-0.508469 0.508475,-0.508469 0,-1.01695l-5.84746,-5.84746l5.84746,-5.84746c0.508475,-0.508468 0.508475,-0.508468 0,-1.01695l-0.254237,-0.254235Z" style="fill:#888;fill-rule:nonzero;"/></g><g transform="matrix(1,0,0,1,80,50)"><path d="M76.5,37.498c-4.14151,0 -7.5,3.35849 -7.5,7.5c0,4.14151 3.35849,7.5 7.5,7.5c4.14151,0 7.5,-3.35849 7.5,-7.5c0,-4.14151 -3.35849,-7.5 -7.5,-7.5ZM76.5,40.5058c0.826704,0 1.50391,0.65767 1.50391,1.48438c0,0.826703 -0.677202,1.50391 -1.50391,1.50391c-0.826704,0 -1.50391,-0.677203 -1.50391,-1.50391c0,-0.826705 0.677202,-1.48438 1.50391,-1.48438ZM74.9961,44.998l3.00781,0l0,4.49219l-3.00781,0Z" style="fill:#ddd;"/></g><g transform="matrix(1,0,0,1,135,50)"><rect x="104" y="30" width="50" height="30" style="fill:#ddd;"/></g><g transform="matrix(0.681818,0,0,0.681818,200,84.7707)"><path d="M3.11494,13.1394c-0.620064,2.12173 -0.63436,5.05926 0.472156,6.50824c0.465076,0.687317 1.09968,1.59121 0.602277,2.41378c-0.919477,1.28329 -2.45226,1.97557 -3.84789,2.67472c-0.474114,0.04674 -0.302852,0.470394 -0.334599,0.782843c-0.0007616,0.248486 -0.07756,0.573014 0.30114,0.456661l13.384,0c0.378701,0.116346 0.301898,-0.208175 0.301139,-0.456661c-0.03175,-0.312449 0.139524,-0.73608 -0.334599,-0.782843c-1.39563,-0.699157 -2.92841,-1.39143 -3.84789,-2.67472c-0.4974,-0.822564 0.1372,-1.72646 0.602278,-2.41378c1.16889,-1.57733 1.32089,-5.00921 0.468439,-6.55633c-0.770237,-1.34128 -1.54802,-2.03974 -3.88135,-2.09128c-2.33705,0.090627 -3.11111,0.750002 -3.88506,2.13937Z" style="fill:#ddd;fill-rule:nonzero;"/><path d="M12.4499,7.13775c-0.885804,3.11187 -0.906226,7.42024 0.67451,9.54542c0.664392,1.00807 1.57097,2.33378 0.860394,3.54021c-1.31354,1.88216 -3.50323,2.8975 -5.49698,3.92293c-0.677305,0.06855 -0.432646,0.689912 -0.477998,1.14817c-0.00109,0.364447 -0.1108,0.840421 0.4302,0.66977l19.1199,0c0.541,0.170641 0.431282,-0.305323 0.430197,-0.66977c-0.04536,-0.458257 0.199319,-1.07958 -0.477999,-1.14817c-1.99375,-1.02543 -4.18344,-2.04077 -5.49698,-3.92293c-0.710571,-1.20643 0.196002,-2.53214 0.860399,-3.54021c1.66984,-2.31342 1.88698,-7.34684 0.669198,-9.61596c-1.10034,-1.96721 -2.21145,-2.99162 -5.54478,-3.06721c-3.33864,0.13292 -4.44444,1.1 -5.55009,3.13775Z" style="fill:#ddd;fill-rule:nonzero;"/></g><g transform="matrix(1,0,0,1,80,50)"><path d="M175.286,37.498c-2.28574,0 -2.28574,0 -2.28574,2.38063l0,7.1419c0,2.38063 0,3.09476 2.28574,3.09476l3.42861,0c3.03889,3.17695 3.03432,3.17695 5.71435,0l3.42861,0c2.28574,0 2.28574,-0.714122 2.28574,-3.09476l0,-7.1419c0,-2.38063 0,-2.38063 -2.28574,-2.38063M175.857,40.3552l8.57152,0l0,1.42859M178.714,43.2123l8.57153,0l0,1.42859M175.857,46.0692l8.57152,0l0,1.42859" style="fill:#888;fill-rule:nonzero;"/></g><g transform="matrix(1,0,0,1,80,50)"><path d="M311.912,49.6672c-6.51476,3.6018 -5.24971,3.3514 -4.22477,-3.00539c-5.43869,-5.08289 -4.80963,-3.95713 1.55277,-4.94671c3.15347,-6.7432 2.27719,-5.79705 5.18443,-0.05185c7.38764,0.915369 6.21702,0.374358 1.6514,4.91467c1.41234,7.30893 1.56512,6.02841 -4.16383,3.08928Z" style="fill:#888;fill-rule:nonzero;"/></g><g transform="matrix(0.684597,0,0,0.684597,473.154,85.2616)"><path d="M12.1567,4c-4.41828,0 -8,3.58189 -8,8.00037c0,4.41848 3.58172,8.00037 8,8.00037c1.68187,0 3.24324,-0.519684 4.53125,-1.40631l4.875,4.87523c0.707107,0.707139 0.699144,0.707139 1.40625,0l0.34375,-0.375018c0.707107,-0.707139 0.707107,-0.699175 0,-1.40631l-4.8125,-4.81272c1.03968,-1.35006 1.65625,-3.03944 1.65625,-4.87522c0,-4.41848 -3.58172,-8.00037 -8,-8.00037ZM12.1567,6.00009c3.31371,0 6,2.68642 6,6.00028c0,3.31386 -2.68629,6.00028 -6,6.00028c-3.31371,0 -6,-2.68642 -6,-6.00028c0,-3.31386 2.68629,-6.00028 6,-6.00028Z" style="fill:#888;fill-rule:nonzero;"/><path d="M19.9375,17.6887l-2.4375,2.4375l3.5625,3.59375c0.973373,0.973416 0.964129,0.973416 1.9375,0l0.46875,-0.53125c0.973372,-0.973416 0.973372,-0.964085 0,-1.9375Z" style="fill:#888;fill-rule:nonzero;"/></g><g transform="matrix(1,0,0,1,80,50)"><path d="M420,30l0,30l30,0l0,-26.1562c0,-3.84616 0,-3.84375 -5,-3.84375Z" style="fill:#ddd;fill-rule:nonzero;"/></g><g transform="matrix(1,0,0,1,80,50)"><path id="2" d="M222.089,70c1.91118,0 1.91118,0.032249 1.91118,1.97388c0,2.02612 0,2.02612 -2,2.02612c-2,0 -2,0.0074 -2,-2c0,-2 0.0486,-2 2.08882,-2Z" style="fill:#e48;fill-rule:nonzero;"/><g id="4" transform="matrix(1,0,0,1,10,0)"><path d="M222.089,70c0.86812,0 25.9193,0 30.9112,0c2,0 2,0 2,2c0,2 0,2 -2,2c0,0 -29.3814,0 -31,0c-2,0 -2,0.0074 -2,-2c0,-2 0.0486,-2 2.08882,-2Z" style="fill:#ddd;fill-rule:nonzero;"/></g><g id="3" transform="matrix(1,0,0,1,60,0)"><path d="M222.089,70c0.86812,0 145.919,0 150.911,0c2,0 2,0 2,2c0,2 0,2 -2,2c0,0 -149.381,0 -151,0c-2,0 -2,0.0074 -2,-2c0,-2 0.0486,-2 2.08882,-2Z" style="fill:#ddd;fill-rule:nonzero;"/></g><g id="5" transform="matrix(1,0,0,1,60,14)"><path d="M222.089,70c0.86812,0 85.9193,0 90.9112,0c2,0 2,0 2,2c0,2 0,2 -2,2c0,0 -89.3814,0 -91,0c-2,0 -2,0.0074 -2,-2c0,-2 0.0486,-2 2.08882,-2Z" style="fill:#ddd;fill-rule:nonzero;"/></g></g><g transform="matrix(1,0,0,1,80,78)"><path id="21" d="M222.089,70c1.91118,0 1.91118,0.032249 1.91118,1.97388c0,2.02612 0,2.02612 -2,2.02612c-2,0 -2,0.0074 -2,-2c0,-2 0.0486,-2 2.08882,-2Z" style="fill:#76f;fill-rule:nonzero;"/><g id="41" transform="matrix(1,0,0,1,10,0)"><path d="M222.089,70c0.86812,0 25.9193,0 30.9112,0c2,0 2,0 2,2c0,2 0,2 -2,2c0,0 -29.3814,0 -31,0c-2,0 -2,0.0074 -2,-2c0,-2 0.0486,-2 2.08882,-2Z" style="fill:#ddd;fill-rule:nonzero;"/></g><g id="31" transform="matrix(1,0,0,1,60,0)"><path d="M222.089,70c0.86812,0 145.919,0 150.911,0c2,0 2,0 2,2c0,2 0,2 -2,2c0,0 -149.381,0 -151,0c-2,0 -2,0.0074 -2,-2c0,-2 0.0486,-2 2.08882,-2Z" style="fill:#ddd;fill-rule:nonzero;"/></g><g transform="matrix(1,0,0,1,60,14)"><path d="M222.089,70c0.86812,0 105.919,0 110.911,0c2,0 2,0 2,2c0,2 0,2 -2,2c0,0 -109.381,0 -111,0c-2,0 -2,0.0074 -2,-2c0,-2 0.0486,-2 2.08882,-2Z" style="fill:#ddd;fill-rule:nonzero;"/></g></g><g transform="matrix(1,0,0,1,80,106)"><path id="22" d="M222.089,70c1.91118,0 1.91118,0.032249 1.91118,1.97388c0,2.02612 0,2.02612 -2,2.02612c-2,0 -2,0.0074 -2,-2c0,-2 0.0486,-2 2.08882,-2Z" style="fill:#76f;fill-rule:nonzero;"/><g id="42" transform="matrix(1,0,0,1,10,0)"><path d="M222.089,70c0.86812,0 25.9193,0 30.9112,0c2,0 2,0 2,2c0,2 0,2 -2,2c0,0 -29.3814,0 -31,0c-2,0 -2,0.0074 -2,-2c0,-2 0.0486,-2 2.08882,-2Z" style="fill:#ddd;fill-rule:nonzero;"/></g><g id="32" transform="matrix(1,0,0,1,60,0)"><path d="M222.089,70c0.86812,0 145.919,0 150.911,0c2,0 2,0 2,2c0,2 0,2 -2,2c0,0 -149.381,0 -151,0c-2,0 -2,0.0074 -2,-2c0,-2 0.0486,-2 2.08882,-2Z" style="fill:#ddd;fill-rule:nonzero;"/></g><g transform="matrix(1,0,0,1,60,14)"><path d="M222.089,70c0.86812,0 65.9193,0 70.9112,0c2,0 2,0 2,2c0,2 0,2 -2,2c0,0 -69.3814,0 -71,0c-2,0 -2,0.0074 -2,-2c0,-2 0.0486,-2 2.08882,-2Z" style="fill:#ddd;fill-rule:nonzero;"/></g></g><g transform="matrix(1,0,0,1,80,134)"><path id="23" d="M222.089,70c1.91118,0 1.91118,0.032249 1.91118,1.97388c0,2.02612 0,2.02612 -2,2.02612c-2,0 -2,0.0074 -2,-2c0,-2 0.0486,-2 2.08882,-2Z" style="fill:#3c6;fill-rule:nonzero;"/><g id="43" transform="matrix(1,0,0,1,10,0)"><path d="M222.089,70c0.86812,0 25.9193,0 30.9112,0c2,0 2,0 2,2c0,2 0,2 -2,2c0,0 -29.3814,0 -31,0c-2,0 -2,0.0074 -2,-2c0,-2 0.0486,-2 2.08882,-2Z" style="fill:#ddd;fill-rule:nonzero;"/></g><g id="33" transform="matrix(1,0,0,1,60,0)"><path d="M222.089,70c0.86812,0 145.919,0 150.911,0c2,0 2,0 2,2c0,2 0,2 -2,2c0,0 -149.381,0 -151,0c-2,0 -2,0.0074 -2,-2c0,-2 0.0486,-2 2.08882,-2Z" style="fill:#ddd;fill-rule:nonzero;"/></g><g transform="matrix(1,0,0,1,60,14)"><path d="M222.089,70c0.86812,0 125.919,0 130.911,0c2,0 2,0 2,2c0,2 0,2 -2,2c0,0 -129.381,0 -131,0c-2,0 -2,0.0074 -2,-2c0,-2 0.0486,-2 2.08882,-2Z" style="fill:#ddd;fill-rule:nonzero;"/></g></g><g transform="matrix(1,0,0,1,80,50)"><rect x="210" y="199" width="240" height="1" style="fill:#ddd;fill-rule:nonzero;"/></g><g transform="matrix(1,0,0,1,80,50)"><g id="24" transform="matrix(1,0,0,1,0,112)"><path d="M222.089,70c1.91118,0 1.91118,0.032249 1.91118,1.97388c0,2.02612 0,2.02612 -2,2.02612c-2,0 -2,0.0074 -2,-2c0,-2 0.0486,-2 2.08882,-2Z" style="fill:#e48;fill-rule:nonzero;"/></g><g id="44" transform="matrix(1,0,0,1,10,112)"><path d="M222.089,70c0.86812,0 25.9193,0 30.9112,0c2,0 2,0 2,2c0,2 0,2 -2,2c0,0 -29.3814,0 -31,0c-2,0 -2,0.0074 -2,-2c0,-2 0.0486,-2 2.08882,-2Z" style="fill:#ddd;fill-rule:nonzero;"/></g><g id="51" transform="matrix(1,0,0,1,60,112)"><path d="M222.089,70c0.86812,0 85.9193,0 90.9112,0c2,0 2,0 2,2c0,2 0,2 -2,2c0,0 -89.3814,0 -91,0c-2,0 -2,0.0074 -2,-2c0,-2 0.0486,-2 2.08882,-2Z" style="fill:#ddd;fill-rule:nonzero;"/></g></g><g transform="matrix(0.921547,0,0,0.921553,505.276,246.069)"><path d="M5.12648,20c0,-2 0.00072,-2 2,-2l6.00025,0l-3.00025,-4c0,-3 1,-3 5,1c4.99276,5.99132 5,4 0,10c-4,4 -5,4 -5,1l3.00025,-4l-6.00025,0c-2.06669,0 -2,0 -2,-2Z" style="fill:#888;fill-rule:nonzero;"/></g><g transform="matrix(1.20301,5.11308e-17,4.492e-17,0.941176,-18.3459,10.3529)"><path d="M248,118.625c0,-1.17361 -0.744327,-2.125 -1.6625,-2.125l-129.675,0c-0.918173,0 -1.6625,0.951395 -1.6625,2.125l0,4.25c0,1.17361 0.744327,2.125 1.6625,2.125l129.675,0c0.918173,0 1.6625,-0.951395 1.6625,-2.125l0,-4.25Z" style="fill:#ddd;"/></g><g transform="matrix(0.902256,-2.25322e-17,-2.39405e-17,0.941176,16.2406,30.3529)"><path d="M248,118.625c0,-1.17361 -0.992436,-2.125 -2.21667,-2.125l-128.567,0c-1.22423,0 -2.21667,0.951395 -2.21667,2.125l0,4.25c0,1.17361 0.992436,2.125 2.21667,2.125l128.567,0c1.22423,0 2.21667,-0.951395 2.21667,-2.125l0,-4.25Z" style="fill:#ddd;"/></g><g transform="matrix(1.05263,1.42993e-17,1.04898e-17,0.941176,-1.05263,50.3529)"><path d="M248,118.625c0,-1.17361 -0.850659,-2.125 -1.9,-2.125l-129.2,0c-1.04934,0 -1.9,0.951395 -1.9,2.125l0,4.25c0,1.17361 0.850659,2.125 1.9,2.125l129.2,0c1.04934,0 1.9,-0.951395 1.9,-2.125l0,-4.25Z" style="fill:#ddd;"/></g><g transform="matrix(0.977444,-4.11646e-18,-6.72536e-18,0.941176,7.59398,70.3529)"><path d="M248,118.625c0,-1.17361 -0.916094,-2.125 -2.04615,-2.125l-128.908,0c-1.13006,0 -2.04615,0.951395 -2.04615,2.125l0,4.25c0,1.17361 0.916094,2.125 2.04615,2.125l128.908,0c1.13006,0 2.04615,-0.951395 2.04615,-2.125l0,-4.25Z" style="fill:#ddd;"/></g><g transform="matrix(1.12782,3.2715e-17,2.77049e-17,0.941176,-9.69925,90.3529)"><path d="M248,118.625c0,-1.17361 -0.793948,-2.125 -1.77333,-2.125l-129.453,0c-0.979385,0 -1.77333,0.951395 -1.77333,2.125l0,4.25c0,1.17361 0.793948,2.125 1.77333,2.125l129.453,0c0.979385,0 1.77333,-0.951395 1.77333,-2.125l0,-4.25Z" style="fill:#ddd;"/></g><g transform="matrix(0.902256,-2.25322e-17,-2.39405e-17,0.941176,16.2406,110.353)"><path d="M248,118.625c0,-1.17361 -0.992436,-2.125 -2.21667,-2.125l-128.567,0c-1.22423,0 -2.21667,0.951395 -2.21667,2.125l0,4.25c0,1.17361 0.992436,2.125 2.21667,2.125l128.567,0c1.22423,0 2.21667,-0.951395 2.21667,-2.125l0,-4.25Z" style="fill:#ddd;"/></g><g transform="matrix(1.05263,1.42993e-17,1.04898e-17,0.941176,-1.05263,130.353)"><path d="M248,118.625c0,-1.17361 -0.850659,-2.125 -1.9,-2.125l-129.2,0c-1.04934,0 -1.9,0.951395 -1.9,2.125l0,4.25c0,1.17361 0.850659,2.125 1.9,2.125l129.2,0c1.04934,0 1.9,-0.951395 1.9,-2.125l0,-4.25Z" style="fill:#ddd;"/></g><g transform="matrix(1.12782,3.2715e-17,2.77049e-17,0.941176,-9.69925,150.353)"><path d="M248,118.625c0,-1.17361 -0.793948,-2.125 -1.77333,-2.125l-129.453,0c-0.979385,0 -1.77333,0.951395 -1.77333,2.125l0,4.25c0,1.17361 0.793948,2.125 1.77333,2.125l129.453,0c0.979385,0 1.77333,-0.951395 1.77333,-2.125l0,-4.25Z" style="fill:#ddd;"/></g></g></svg>
