<?xml version="1.0" standalone="no"?><!DOCTYPE svg PUBLIC "-//W3C//DTD SVG 1.1//EN" "http://www.w3.org/Graphics/SVG/1.1/DTD/svg11.dtd"><svg width="512px" height="512px" version="1.1" xmlns="http://www.w3.org/2000/svg" xmlns:xlink="http://www.w3.org/1999/xlink" xml:space="preserve" style="fill-rule:evenodd;clip-rule:evenodd;stroke-linejoin:round;stroke-miterlimit:1.41421;"><g><g id="Layer1" transform="matrix(1,0,0,1,30,20)"><g transform="matrix(1.01917,-1.80302e-17,-1.80302e-17,1.09278,-40.7666,-54.5342)"><path d="M432.478,77.3571c0,-10.1079 -8.78592,-18.302 -19.6239,-18.302l-353.23,0c-10.838,0 -19.6239,8.19406 -19.6239,18.302l0,384.341c0,10.1079 8.78592,18.302 19.6239,18.302l353.23,0c10.838,0 19.6239,-8.19406 19.6239,-18.302l0,-384.341Z" style="fill:#eee;"/></g><g transform="matrix(1.14286,0,0,1,-97.1429,-10.9449)"><rect x="120" y="80" width="280" height="20" style="fill:#000;fill-opacity:0.2;"/></g><g transform="matrix(1,0,0,1,2.10938,7.8301)"><path d="M43.0924,131.486l0,-9.76562c0,-5.68576 1.41602,-10.178 4.24805,-13.4766c2.83203,-3.29861 6.68945,-4.94792 11.5723,-4.94792c4.88281,0 8.74566,1.64931 11.5885,4.94792c2.84288,3.29861 4.26432,7.7908 4.26432,13.4766l0,9.76562c0,5.68576 -1.42144,10.1834 -4.26432,13.4928c-2.84288,3.30946 -6.70573,4.96419 -11.5885,4.96419c-4.88281,0 -8.74023,-1.65473 -11.5723,-4.96419c-2.83203,-3.30946 -4.24805,-7.80707 -4.24805,-13.4928ZM55.7552,119.117l0,14.974c0,2.71267 1.05252,4.06901 3.15755,4.06901c2.12674,0 3.1901,-1.35634 3.1901,-4.06901l0,-14.974c0,-2.71267 -1.06337,-4.06901 -3.1901,-4.06901c-2.10503,0 -3.15755,1.35634 -3.15755,4.06901Z" style="fill:#f18e7c;fill-rule:nonzero;"/><path d="M85.0521,104.403l23.5352,0l-7.25911,17.0898c2.60417,1.75781 4.49761,3.68381 5.68034,5.77799c1.18273,2.09418 1.77409,4.57357 1.77409,7.43815c0,4.27517 -1.57335,7.88303 -4.72005,10.8236c-3.1467,2.94054 -7.0204,4.41081 -11.6211,4.41081c-2.53906,0 -5.05642,-0.477431 -7.55208,-1.43229l0,-12.5651c1.88802,1.17188 3.52648,1.75781 4.91536,1.75781c1.5191,0 2.79405,-0.542535 3.82487,-1.6276c1.03082,-1.08507 1.54622,-2.43056 1.54622,-4.03646c0,-1.84462 -0.770399,-3.31489 -2.3112,-4.41081c-1.5408,-1.09592 -3.60243,-1.64388 -6.1849,-1.64388l3.28776,-8.75651l-4.91536,0l0,-12.8255Z" style="fill:#f18e7c;fill-rule:nonzero;"/></g><g transform="matrix(0.545455,-7.36255e-16,-7.36255e-16,3.55145,63.6364,-205.145)"><rect x="140" y="100" width="220" height="1.1263" style="fill:#000;fill-opacity:0.101961;"/></g><g transform="matrix(1,-6.24924e-16,-6.24924e-16,3.55145,7.09446e-14,-235.145)"><rect x="140" y="100" width="220" height="1.1263" style="fill:#000;fill-opacity:0.101961;"/></g><g transform="matrix(1,-6.24924e-16,-6.24924e-16,3.55145,7.09446e-14,24.8555)"><rect x="140" y="100" width="220" height="1.1263" style="fill:#000;fill-opacity:0.101961;"/></g><g transform="matrix(0.545455,-7.36255e-16,-7.36255e-16,3.55145,63.6364,54.8555)"><rect x="140" y="100" width="220" height="1.1263" style="fill:#000;fill-opacity:0.101961;"/></g><g transform="matrix(1.45455,-5.13592e-16,-5.13592e-16,3.55145,-163.636,-175.145)"><rect x="140" y="100" width="220" height="1.1263" style="fill:#000;fill-opacity:0.2;"/></g><g transform="matrix(1.45455,-5.13592e-16,-5.13592e-16,3.55145,-163.636,-135.145)"><rect x="140" y="100" width="220" height="1.1263" style="fill:#000;fill-opacity:0.2;"/></g><g transform="matrix(1.45455,-5.13592e-16,-5.13592e-16,3.55145,-163.636,-95.1445)"><rect x="140" y="100" width="220" height="1.1263" style="fill:#000;fill-opacity:0.2;"/></g><g transform="matrix(1.45455,-5.13592e-16,-5.13592e-16,3.55145,-163.636,-55.1445)"><rect x="140" y="100" width="220" height="1.1263" style="fill:#000;fill-opacity:0.2;"/></g><g transform="matrix(0.545455,-7.36255e-16,-7.36255e-16,3.55145,-36.3636,-15.1445)"><rect x="140" y="100" width="220" height="1.1263" style="fill:#000;fill-opacity:0.2;"/></g><g transform="matrix(0.75,0,0,0.75,10,100)"><rect x="40" y="360" width="80" height="80" style="fill:#000;fill-opacity:0.101961;"/></g></g><g transform="matrix(1.13208,-2.81362e-19,-2.28888e-19,0.921875,-67.8662,0)"><path d="M342.615,0c-5.68434e-14,54.368 -17.6561,227.798 -44.1667,260.339c32.8911,-0.0321075 104.242,108.481 104.233,251.661c-4.07931e-07,0.00709577 1.76668,5.68434e-14 1.76667,5.68434e-14c-0.000655551,0 1.76667,0.0191171 1.76667,0c0.00843161,-143.191 72.2413,-251.601 104.233,-251.661c-26.4046,-32.5343 -44.1667,-206.073 -44.1667,-260.339l-123.667,0Z" style="fill:#ffca6b;"/></g><g transform="matrix(1,0,0,38.1013,-0.103941,-17326.6)"><rect x="389.104" y="460" width="2.0357" height="7.00783" style="fill:#000;fill-opacity:0.2;"/></g><g transform="matrix(0.526316,-9.49865e-17,-3.60949e-16,0.526316,184.792,72.6316)"><path d="M390,204c10.4934,0 19,8.50659 19,19c0,10.4934 -8.50659,19 -19,19c-10.4934,0 -19,-8.50659 -19,-19c0,-10.4934 8.50659,-19 19,-19Z" style="fill:#000;fill-opacity:0.2;"/></g><path d="M270.055,239.927l0,0.0731725l-0.0551181,-0.000244803l0.0551181,-0.0729277ZM390.055,180l0,-180l69.9449,-6.28279e-15c0,50.0265 20.1163,209.999 50,240c-36.2174,0.0551249 -117.99,99.9957 -118,232c-1.14914e-06,0.0158919 -1.62688,0.00312304 -1.94488,0.000437559l0,-4.9926l0.98058,0l0,-267.008l-0.98058,0l0.0646728,-0.000204743c5.49316,-0.0348681 9.93533,-4.49857 9.93533,-9.9998c0,-5.52274 -4.47698,-9.99983 -10,-10Z" style="fill:#000;fill-opacity:0.101961;"/><g transform="matrix(3.33333,0,0,3.33333,-909.945,-1104.67)"><path d="M390,470c1.65685,0 3,1.34315 3,3c0,1.65685 -1.34315,3 -3,3c-1.65685,0 -3,-1.34315 -3,-3c0,-1.65685 1.34315,-3 3,-3Z" style="fill:#ffca6b;"/></g><g transform="matrix(2,0,0,2,-389.945,-472.015)"><path d="M392.941,469.231c0.689938,0.718784 1.11393,1.69466 1.11393,2.76956c0,2.20914 -1.79086,4 -4,4c-1.03629,0 -1.98055,-0.394078 -2.691,-1.04049c0.208293,0.0264371 0.420499,0.0400561 0.635886,0.0400561c2.76142,0 5,-2.23858 5,-5c0,-0.26153 -0.0200793,-0.51837 -0.0588087,-0.769126Z" style="fill:#000;fill-opacity:0.101961;"/></g></g></svg>