<?xml version="1.0" encoding="UTF-8" standalone="no"?>
<svg
   xmlns:osb="http://www.openswatchbook.org/uri/2009/osb"
   xmlns:dc="http://purl.org/dc/elements/1.1/"
   xmlns:cc="http://creativecommons.org/ns#"
   xmlns:rdf="http://www.w3.org/1999/02/22-rdf-syntax-ns#"
   xmlns:svg="http://www.w3.org/2000/svg"
   xmlns="http://www.w3.org/2000/svg"
   xmlns:sodipodi="http://sodipodi.sourceforge.net/DTD/sodipodi-0.dtd"
   xmlns:inkscape="http://www.inkscape.org/namespaces/inkscape"
   width="640px"
   height="240px"
   version="1.1"
   xml:space="preserve"
   style="fill-rule:evenodd;clip-rule:evenodd;stroke-linejoin:round;stroke-miterlimit:1.41421;"
   id="svg2"
   inkscape:version="0.48.4 r9939"
   sodipodi:docname="features.svg"><metadata
     id="metadata220"><rdf:RDF><cc:Work
         rdf:about=""><dc:format>image/svg+xml</dc:format><dc:type
           rdf:resource="http://purl.org/dc/dcmitype/StillImage" /><dc:title></dc:title></cc:Work></rdf:RDF></metadata><defs
     id="defs218"><linearGradient
       id="linearGradient5843"
       osb:paint="solid"><stop
         style="stop-color:#000000;stop-opacity:1;"
         offset="0"
         id="stop5845" /></linearGradient></defs><sodipodi:namedview
     pagecolor="#ffffff"
     bordercolor="#666666"
     borderopacity="1"
     objecttolerance="10"
     gridtolerance="10"
     guidetolerance="10"
     inkscape:pageopacity="0"
     inkscape:pageshadow="2"
     inkscape:window-width="1920"
     inkscape:window-height="1056"
     id="namedview216"
     showgrid="false"
     inkscape:zoom="1.825"
     inkscape:cx="347.4859"
     inkscape:cy="93.067485"
     inkscape:window-x="0"
     inkscape:window-y="24"
     inkscape:window-maximized="1"
     inkscape:current-layer="svg2" /><g
     id="g6"
     transform="matrix(1.12853,0,0,0.764331,-5.64263,28.8535)"
     style="fill-opacity:0.52968037;fill:#34c6d3"><path
       inkscape:connector-curvature="0"
       id="path8"
       style="fill:#34c6d3;fill-opacity:0.52968037"
       d="m 84.75,1.5 c 44.0447,0 79.75,52.7185 79.75,117.75 C 164.5,184.2815 128.7947,237 84.75,237 40.7053,237 5,184.2815 5,119.25 5,54.2185 40.7053,1.5 84.75,1.5 z" /></g><g
     id="g38"
     transform="matrix(1.12853,0,0,0.764331,224.357,28.8535)"
     style="fill-opacity:0.56164384;fill:#e34931"><path
       inkscape:connector-curvature="0"
       id="path40"
       style="fill:#e34931;fill-opacity:0.56164384"
       d="m 84.75,1.5 c 44.0447,0 79.75,52.7185 79.75,117.75 C 164.5,184.2815 128.7947,237 84.75,237 40.7053,237 5,184.2815 5,119.25 5,54.2185 40.7053,1.5 84.75,1.5 z" /></g><g
     id="g42"
     transform="matrix(1.12853,0,0,0.764331,454.357,17.8535)"
     style="fill:#770aa7;fill-opacity:0.46575344"><path
       inkscape:connector-curvature="0"
       id="path44"
       style="fill:#770aa7;fill-opacity:0.46575344"
       d="m 84.75,1.5 c 44.0447,0 79.75,52.7185 79.75,117.75 C 164.5,184.2815 128.7947,237 84.75,237 40.7053,237 5,184.2815 5,119.25 5,54.2185 40.7053,1.5 84.75,1.5 z" /></g><g
     style="fill-rule:evenodd;stroke-linejoin:round;stroke-miterlimit:1.41420996"
     id="g3270"
     transform="matrix(0.79450301,0,0,0.79450301,-14.643239,22.735595)"><g
       id="g3199"><g
         id="g3201"><g
           id="g3203"><g
             id="Layer1"><path
               id="path3206"
               style="fill:#eeeeee"
               d="M 134,59.0196 C 134,56.2474 131.762,54 129,54 l -90,0 c -2.7614,0 -5,2.2474 -5,5.0196 l 0,105.4114 c 0,2.773 2.2386,5.02 5,5.02 l 90,0 c 2.762,0 5,-2.247 5,-5.02 z"
               inkscape:connector-curvature="0" /><rect
               id="rect3208"
               style="fill:#000000;fill-opacity:0.2"
               height="5.0196099"
               width="80"
               y="66.311897"
               x="44" /><rect
               id="rect3210"
               style="fill:#000000;fill-opacity:0.2"
               height="1.00392"
               width="80"
               y="118"
               x="44" /><rect
               id="rect3212"
               style="fill:#000000;fill-opacity:0.2"
               height="1.00392"
               width="80"
               y="79.098"
               x="44" /><rect
               id="rect3214"
               style="fill:#000000;fill-opacity:0.2"
               height="1.00392"
               width="80"
               y="128.039"
               x="44" /><rect
               id="rect3216"
               style="fill:#000000;fill-opacity:0.2"
               height="1.00392"
               width="80"
               y="89.137299"
               x="44" /><rect
               id="rect3218"
               style="fill:#000000;fill-opacity:0.2"
               height="1.00392"
               width="80"
               y="138.078"
               x="44" /><rect
               id="rect3220"
               style="fill:#000000;fill-opacity:0.2"
               height="1.00392"
               width="80"
               y="99.176498"
               x="44" /><rect
               id="rect3222"
               style="fill:#000000;fill-opacity:0.2"
               height="1.00392"
               width="80"
               y="148.118"
               x="44" /><rect
               id="rect3224"
               style="fill:#000000;fill-opacity:0.2"
               height="1.00392"
               width="80"
               y="109.216"
               x="44" /><rect
               id="rect3226"
               style="fill:#000000;fill-opacity:0.2"
               height="1.00392"
               width="30"
               y="158.157"
               x="44" /></g><g
             id="Layer11"><path
               id="path3229"
               style="fill:#f6f6f6"
               d="m 212,33.0353 c 0,-2.7723 -2.238,-5.0196 -5,-5.0196 l -90,0 c -2.761,0 -5,2.2473 -5,5.0196 l 0,105.4117 c 0,2.772 2.239,5.02 5,5.02 l 90,0 c 2.762,0 5,-2.248 5,-5.02 z"
               inkscape:connector-curvature="0" /><rect
               id="rect3231"
               style="fill:#000000;fill-opacity:0.2"
               height="5.0196099"
               width="80"
               y="40.327599"
               x="122" /><rect
               id="rect3233"
               style="fill:#000000;fill-opacity:0.2"
               height="1.00392"
               width="80"
               y="92.266701"
               x="122" /><rect
               id="rect3235"
               style="fill:#000000;fill-opacity:0.2"
               height="1.00392"
               width="80"
               y="53.113701"
               x="122" /><rect
               id="rect3237"
               style="fill:#000000;fill-opacity:0.2"
               height="1.00392"
               width="80"
               y="102.306"
               x="122" /><rect
               id="rect3239"
               style="fill:#000000;fill-opacity:0.2"
               height="1.00392"
               width="80"
               y="63.152901"
               x="122" /><rect
               id="rect3241"
               style="fill:#000000;fill-opacity:0.2"
               height="1.00392"
               width="80"
               y="112.345"
               x="122" /><rect
               id="rect3243"
               style="fill:#000000;fill-opacity:0.2"
               height="1.00392"
               width="80"
               y="73.1922"
               x="122" /><rect
               id="rect3245"
               style="fill:#000000;fill-opacity:0.2"
               height="1.00392"
               width="80"
               y="122.384"
               x="122" /><rect
               id="rect3247"
               style="fill:#000000;fill-opacity:0.2"
               height="1.00392"
               width="80"
               y="83.2314"
               x="122" /><rect
               id="rect3249"
               style="fill:#000000;fill-opacity:0.2"
               height="1.00392"
               width="30"
               y="130.918"
               x="122" /></g><g
             id="Layer12"><path
               id="path3252"
               style="fill:#f9f9f9"
               d="m 176.5,101.569 c 0,-2.7726 -2.238,-5.02 -5,-5.02 l -90,0 c -2.7614,0 -5,2.2474 -5,5.02 l 0,105.411 c 0,2.773 2.2386,5.02 5,5.02 l 90,0 c 2.762,0 5,-2.247 5,-5.02 z"
               inkscape:connector-curvature="0" /><path
               id="path3254"
               style="fill:#000000;fill-opacity:0.2;fill-rule:nonzero"
               d="m 131.721,183.72 c 0.095,-0.753 0.952,-1.431 1.905,-1.431 l 5.523,0 c 1.047,0 1.809,-0.602 1.809,-1.431 l 0,-2.861 c 0,-0.828 -0.762,-1.43 -1.809,-1.43 l -4.286,0 c -0.952,0 -1.618,-0.603 -1.428,-1.356 l 0.476,-2.861 c 0.095,-0.753 0.952,-1.43 1.905,-1.43 l 5.333,0 c 1.047,0 1.809,-0.603 1.809,-1.431 l 0,-2.861 c 0,-0.828 -0.762,-1.431 -1.809,-1.431 l -4.286,0 c -0.952,0 -1.619,-0.602 -1.428,-1.355 l 1.809,-10.165 c 0.191,-0.753 -0.571,-1.43 -1.523,-1.43 l -3.619,0 c -1.143,0 -1.905,0.527 -2.095,1.43 l -1.809,10.09 c -0.191,0.753 -1.048,1.43 -2,1.43 l -3.333,0 c -0.952,0 -1.619,-0.602 -1.429,-1.355 l 1.905,-10.165 c 0.19,-0.753 -0.571,-1.43 -1.524,-1.43 l -3.618,0 c -1.143,0 -1.905,0.527 -2.095,1.43 l -1.714,10.09 c -0.191,0.753 -1.048,1.43 -2,1.43 l -5.333,0 c -1.048,0 -1.809,0.603 -1.809,1.431 l 0,2.861 c 0,0.828 0.761,1.431 1.809,1.431 l 4.285,0 c 0.857,0 1.524,0.602 1.429,1.43 l -0.476,2.786 c -0.191,0.753 -1.048,1.431 -2,1.431 l -5.333,0 c -1.048,0 -1.809,0.602 -1.809,1.43 l 0,2.861 c 0,0.829 0.761,1.431 1.809,1.431 l 4.285,0 c 0.857,0 1.524,0.602 1.429,1.431 l -2,10.917 c -0.191,0.753 0.571,1.431 1.523,1.431 l 3.619,0 c 1.143,0 1.905,-0.527 2.095,-1.431 l 1.905,-10.917 c 0.095,-0.753 0.952,-1.431 1.904,-1.431 l 3.428,0 c 0.858,0 1.524,0.602 1.429,1.431 l -1.905,10.917 c -0.19,0.753 0.572,1.431 1.524,1.431 l 3.619,0 c 1.142,0 1.904,-0.527 2.095,-1.431 z m -10.761,-7.153 c -0.952,0 -1.619,-0.603 -1.428,-1.356 l 0.476,-2.861 c 0.095,-0.753 0.952,-1.43 1.905,-1.43 l 3.332,0 c 0.858,0 1.524,0.602 1.429,1.43 l -0.476,2.786 c -0.191,0.753 -1.048,1.431 -2,1.431 z"
               inkscape:connector-curvature="0" /><rect
               id="rect3256"
               style="fill:#000000;fill-opacity:0.2"
               height="5.0196099"
               width="80"
               y="108.861"
               x="86.5" /><rect
               id="rect3258"
               style="fill:#000000;fill-opacity:0.2"
               height="1.00392"
               width="80"
               y="121.647"
               x="86.5" /><rect
               id="rect3260"
               style="fill:#000000;fill-opacity:0.2"
               height="1.00392"
               width="80"
               y="131.686"
               x="86.5" /><rect
               id="rect3262"
               style="fill:#000000;fill-opacity:0.2"
               height="1.00392"
               width="80"
               y="141.72501"
               x="86.5" /></g></g></g></g></g><g
     style="fill-rule:evenodd;stroke-linejoin:round;stroke-miterlimit:1.41420996"
     id="g3469"
     transform="matrix(0.33259608,0,0,0.39664193,241.53424,20.54015)"><g
       id="g3413"><g
         id="g3415"><path
           id="path3417"
           style="fill:#eeeeee;fill-rule:nonzero"
           d="m 7.29973e-6,232 0,149.75 C 7.29973e-6,395.972 0.0500073,396 19.25,396 l 345.5,0 c 19.2,0 19.25,-0.028 19.25,-14.25 L 384,232 z"
           inkscape:connector-curvature="0" /></g><g
         id="g3419"><path
           id="path3421"
           style="fill:#009bb2;fill-rule:nonzero"
           d="M 19.25,76 C 0.0391419,76 7.29973e-6,76.0276 7.29973e-6,90.25 l 0,21.75 L 384,112 384,90.25 C 384,76.0278 383.95,76 364.75,76 z"
           inkscape:connector-curvature="0" /></g><g
         id="g3423"><rect
           id="rect3425"
           style="fill:#00b1cc;fill-rule:nonzero"
           height="120"
           width="384"
           y="112"
           x="7.29973e-06" /></g><g
         id="g3427"><path
           id="path3429"
           style="fill:#91f775;fill-rule:nonzero"
           d="m 317.405,179.999 c -45.405,0 -45.405,0 -45.405,44.8 l 0,102.4 c 0,44.8 0,44.8 45.405,44.8 l 50.265,0.272 -0.271,63.729 57.294,-64 41.902,0 C 512,372 512,372 512,327.2 l 0,-102.4 C 512,180 512,180 466.595,180"
           inkscape:connector-curvature="0" /></g><g
         id="g3431"><path
           id="path3433"
           style="fill:#000000;fill-opacity:0.23137303;fill-rule:nonzero"
           d="m 328,219.999 128,0 c 16,0 16,0 16,8 0,8 0,8 -16,8 l -128,0 c -16,0 -16,0 -16,-8 0,-8 -0.842,-8 16,-8 z"
           inkscape:connector-curvature="0" /></g><g
         id="g3435"><path
           id="path3437"
           style="fill:#000000;fill-opacity:0.23137303;fill-rule:nonzero"
           d="m 328,267.999 128,0 c 16,0 16,0 16,8 0,8 0,8 -16,8 l -128,0 c -16,0 -16,0 -16,-8 0,-8 -0.842,-8 16,-8 z"
           inkscape:connector-curvature="0" /></g><g
         id="g3439"><path
           id="path3441"
           style="fill:#000000;fill-opacity:0.23137303;fill-rule:nonzero"
           d="m 328,315.999 128,0 c 16,0 16,0 16,8 0,8 0,8 -16,8 l -128,0 c -16,0 -16,0 -16,-8 0,-8 -0.842,-8 16,-8 z"
           inkscape:connector-curvature="0" /></g><g
         id="g3443"><path
           id="path3445"
           style="fill:#000000;fill-opacity:0.23137303;fill-rule:nonzero"
           d="m 56,267.999 128,0 c 16,0 16,0 16,8 0,8 0,8 -16,8 l -128,0 c -16,0 -16,0 -16,-8 0,-8 -0.8421,-8 16,-8 z"
           inkscape:connector-curvature="0" /></g><g
         id="g3447"><path
           id="path3449"
           style="fill:#000000;fill-opacity:0.23137303;fill-rule:nonzero"
           d="m 56,308 128,0 c 16,0 16,0 16,2 0,2 0,2 -16,2 l -128,0 c -16,0 -16,0 -16,-2 0,-2 -0.8421,-2 16,-2 z"
           inkscape:connector-curvature="0" /></g><g
         id="g3451"><path
           id="path3453"
           style="fill:#000000;fill-opacity:0.23137303;fill-rule:nonzero"
           d="m 56,340 128,0 c 16,0 16,0 16,2 0,2 0,2 -16,2 l -128,0 c -16,0 -16,0 -16,-2 0,-2 -0.8421,-2 16,-2 z"
           inkscape:connector-curvature="0" /></g><g
         id="g3455"><path
           id="path3457"
           style="fill:#ffffff;fill-opacity:0.23137303;fill-rule:nonzero"
           d="m 56,147.999 128,0 c 16,0 16,0 16,8 0,8 0,8 -16,8 l -128,0 c -16,0 -16,0 -16,-8 0,-8 -0.8421,-8 16,-8 z"
           inkscape:connector-curvature="0" /></g><g
         id="g3459"><path
           id="path3461"
           style="fill:#ffffff;fill-opacity:0.23137303;fill-rule:nonzero"
           d="m 56,188 128,0 c 16,0 16,0 16,2 0,2 0,2 -16,2 l -128,0 c -16,0 -16,0 -16,-2 0,-2 -0.8421,-2 16,-2 z"
           inkscape:connector-curvature="0" /></g></g></g><g
     style="fill-rule:evenodd;stroke-linejoin:round;stroke-miterlimit:1.41420996"
     id="g3578"
     transform="matrix(1.3064785,0,0,1.3494199,473.98935,21.754293)"><g
       id="g3498"><g
         id="g3500"
         transform="matrix(1.02575,0,0,0.961538,-5.74463,2.38462)"><rect
           id="rect3502"
           style="fill:#eeeeee"
           height="104"
           width="77.991402"
           y="10"
           x="9.5" /></g><g
         id="g3504"
         transform="matrix(1,0,0,1.33333,-5.99996,-4)"><rect
           id="rect3506"
           style="fill:#9e93ff"
           height="12"
           width="80"
           y="12"
           x="10" /></g><g
         id="g3508"
         transform="matrix(0.975,0,0,0.943182,-4.74996,5.36364)"><rect
           id="rect3510"
           style="fill:#f9f9f9"
           height="88"
           width="80"
           y="24"
           x="10" /></g><g
         id="g3512"
         transform="matrix(0.969697,0,0,2,-5.69693,-98)"><rect
           id="rect3514"
           style="fill:#eeeeee"
           height="0.5"
           width="82.5"
           y="97"
           x="10" /></g><g
         id="g3516"
         transform="matrix(1.24995,0,0,1,1.63327,-42)"><path
           id="path3518"
           style="fill:#000000;fill-opacity:0.10196102;fill-rule:nonzero"
           d="m 14,77 32,0 c 4,0 4,0 4,0.5 0,0.5 0,0.5 -4,0.5 L 14,78 C 10,78 10,78 10,77.5 10,77 9.789474,77 14,77 z"
           inkscape:connector-curvature="0" /></g><g
         id="g3520"
         transform="matrix(0.999956,0,0,1,4.13274,-41)"><path
           id="path3522"
           style="fill:#000000;fill-opacity:0.10196102;fill-rule:nonzero"
           d="m 14,85 32,0 c 4,0 4,0 4,0.5 0,0.5 0,0.5 -4,0.5 L 14,86 C 10,86 10,86 10,85.5 10,85 9.789474,85 14,85 z"
           inkscape:connector-curvature="0" /></g><g
         id="g3524"
         transform="matrix(1.14995,0,0,1,2.63306,-32)"><path
           id="path3526"
           style="fill:#000000;fill-opacity:0.10196102;fill-rule:nonzero"
           d="m 14,85 32,0 c 4,0 4,0 4,0.5 0,0.5 0,0.5 -4,0.5 L 14,86 C 10,86 10,86 10,85.5 10,85 9.789474,85 14,85 z"
           inkscape:connector-curvature="0" /></g><g
         id="g3528"
         transform="matrix(1.24071,0,0,1,1.59511,-23)"><path
           id="path3530"
           style="fill:#000000;fill-opacity:0.10196102;fill-rule:nonzero"
           d="m 14,85 32,0 c 4,0 4,0 4,0.5 0,0.5 0,0.5 -4,0.5 L 14,86 C 10,86 10,86 10,85.5 10,85 9.789474,85 14,85 z"
           inkscape:connector-curvature="0" /></g><g
         id="g3532"
         transform="matrix(1.24995,0,0,-1,1.76379,167)"><path
           id="path3534"
           style="fill:#000000;fill-opacity:0.10196102;fill-rule:nonzero"
           d="m 14,77 32,0 c 4,0 4,0 4,0.5 0,0.5 0,0.5 -4,0.5 L 14,78 C 10,78 10,78 10,77.5 10,77 9.789474,77 14,77 z"
           inkscape:connector-curvature="0" /></g><g
         id="g3536"
         transform="matrix(0.999956,0,0,-1,4.26324,166)"><path
           id="path3538"
           style="fill:#000000;fill-opacity:0.10196102;fill-rule:nonzero"
           d="m 14,85 32,0 c 4,0 4,0 4,0.5 0,0.5 0,0.5 -4,0.5 L 14,86 C 10,86 10,86 10,85.5 10,85 9.789474,85 14,85 z"
           inkscape:connector-curvature="0" /></g><g
         id="g3540"
         transform="matrix(1.14995,0,0,-1,2.76357,157)"><path
           id="path3542"
           style="fill:#000000;fill-opacity:0.10196102;fill-rule:nonzero"
           d="m 14,85 32,0 c 4,0 4,0 4,0.5 0,0.5 0,0.5 -4,0.5 L 14,86 C 10,86 10,86 10,85.5 10,85 9.789474,85 14,85 z"
           inkscape:connector-curvature="0" /></g><g
         id="g3544"
         transform="matrix(0.516739,0,0,0.505279,11.5487,7.50023)"><path
           id="path3546"
           style="fill:#ffe7ba;fill-rule:nonzero"
           d="m 121.066,27.707 c -5.75391,0 -11.4062,0.652344 -17.1875,2.00781 -46.1719,10.9375 -101.094,85.625 -30.6484,118.879 33.1484,15.6523 30.7812,86.8242 76.9531,75.8867 46.1719,-10.9375 73.1758,-63.3867 60.3906,-117.164 -11.1719,-47.0547 -49.2461,-79.5547 -89.5078,-79.6094 z m -14.242,14.8438 c 8.20312,0 14.8672,6.64062 14.8672,14.8438 0,8.17969 -6.66406,14.8438 -14.8672,14.8438 -8.20312,0 -14.8711,-6.66406 -14.8711,-14.8438 0,-8.20312 6.66797,-14.8438 14.8711,-14.8438 z m 44.61,4.9492 c 8.20312,0 14.8672,6.64062 14.8672,14.8438 0,8.17578 -6.66406,14.8164 -14.8672,14.8164 -8.23047,0 -14.8711,-6.64062 -14.8711,-14.8164 0,-8.20312 6.64062,-14.8438 14.8711,-14.8438 z M 72.1367,72.2383 c 8.20312,0 14.8672,6.64062 14.8672,14.8203 0,8.20312 -6.66406,14.8438 -14.8672,14.8438 -8.20312,0 -14.8711,-6.64062 -14.8711,-14.8438 0,-8.17969 6.66797,-14.8203 14.8711,-14.8203 z m 109.0083,9.8711 c 8.23047,0 14.8711,6.66797 14.8711,14.8438 0,8.20312 -6.64062,14.8438 -14.8711,14.8438 -8.20312,0 -14.8438,-6.64062 -14.8438,-14.8438 0,-8.17578 6.64062,-14.8438 14.8438,-14.8438 z M 99.8711,121.223 c 7.00391,-0.12891 14.1914,6.12109 16.875,15.3125 3.04688,10.4961 -0.80859,20.8867 -8.67188,23.1797 -7.89062,2.28906 -16.7734,-4.35156 -19.8203,-14.8438 -3.07031,-10.4688 0.78125,-20.8867 8.67188,-23.1797 0.964844,-0.28516 1.92969,-0.44141 2.94531,-0.46875 z m 86.2499,5.418 c 8.20312,0 14.8672,6.64062 14.8672,14.8438 0,8.20312 -6.66406,14.8438 -14.8672,14.8438 -8.23047,0 -14.8711,-6.64062 -14.8711,-14.8438 0,-8.20312 6.64062,-14.8438 14.8711,-14.8438 z m -19.82,39.582 c 8.20312,0 14.8438,6.64062 14.8438,14.8203 0,8.20312 -6.64062,14.8438 -14.8438,14.8438 -8.22656,0 -14.8672,-6.64062 -14.8672,-14.8438 0,-8.17969 6.64062,-14.8203 14.8672,-14.8203 z"
           inkscape:connector-curvature="0" /></g><g
         id="g3548"
         transform="matrix(1,0,0,0.936831,13.0746,9.80566)"><path
           id="path3550"
           style="fill:#ed9bff"
           d="m 35.75,36.5 c 4.55635,0 8.25,3.58172 8.25,8 0,4.41828 -3.69365,8 -8.25,8 -4.55635,0 -8.25,-3.58172 -8.25,-8 0,-4.41828 3.69365,-8 8.25,-8 z"
           inkscape:connector-curvature="0" /></g><g
         id="g3552"
         transform="matrix(1.09091,0,0,1.0625,28.5,-10.7812)"><path
           id="path3554"
           style="fill:#7cccff"
           d="m 35.75,36.5 c 4.55635,0 8.25,3.58172 8.25,8 0,4.41828 -3.69365,8 -8.25,8 -4.55635,0 -8.25,-3.58172 -8.25,-8 0,-4.41828 3.69365,-8 8.25,-8 z"
           inkscape:connector-curvature="0" /></g><g
         id="g3556"
         transform="matrix(1.03134,0,0,1,52.6209,-5.5)"><path
           id="path3558"
           style="fill:#13ffa6"
           d="m 35.75,36.5 c 4.55635,0 8.25,3.58172 8.25,8 0,4.41828 -3.69365,8 -8.25,8 -4.55635,0 -8.25,-3.58172 -8.25,-8 0,-4.41828 3.69365,-8 8.25,-8 z"
           inkscape:connector-curvature="0" /></g><g
         id="g3560"
         transform="matrix(1.08107,0,0,1.0625,65.7706,9.71875)"><path
           id="path3562"
           style="fill:#fff996"
           d="m 35.75,36.5 c 4.55635,0 8.25,3.58172 8.25,8 0,4.41828 -3.69365,8 -8.25,8 -4.55635,0 -8.25,-3.58172 -8.25,-8 0,-4.41828 3.69365,-8 8.25,-8 z"
           inkscape:connector-curvature="0" /></g><g
         id="g3564"
         transform="matrix(1.0303,0,0,1.0625,70.6667,31.7188)"><path
           id="path3566"
           style="fill:#ffb477"
           d="m 35.75,36.5 c 4.55635,0 8.25,3.58172 8.25,8 0,4.41828 -3.69365,8 -8.25,8 -4.55635,0 -8.25,-3.58172 -8.25,-8 0,-4.41828 3.69365,-8 8.25,-8 z"
           inkscape:connector-curvature="0" /></g><g
         id="g3568"
         transform="matrix(1.0303,0,0,1.12431,60.6495,49.4627)"><path
           id="path3570"
           style="fill:#ff8383"
           d="m 35.75,36.5 c 4.55635,0 8.25,3.58172 8.25,8 0,4.41828 -3.69365,8 -8.25,8 -4.55635,0 -8.25,-3.58172 -8.25,-8 0,-4.41828 3.69365,-8 8.25,-8 z"
           inkscape:connector-curvature="0" /></g></g></g></svg>