<?xml version="1.0" standalone="no"?><!DOCTYPE svg PUBLIC "-//W3C//DTD SVG 1.1//EN" "http://www.w3.org/Graphics/SVG/1.1/DTD/svg11.dtd"><svg width="512px" height="512px" version="1.1" xmlns="http://www.w3.org/2000/svg" xmlns:xlink="http://www.w3.org/1999/xlink" xml:space="preserve" style="fill-rule:evenodd;clip-rule:evenodd;stroke-linejoin:round;stroke-miterlimit:1.41421;"><g id="svg3766"><g id="g3790" transform="matrix(2.00101,-1.97215e-31,-1.97215e-31,2.00101,-512.437,-205.364)"><g transform="matrix(1.15315,-7.84559e-18,-7.84559e-18,1.18519,-12.8435,-16.869)"><path d="M268.25,139c15.3259,0 27.75,12.0883 27.75,27c0,14.9117 -12.4241,27 -27.75,27c-15.3259,0 -27.75,-12.0883 -27.75,-27c0,-14.9117 12.4241,-27 27.75,-27Z" style="fill:#ffb98a;"/></g><g transform="matrix(1,0,0,1,24.4898,7.87172)"><path d="M272,204l0,-64c17.6737,0.00053969 32,14.3272 32,32c0,17.6728 -14.3263,31.9995 -32,32Z" style="fill:#000;fill-opacity:0.0509804;"/></g><g transform="matrix(1,0,0,1,222.49,117.872)"><path d="M43,56l10.5,-3.5c14.3599,0.821344 22.6331,-3.88182 31,-8.5l3,-5l4,4.5l6.5,11.5l4,3l2,9l2,-5l-2.84217e-14,10.5l2.5,-5l1,9.5l4,-30.5c0.820132,-5.71046 -1.5132,-11.8771 -7,-18.5c-3.22489,-3.60233 -6.81926,-6.50388 -13,-4.5c-1.75399,-3.1873 -4.25399,-5.85397 -7.5,-8c-9.89075,-1.72703 -13.6344,-1.03622 -16.5,0c-9.53966,-4.46284 -33.706,18.2902 -31.5,22.5c-2.39547,1.77261 -3.72881,6.27261 -4,13.5l1.5,12l1.5,10l1.5,-5l3.5,9l1,-7.5l0,-14Z" style="fill:#555;"/></g></g><g id="g37901" transform="matrix(1.99865,9.86076e-32,1.97215e-31,1.99865,-329.455,-203.958)"><g transform="matrix(1.15315,-7.84559e-18,-7.84559e-18,1.18519,-12.8435,-16.869)"><path d="M268.25,139c15.3259,0 27.75,12.0883 27.75,27c0,14.9117 -12.4241,27 -27.75,27c-15.3259,0 -27.75,-12.0883 -27.75,-27c0,-14.9117 12.4241,-27 27.75,-27Z" style="fill:#ffdbac;"/></g><g transform="matrix(1,0,0,1,24.4898,7.87172)"><path d="M272,204l0,-64c17.6737,0.00053969 32,14.3272 32,32c0,17.6728 -14.3263,31.9995 -32,32Z" style="fill:#000;fill-opacity:0.0509804;"/></g><g transform="matrix(1,0,0,1,92.4898,112.872)"><path d="M204,45c-12.2593,10.8493 -22.3295,15.0251 -31.5,15.5c0.409804,-10.7404 -0.839674,-21.8597 11,-29.5c3.4677,-4.83964 12.5061,-5.81763 21,-1.5c14.4092,-8.02479 21.9978,-1.82157 26,6c9.51993,8.65472 7.27741,17.6145 5,25c-13.3164,-3.30555 -26.0827,-6.98769 -31.5,-15.5Z" style="fill:#555;"/></g><g transform="matrix(1,0,0,1,92.4898,112.872)"><path d="M172.5,60.5c-3.81776,-4.09466 -16.8216,8.75932 -15.5,29.5c10.1357,-10.6488 14.66,-19.155 15.5,-29.5Z" style="fill:#555;"/></g><g transform="matrix(1,0,0,1,92.4898,112.872)"><path d="M235.5,60.5c9.97095,-0.452883 16.178,11.5345 21,25.5c-12.7329,-7.46373 -22.5151,-15.9361 -21,-25.5Z" style="fill:#555;"/></g></g><g id="g37902" transform="matrix(2.00067,0,0,2.00067,-154.806,-206.896)"><g transform="matrix(1.15315,-7.84559e-18,-7.84559e-18,1.18519,-12.8435,-16.869)"><path d="M268.25,139c15.3259,0 27.75,12.0883 27.75,27c0,14.9117 -12.4241,27 -27.75,27c-15.3259,0 -27.75,-12.0883 -27.75,-27c0,-14.9117 12.4241,-27 27.75,-27Z" style="fill:#d9a989;"/></g><g transform="matrix(1,0,0,1,24.4898,7.87172)"><path d="M272,204l0,-64c17.6737,0.00053969 32,14.3272 32,32c0,17.6728 -14.3263,31.9995 -32,32Z" style="fill:#000;fill-opacity:0.0509804;"/></g><g transform="matrix(1,0,0,1,24.4898,7.87172)"><path d="M274.5,181.5c-4.62329,-2.06309 -9.95663,-2.22976 -16,-0.5c-0.218524,1.65209 -0.88519,2.31876 -2,2c-1.59041,0.784214 -3.25707,2.61755 -5,5.5c-1.16655,1.19484 -2.49989,1.52817 -4,1c-1.05369,1.47893 -1.55369,3.31227 -1.5,5.5c1.16728,2.72947 0.907881,5.17847 0,7.5c2.31509,-2.11467 3.81509,-2.28134 4.5,-0.5c0.30919,3.12495 1.35218,3.97497 2.5,4.5c2.21591,-4.57312 2.88258,-2.73979 2,5.5c2.82736,-3.60055 4.99403,-3.60055 6.5,0c3.18784,-1.97462 4.76844,-0.937902 4,4.5c0.84878,-2.15867 2.01545,-2.82534 3.5,-2c3.73704,-4.17069 8.40659,-0.799427 13.5,6c-0.370374,-5.08591 0.591354,-8.36403 3.5,-9c-0.179523,-2.67298 0.820477,-3.67298 3,-3c-0.678907,-4.24272 0.321093,-6.07605 3,-5.5c-1.15419,-2.50641 0.343599,-4.9792 2.5,-4.5c-0.545586,-1.15743 -0.7982,-2.42905 1,-4.5l-1,-4l-3.5,-3.5c-1.9637,-0.0561232 -3.59619,-0.905492 -4.5,-3.5c-3.48325,-1.78981 -7.48325,-2.28981 -12,-1.5Z" style="fill:#555;"/></g><g transform="matrix(1,0,0,1,24.4898,7.87172)"><path d="M306.5,157.5c0.984405,-8.93001 -0.593463,-13.277 -5,-17c-2.10554,-6.08234 -6.69509,-10.9295 -16.5,-11.5c-5.4453,-3.63848 -12.8792,-4.64946 -18.5,-1c-10.2717,-2.56047 -18.4388,5.62152 -19,9.5c-4.45904,1.93943 -6.95904,3.27276 -6.5,5c-2.68383,1.62377 -3.01716,3.37377 -3,5.25c-2.59388,3.51014 -0.943388,5.88751 -1,7.75c-0.538591,1.66296 -0.93057,3.9238 -1,7.5c-2.08396,3.02616 0.249376,4.35949 0,9c0.402315,3.85603 2.06898,6.68936 5,8.5c0.330787,-5.47189 1.37768,-9.17815 4,-9c0.87975,-4.00584 2.37975,-5.50584 4.5,-4.5c0.289393,-3.68392 9.44219,-13.2764 11,-7c0.183023,-2.33188 1.1877,-4.54575 4,-6.5l3,-1.5c3.40209,0.768703 6.72014,-0.0132311 10,-1.5l2,4c1.66996,-2.43985 2.83662,-1.43985 3.5,3c2.65323,-1.84287 3.98656,-1.6762 4,0.5c3.67793,-0.63069 4.30676,0.788252 4.5,2.5c4.98527,-1.18879 5.09162,1.14437 9,7.75c3.55718,-4.60153 0.159933,3.74631 3,9.25c-0.681132,2.62109 -2.16145,5.65569 1,8c1.3412,-3.70237 3.82329,-8.0222 4.5,-11.5c0.050698,-7.25155 -0.782635,-12.7516 -2.5,-16.5Z" style="fill:#555;"/></g></g><g id="g37903" transform="matrix(2.00069,0,0,2.00069,-244.796,-1.5511)"><g transform="matrix(1.15315,-7.84559e-18,-7.84559e-18,1.18519,-12.8435,-16.869)"><path d="M268.25,139c15.3259,0 27.75,12.0883 27.75,27c0,14.9117 -12.4241,27 -27.75,27c-15.3259,0 -27.75,-12.0883 -27.75,-27c0,-14.9117 12.4241,-27 27.75,-27Z" style="fill:#ffd2ac;"/></g><g transform="matrix(1,0,0,1,24.4898,7.87172)"><path d="M272,204l0,-64c17.6737,0.00053969 32,14.3272 32,32c0,17.6728 -14.3263,31.9995 -32,32Z" style="fill:#000;fill-opacity:0.0509804;"/></g><g transform="matrix(1,0,0,1,24.4898,7.87172)"><path d="M283,152c-9.46079,10.3443 -31.5766,1.63911 -36,13.5c-5.22061,3.27434 -6.54502,19.7922 -5.5,24.5c-4.87792,-5.22236 -6.54706,-18.7738 -3.5,-27c-4.5352,-25.5783 23.9422,-42.5748 36,-35c3.54131,-4.6643 18.454,1.72842 19.5,7.5c1.55579,-0.0716198 2.72246,0.261714 3.5,1c6.64383,-1.27571 11.6874,14.5531 10,30c-0.905264,3.17499 -0.905264,5.84165 0,8c3.60406,2.23713 5.85872,4.79555 7.5,7.5c1.06056,3.51208 1.34982,5.95075 1,7.5c0,0 0.723847,7.71214 -2,12.5c-2.72385,4.78786 -4,6.5 -4,6.5l-3.5,5c0.798063,-7.27341 0.381809,-12.2642 -1.5,-14.5c-2.2753,0.432591 -4.23491,1.62762 -5.5,4.5c-1.93112,-6.60615 -1.69892,-12.548 -1.5,-18.5c-0.315631,-2.47207 -1.07994,-4.10168 -2.5,-4.5c-1.99994,-3.32974 -1.89996,-5.03117 -1.5,-6.5c3.2471,-9.00945 4.39677,-15.2879 -4,-21c-1.30248,-0.337277 -2.13581,-1.17061 -2.5,-2.5c-2.09438,1.42912 -3.42771,1.92912 -4,1.5Z" style="fill:#555;"/></g></g><g id="g37904" transform="matrix(2.03614,0,0,2.03614,-430.727,-4.40145)"><g transform="matrix(1.15315,-7.84559e-18,-7.84559e-18,1.18519,-12.8435,-16.869)"><path d="M268.25,139c15.3259,0 27.75,12.0883 27.75,27c0,14.9117 -12.4241,27 -27.75,27c-15.3259,0 -27.75,-12.0883 -27.75,-27c0,-14.9117 12.4241,-27 27.75,-27Z" style="fill:#ffcab4;"/></g><g transform="matrix(1,0,0,1,24.4898,7.87172)"><path d="M272,204l0,-64c17.6737,0.00053969 32,14.3272 32,32c0,17.6728 -14.3263,31.9995 -32,32Z" style="fill:#000;fill-opacity:0.0509804;"/></g><g transform="matrix(1,0,0,1,234.49,7.87172)"><path d="M30.5,170.5c0.268165,-4.09634 1.35426,-6.59481 3,-8c1.21445,-1.25167 1.88112,-2.585 2,-4c5.18863,0.371056 7.77985,-0.944033 10,-2.5c1.66083,-2.89358 3.32879,-3.88019 5,-4c2.47167,1.70218 5.69012,2.50691 10,2c1.32046,-0.693688 2.48713,-0.360355 3.5,1c-0.20979,1.98787 0.20646,3.86536 2,5.5c-0.577705,-1.69567 -0.411039,-3.02901 0.5,-4c1.86619,-1.58933 2.05305,-2.3536 2,-3c2.18638,-0.769053 3.85305,-0.269053 5,1.5c1.48443,1.85072 3.65109,3.01739 6.5,3.5c-0.36867,-1.81093 0.464663,-1.64427 2.5,0.5c0.538378,-1.5424 1.34174,-2.68177 4,-1c2.11559,2.03189 2.25657,3.20999 1.5,4c2.89408,0.513356 4.06978,2.87468 5,5.5l1,5c2.35378,-3.92462 3.25664,-7.73767 3.5,-11.5c0.358349,-5.51602 -0.801457,-9.71021 -3,-13c-2.45784,-14.6938 -10.597,-19.3715 -21.5,-27c-2.31348,3.97308 -4.52247,4.39958 -6,0c-1.64941,2.61618 -4.47438,3.74758 -6.5,1c0.558451,1.48307 0.098307,1.60386 -2,3c-1.89224,0.536741 -3.82039,0.450123 -6,-4c-0.438265,6.60953 -1.7716,6.44286 -4,5.5c-0.742997,2.56747 -2.07633,2.90081 -4,1c0.538708,2.18102 0.0387079,3.01436 -1.5,2.5c-0.314098,2.46395 -1.3141,3.13062 -3,2c-1.00501,2.76988 -2.13595,4.78802 -7.5,3c0.851381,5.41148 0.0484597,6.52207 -2.5,6c-5.16668,12.485 -1.28295,26.6981 -2.84217e-14,33.5l0.5,-4Z" style="fill:#555;"/></g></g></g></svg>