<?xml version="1.0" standalone="no"?><!DOCTYPE svg PUBLIC "-//W3C//DTD SVG 1.1//EN" "http://www.w3.org/Graphics/SVG/1.1/DTD/svg11.dtd"><svg width="512px" height="512px" version="1.1" xmlns="http://www.w3.org/2000/svg" xmlns:xlink="http://www.w3.org/1999/xlink" xml:space="preserve" style="fill-rule:evenodd;clip-rule:evenodd;stroke-linejoin:round;stroke-miterlimit:1.41421;"><g><g transform="matrix(-0.939693,-0.34202,0.34202,-0.939693,391.737,602.244)"><g transform="matrix(1,0,0,1,0,40)"><path d="M65,400c-0.000421633,-13.8075 -11.1931,-25 -25,-25l-7.10543e-15,-25c13.8071,0 25,-11.1929 25,-25c0,-13.8071 -11.1929,-25 -25,-25l-7.10543e-15,-25c13.8071,0 25,-11.1929 25,-25c0,-13.8071 -11.1929,-25 -25,-25l-7.10543e-15,-25c13.8071,0 25,-11.1929 25,-25c0,-13.8071 -11.1929,-25 -25,-25l-7.10543e-15,-25c13.8071,0 25,-11.1929 25,-25l370,0c0.000421625,13.8073 11.1927,24.9996 25,25l0,25c-13.8075,0.000421633 -25,11.1931 -25,25c0,13.8069 11.1925,24.9996 25,25l0,25c-13.8075,0.000421633 -25,11.1931 -25,25c0,13.8069 11.1925,24.9996 25,25l0,25c-13.8075,0.000421633 -25,11.1931 -25,25c0,13.8069 11.1925,24.9996 25,25l0,25c-13.8073,0.000421625 -24.9996,11.1927 -25,25l-370,0Z" style="fill:#d24800;"/></g><g transform="matrix(1,0,0,1,0,40)"><path d="M100,140l300,-5.68434e-14l0,220l-300,1.7053e-13l0,-220ZM120,160l260,0l5.68434e-14,180l-260,0l1.13687e-13,-180Z" style="fill:#fff;fill-opacity:0.2;"/></g></g><g id="Layer1" transform="matrix(1,0,0,1,0,-10)"><g transform="matrix(1,0,0,1,0,60)"><path d="M65,400c-0.000421633,-13.8075 -11.1931,-25 -25,-25l-7.10543e-15,-25c13.8071,0 25,-11.1929 25,-25c0,-13.8071 -11.1929,-25 -25,-25l-7.10543e-15,-25c13.8071,0 25,-11.1929 25,-25c0,-13.8071 -11.1929,-25 -25,-25l-7.10543e-15,-25c13.8071,0 25,-11.1929 25,-25c0,-13.8071 -11.1929,-25 -25,-25l-7.10543e-15,-25c13.8071,0 25,-11.1929 25,-25l370,0c0.000421625,13.8073 11.1927,24.9996 25,25l0,25c-13.8075,0.000421633 -25,11.1931 -25,25c0,13.8069 11.1925,24.9996 25,25l0,25c-13.8075,0.000421633 -25,11.1931 -25,25c0,13.8069 11.1925,24.9996 25,25l0,25c-13.8075,0.000421633 -25,11.1931 -25,25c0,13.8069 11.1925,24.9996 25,25l0,25c-13.8073,0.000421625 -24.9996,11.1927 -25,25l-370,0Z" style="fill:#ffb92d;"/></g><g transform="matrix(1,0,0,1,0,60)"><path d="M100,140l300,-5.68434e-14l0,220l-300,1.7053e-13l0,-220ZM120,160l260,0l5.68434e-14,180l-260,0l1.13687e-13,-180Z" style="fill:#000;fill-opacity:0.2;"/></g></g></g></svg>