<?xml version="1.0" standalone="no"?><!DOCTYPE svg PUBLIC "-//W3C//DTD SVG 1.1//EN" "http://www.w3.org/Graphics/SVG/1.1/DTD/svg11.dtd"><svg width="640px" height="240px" version="1.1" xmlns="http://www.w3.org/2000/svg" xmlns:xlink="http://www.w3.org/1999/xlink" xml:space="preserve" style="fill-rule:evenodd;clip-rule:evenodd;stroke-linejoin:round;stroke-miterlimit:1.41421;"><g><g transform="matrix(1.12853,8.92022e-17,8.92022e-17,0.764331,-5.64263,28.8535)"><path d="M84.75,1.5c44.0447,0 79.75,52.7185 79.75,117.75c0,65.0315 -35.7053,117.75 -79.75,117.75c-44.0447,0 -79.75,-52.7185 -79.75,-117.75c0,-65.0315 35.7053,-117.75 79.75,-117.75Z" style="fill:#ffc490;"/></g><g transform="matrix(1,0,0,1,-90,-40)"><g transform="matrix(1,0,0,1,-13,-9)"><path d="M193,135.4c0,-17.894 -20.1472,-32.4 -45,-32.4c-24.8528,0 -45,14.506 -45,32.4c0,10.5676 7.1578,20.4712 19.1782,26.535l-5.67819,22.065l19.8403,-17.3065c3.8026,0.734475 7.72262,1.10648 11.6597,1.10648c24.8528,0 45,-14.506 45,-32.4Z" style="fill:#f6f6f6;"/></g><g transform="matrix(1.33333,2.28601e-16,2.28601e-16,0.4,-633.333,87.7)"><rect x="554.5" y="82" width="45" height="5" style="fill:#000;fill-opacity:0.101961;"/></g><g transform="matrix(0.888889,1.19743e-16,1.19743e-16,0.4,-386.889,97.7)"><rect x="554.5" y="82" width="45" height="5" style="fill:#000;fill-opacity:0.101961;"/></g></g><g transform="matrix(1,0,0,1,80,50)"><g transform="matrix(-1,0,0,1,193,-51)"><path d="M193,135.4c0,-17.894 -20.1472,-32.4 -45,-32.4c-24.8528,0 -45,14.506 -45,32.4c0,10.5676 7.1578,20.4712 19.1782,26.535l-5.67819,22.065l19.8403,-17.3065c3.8026,0.734475 7.72262,1.10648 11.6597,1.10648c24.8528,0 45,-14.506 45,-32.4Z" style="fill:#f6f6f6;"/></g><g transform="matrix(1.33333,2.28601e-16,2.28601e-16,0.4,-725.333,45.7)"><rect x="554.5" y="82" width="45" height="5" style="fill:#000;fill-opacity:0.101961;"/></g><g transform="matrix(1.11111,1.74172e-16,1.74172e-16,0.4,-602.111,55.7)"><rect x="554.5" y="82" width="45" height="5" style="fill:#000;fill-opacity:0.101961;"/></g></g><g transform="matrix(1.12853,8.92022e-17,8.92022e-17,0.764331,224.357,28.8535)"><path d="M84.75,1.5c44.0447,0 79.75,52.7185 79.75,117.75c0,65.0315 -35.7053,117.75 -79.75,117.75c-44.0447,0 -79.75,-52.7185 -79.75,-117.75c0,-65.0315 35.7053,-117.75 79.75,-117.75Z" style="fill:#ffa498;"/></g><g transform="matrix(1.12853,8.92022e-17,8.92022e-17,0.764331,454.357,17.8535)"><path d="M84.75,1.5c44.0447,0 79.75,52.7185 79.75,117.75c0,65.0315 -35.7053,117.75 -79.75,117.75c-44.0447,0 -79.75,-52.7185 -79.75,-117.75c0,-65.0315 35.7053,-117.75 79.75,-117.75Z" style="fill:#c7ffaa;"/></g><g transform="matrix(1.16959,4.75116e-17,4.75116e-17,0.97561,-1.24269,-7.17073)"><rect x="225.5" y="34" width="85.5" height="123" style="fill:#f0f0f0;"/></g><g transform="matrix(1,0,0,1,-45.5,-33)"><g transform="matrix(1.33333,2.28601e-16,2.28601e-16,0.4,-411.333,44.2)"><rect x="554.5" y="82" width="45" height="5" style="fill:#000;fill-opacity:0.101961;"/></g><g transform="matrix(1.33333,2.28601e-16,2.28601e-16,0.4,-411.333,54.2)"><rect x="554.5" y="82" width="45" height="5" style="fill:#000;fill-opacity:0.101961;"/></g><g transform="matrix(1.33333,2.28601e-16,2.28601e-16,0.4,-411.333,64.2)"><rect x="554.5" y="82" width="45" height="5" style="fill:#000;fill-opacity:0.101961;"/></g><g transform="matrix(1.33333,2.28601e-16,2.28601e-16,0.4,-411.333,74.2)"><rect x="554.5" y="82" width="45" height="5" style="fill:#000;fill-opacity:0.101961;"/></g><g transform="matrix(1.33333,2.28601e-16,2.28601e-16,0.4,-411.333,84.2)"><rect x="554.5" y="82" width="45" height="5" style="fill:#000;fill-opacity:0.101961;"/></g><g transform="matrix(1.33333,2.28601e-16,2.28601e-16,0.4,-411.333,94.2)"><rect x="554.5" y="82" width="45" height="5" style="fill:#000;fill-opacity:0.101961;"/></g></g><g transform="matrix(1,0,0,1,7,16)"><g transform="matrix(1.16959,4.75116e-17,4.75116e-17,0.97561,-41.2427,1.82927)"><rect x="225.5" y="34" width="85.5" height="123" style="fill:#f6f6f6;"/></g><g transform="matrix(1,0,0,1,-85.5,-8)"><g transform="matrix(1.33333,2.28601e-16,2.28601e-16,0.4,-411.333,44.2)"><rect x="554.5" y="82" width="45" height="5" style="fill:#000;fill-opacity:0.101961;"/></g><g transform="matrix(1.33333,2.28601e-16,2.28601e-16,0.4,-411.333,54.2)"><rect x="554.5" y="82" width="45" height="5" style="fill:#000;fill-opacity:0.101961;"/></g><g transform="matrix(1.33333,2.28601e-16,2.28601e-16,0.4,-411.333,64.2)"><rect x="554.5" y="82" width="45" height="5" style="fill:#000;fill-opacity:0.101961;"/></g><g transform="matrix(1.33333,2.28601e-16,2.28601e-16,0.4,-411.333,74.2)"><rect x="554.5" y="82" width="45" height="5" style="fill:#000;fill-opacity:0.101961;"/></g><g transform="matrix(1.33333,2.28601e-16,2.28601e-16,0.4,-411.333,84.2)"><rect x="554.5" y="82" width="45" height="5" style="fill:#000;fill-opacity:0.101961;"/></g><g transform="matrix(1.33333,2.28601e-16,2.28601e-16,0.4,-411.333,94.2)"><rect x="554.5" y="82" width="45" height="5" style="fill:#000;fill-opacity:0.101961;"/></g></g></g><g transform="matrix(1,0,0,1,-2,16)"><g transform="matrix(1.16959,4.75116e-17,4.75116e-17,0.97561,48.7573,16.8293)"><rect x="225.5" y="34" width="85.5" height="123" style="fill:#f9f9f9;"/></g><g transform="matrix(1,0,0,1,4.5,7)"><g transform="matrix(1.33333,2.28601e-16,2.28601e-16,0.4,-411.333,44.2)"><rect x="554.5" y="82" width="45" height="5" style="fill:#000;fill-opacity:0.101961;"/></g><g transform="matrix(1.33333,2.28601e-16,2.28601e-16,0.4,-411.333,54.2)"><rect x="554.5" y="82" width="45" height="5" style="fill:#000;fill-opacity:0.101961;"/></g><g transform="matrix(1.33333,2.28601e-16,2.28601e-16,0.4,-411.333,64.2)"><rect x="554.5" y="82" width="45" height="5" style="fill:#000;fill-opacity:0.101961;"/></g><g transform="matrix(1.33333,2.28601e-16,2.28601e-16,0.4,-411.333,74.2)"><rect x="554.5" y="82" width="45" height="5" style="fill:#000;fill-opacity:0.101961;"/></g><g transform="matrix(1.33333,2.28601e-16,2.28601e-16,0.4,-411.333,84.2)"><rect x="554.5" y="82" width="45" height="5" style="fill:#000;fill-opacity:0.101961;"/></g><g transform="matrix(1.33333,2.28601e-16,2.28601e-16,0.4,-411.333,94.2)"><rect x="554.5" y="82" width="45" height="5" style="fill:#000;fill-opacity:0.101961;"/></g></g></g><g transform="matrix(1,0,0,1,0,20)"><g transform="matrix(0.963855,-1.91155e-18,-1.91155e-18,0.97166,29.0361,-32.753)"><rect x="457.5" y="44" width="166" height="123.5" style="fill:#f0f0f0;"/></g><g transform="matrix(0.963855,-3.88154e-16,-9.86559e-17,0.647773,29.0361,-18.502)"><rect x="457.5" y="44" width="166" height="123.5" style="fill:#d196ff;"/></g><g transform="matrix(1.01266,3.10037e-18,3.10037e-18,1,3.51899,4)"><rect x="472.5" y="23" width="118.5" height="8" style="fill:#fff;fill-opacity:0.301961;"/></g><g transform="matrix(0.843882,8.42268e-17,8.42268e-17,0.5,83.2658,35.5)"><rect x="472.5" y="23" width="118.5" height="8" style="fill:#fff;fill-opacity:0.301961;"/></g><g transform="matrix(0.843882,8.42268e-17,8.42268e-17,0.5,83.2658,51.5)"><rect x="472.5" y="23" width="118.5" height="8" style="fill:#fff;fill-opacity:0.301961;"/></g></g><g transform="matrix(1,0,0,1,0,20)"><g transform="matrix(1,0,0,1,-10,0)"><g transform="matrix(1.00629,-2.87317e-17,-2.87317e-17,1.1236,-16.0314,-32.3933)"><rect x="561.5" y="76" width="79.5" height="89" style="fill:#f9f9f9;"/></g><g transform="matrix(1.00629,2.02438e-16,2.02438e-16,0.179775,-16.0314,39.3371)"><rect x="561.5" y="76" width="79.5" height="89" style="fill:#555;"/></g><g transform="matrix(1.00629,2.02438e-16,2.02438e-16,0.179775,-16.0314,123.337)"><rect x="561.5" y="76" width="79.5" height="89" style="fill:#f3f3f3;"/></g></g><g transform="matrix(1.33333,2.28601e-16,2.28601e-16,0.4,-191.333,44.2)"><rect x="554.5" y="82" width="45" height="5" style="fill:#000;fill-opacity:0.101961;"/></g><g transform="matrix(1.33333,2.28601e-16,2.28601e-16,0.4,-191.333,54.2)"><rect x="554.5" y="82" width="45" height="5" style="fill:#000;fill-opacity:0.101961;"/></g><g transform="matrix(1.33333,2.28601e-16,2.28601e-16,0.4,-191.333,64.2)"><rect x="554.5" y="82" width="45" height="5" style="fill:#000;fill-opacity:0.101961;"/></g><g transform="matrix(1.33333,2.28601e-16,2.28601e-16,0.4,-191.333,74.2)"><rect x="554.5" y="82" width="45" height="5" style="fill:#000;fill-opacity:0.101961;"/></g><g transform="matrix(1.33333,2.28601e-16,2.28601e-16,0.4,-191.333,84.2)"><rect x="554.5" y="82" width="45" height="5" style="fill:#000;fill-opacity:0.101961;"/></g><g transform="matrix(1.33333,2.28601e-16,2.28601e-16,0.4,-191.333,94.2)"><rect x="554.5" y="82" width="45" height="5" style="fill:#000;fill-opacity:0.101961;"/></g></g><g transform="matrix(1.41501,-1.41341,0.719556,0.72037,129.923,195.232)"><rect x="90" y="100.5" width="1.5" height="27.5" style="fill:#90afff;"/></g><g transform="matrix(1,0,0,1,222,38)"><g transform="matrix(1,0,0,1,-222,-38)"><path d="M312.5,99.7673c13.2548,0 24,10.7452 24,24c0,13.2548 -10.7452,24 -24,24c-13.2548,0 -24,-10.7452 -24,-24c0,-13.2548 10.7452,-24 24,-24ZM312.5,102.767c11.598,0 21,9.40204 21,21c0,11.598 -9.40201,21 -21,21c-11.598,0 -21,-9.40204 -21,-21c0,-11.598 9.40201,-21 21,-21Z" style="fill:#90afff;"/></g><g transform="matrix(0.777778,3.46365e-18,3.46365e-18,0.763636,28.6667,36.1309)"><path d="M79.5,37.5c14.9117,0 27,12.3122 27,27.5c0,15.1878 -12.0883,27.5 -27,27.5c-14.9117,0 -27,-12.3122 -27,-27.5c0,-15.1878 12.0883,-27.5 27,-27.5Z" style="fill:#fff;"/></g></g></g></svg>