<?xml version="1.0" encoding="UTF-8" standalone="no"?>
<!-- Created with Inkscape (http://www.inkscape.org/) -->

<svg
   xmlns:dc="http://purl.org/dc/elements/1.1/"
   xmlns:cc="http://creativecommons.org/ns#"
   xmlns:rdf="http://www.w3.org/1999/02/22-rdf-syntax-ns#"
   xmlns:svg="http://www.w3.org/2000/svg"
   xmlns="http://www.w3.org/2000/svg"
   xmlns:sodipodi="http://sodipodi.sourceforge.net/DTD/sodipodi-0.dtd"
   xmlns:inkscape="http://www.inkscape.org/namespaces/inkscape"
   width="628.28796"
   height="628.17877"
   id="svg4042"
   version="1.1"
   inkscape:version="0.48.4 r9939"
   sodipodi:docname="New document 13">
  <defs
     id="defs4044" />
  <sodipodi:namedview
     id="base"
     pagecolor="#ffffff"
     bordercolor="#666666"
     borderopacity="1.0"
     inkscape:pageopacity="0.0"
     inkscape:pageshadow="2"
     inkscape:zoom="0.35"
     inkscape:cx="326.28684"
     inkscape:cy="456.94653"
     inkscape:document-units="px"
     inkscape:current-layer="layer1"
     showgrid="false"
     fit-margin-top="0"
     fit-margin-left="0"
     fit-margin-right="0"
     fit-margin-bottom="0"
     inkscape:window-width="1920"
     inkscape:window-height="1055"
     inkscape:window-x="1920"
     inkscape:window-y="0"
     inkscape:window-maximized="1" />
  <metadata
     id="metadata4047">
    <rdf:RDF>
      <cc:Work
         rdf:about="">
        <dc:format>image/svg+xml</dc:format>
        <dc:type
           rdf:resource="http://purl.org/dc/dcmitype/StillImage" />
        <dc:title></dc:title>
      </cc:Work>
    </rdf:RDF>
  </metadata>
  <g
     inkscape:label="Layer 1"
     inkscape:groupmode="layer"
     id="layer1"
     transform="translate(-48.713164,-132.5585)">
    <path
       style="color:#000000;fill:#999999;fill-opacity:1;fill-rule:nonzero;stroke:none;stroke-width:0;marker:none;visibility:visible;display:inline;overflow:visible;enable-background:accumulate"
       d="m 322.6235,759.29281 c -3.99669,-0.60531 -7.26681,-1.98914 -7.26681,-3.07516 0,-12.93324 -8.78062,-62.58183 -11.9135,-67.36313 -4.86347,-7.4227 -52.64046,-28.08246 -64.94221,-28.08246 -10.41116,0 -15.12221,2.62891 -41.41081,23.10671 l -21.81671,16.99478 -13.19425,-11.047 c -7.25683,-6.07564 -22.10786,-20.6415 -33.00235,-32.36827 l -19.80829,-21.32172 6.115,-8.16144 c 3.36334,-4.48857 12.27623,-16.36494 19.80663,-26.39181 16.02431,-21.33653 17.24327,-29.86466 7.45234,-52.13576 -3.4316,-7.8056 -8.24958,-19.74417 -10.70657,-26.52963 -6.22263,-17.1853 -12.97153,-20.67479 -48.85907,-25.26141 -16.85465,-2.15423 -31.239378,-4.48395 -31.965953,-5.17713 -2.12995,-2.03146 -3.34355,-68.85562 -1.476625,-81.30517 l 1.706913,-11.38179 25.648785,-3.06175 c 46.70859,-5.5753 47.21043,-5.92327 61.98267,-42.97341 14.44447,-36.2284 14.28262,-37.22031 -11.64899,-71.3613 -8.49004,-11.17763 -15.43629,-22.22093 -15.43629,-24.54071 0,-5.41506 52.27347,-58.18135 60.06098,-60.62714 4.64392,-1.45851 10.2358,1.45064 26.42455,13.74689 11.29367,8.57831 23.13132,16.97442 26.30582,18.6579 8.82205,4.67864 19.9128,3.6865 35.52758,-3.17851 7.80582,-3.43147 19.7441,-8.24953 26.52962,-10.70642 6.78552,-2.45712 14.25117,-7.38824 16.59033,-10.95821 2.41574,-3.68672 6.00845,-19.87548 8.31634,-37.47256 2.23465,-17.03986 4.6145,-31.53311 5.28854,-32.20711 2.19636,-2.19631 63.84071,-3.51932 78.52101,-1.68509 l 14.29835,1.78637 3.30341,28.26211 c 4.31429,36.90794 7.36596,44.0074 21.72275,50.53506 54.89028,24.95736 56.25778,24.96014 89.3343,0.18729 13.5838,-10.17347 26.0252,-18.49721 27.64722,-18.49721 4.09473,0 37.16256,30.54536 52.48916,48.48557 l 12.68669,14.84979 -19.98698,25.95205 c -17.32301,22.49307 -19.98697,27.37795 -19.98697,36.65037 0,12.18156 19.75723,57.23243 28.60741,65.2311 3.88552,3.51168 14.12891,5.99193 36.61837,8.86686 17.17318,2.19492 31.66148,4.40234 32.19624,4.90476 2.17101,2.04048 3.57199,59.63315 1.84306,75.77659 l -1.85582,17.33072 -26.90438,3.12118 c -30.17393,3.5006 -42.25243,6.57622 -46.65366,11.87937 -6.80937,8.20467 -22.14615,48.59633 -23.17607,61.03708 -1.09893,13.2773 -0.93745,13.60609 19.24486,39.16021 l 20.35304,25.77054 -7.53188,8.40397 c -18.07381,20.16682 -40.08975,42.4326 -49.11768,49.67542 l -9.77022,7.83818 -25.496,-19.93051 c -30.41625,-23.77654 -36.97888,-24.94556 -66.31064,-11.80977 -9.97332,4.46616 -22.06365,9.82918 -26.86738,11.91776 -11.41463,4.9628 -14.99217,14.16307 -19.06822,49.03701 l -3.28639,28.11761 -9.55899,1.58105 c -10.36824,1.71515 -65.80382,1.53388 -77.60226,-0.25341 l 0,0 z M 406.23217,618.56675 C 531.83413,586.44335 581.99708,433.70658 499.68598,334.0175 442.88235,265.22107 341.45254,249.35509 266.19814,297.49477 c -31.9876,20.4623 -59.89173,56.48491 -72.61875,93.74661 -8.06071,23.5999 -9.9539,70.53679 -3.89013,96.44977 8.62395,36.85383 33.42926,75.84178 62.53627,98.29207 43.43793,33.50354 101.98028,45.8895 154.00664,32.58353 z"
       id="path4022"
       inkscape:connector-curvature="0" />
  </g>
</svg>
