<?xml version="1.0" encoding="UTF-8" standalone="no"?>
<!-- Generator: Adobe Illustrator 16.0.4, SVG Export Plug-In . SVG Version: 6.00 Build 0)  -->

<svg
   xmlns:dc="http://purl.org/dc/elements/1.1/"
   xmlns:cc="http://creativecommons.org/ns#"
   xmlns:rdf="http://www.w3.org/1999/02/22-rdf-syntax-ns#"
   xmlns:svg="http://www.w3.org/2000/svg"
   xmlns="http://www.w3.org/2000/svg"
   xmlns:sodipodi="http://sodipodi.sourceforge.net/DTD/sodipodi-0.dtd"
   xmlns:inkscape="http://www.inkscape.org/namespaces/inkscape"
   version="1.1"
   id="Layer_1"
   x="0px"
   y="0px"
   width="369.07779"
   height="53.502575"
   viewBox="0 0 369.07779 53.502577"
   enable-background="new 0 0 112 83.992"
   xml:space="preserve"
   inkscape:version="0.48.4 r9939"
   sodipodi:docname="handshake1.svg"
   inkscape:export-filename="/home/priyanka/Downloads/hiring.png"
   inkscape:export-xdpi="90"
   inkscape:export-ydpi="90"><metadata
     id="metadata9"><rdf:RDF><cc:Work
         rdf:about=""><dc:format>image/svg+xml</dc:format><dc:type
           rdf:resource="http://purl.org/dc/dcmitype/StillImage" /><dc:title></dc:title></cc:Work></rdf:RDF></metadata><defs
     id="defs7" /><sodipodi:namedview
     pagecolor="#ffffff"
     bordercolor="#666666"
     borderopacity="1"
     objecttolerance="10"
     gridtolerance="10"
     guidetolerance="10"
     inkscape:pageopacity="0"
     inkscape:pageshadow="2"
     inkscape:window-width="1920"
     inkscape:window-height="1056"
     id="namedview5"
     showgrid="false"
     fit-margin-top="0"
     fit-margin-left="0"
     fit-margin-right="0"
     fit-margin-bottom="0"
     inkscape:zoom="2.6071429"
     inkscape:cx="311.83561"
     inkscape:cy="-78.057435"
     inkscape:window-x="0"
     inkscape:window-y="24"
     inkscape:window-maximized="1"
     inkscape:current-layer="Layer_1"><inkscape:grid
       type="xygrid"
       id="grid2998"
       empspacing="5"
       visible="true"
       enabled="true"
       snapvisiblegridlinesonly="true"
       originx="255.83561px"
       originy="-120.05343px" /></sodipodi:namedview><path
     d="M 71.342458,6.6290724 V 29.036339 c 0,0 -4.62261,0.942103 -5.57363,1.067589 -0.95102,0.124212 -3.9302,1.119822 -6.09595,-1.031281 -3.33208,-3.317424 -15.18194,-15.538006 -15.18194,-15.538006 0,0 -2.04154,-2.07785 -5.32329,-0.279 -2.99638,1.641513 -7.44127,4.042315 -9.31975,4.990787 -0.66565,0.48411 -1.47335,0.770117 -2.34793,0.770117 -2.26576,0 -4.10155,-1.905863 -4.10155,-4.257617 0,-1.842801 1.13001,-3.407876 2.70974,-3.999637 4.27354,-2.6817116 13.17606,-7.8667796 16.89224,-9.91469065 2.26894,-1.248493 3.90281,-1.355507 7.01513,1.35869205 3.83529,3.34991 7.24444,6.396616 7.24444,6.396616 0,0 1.59629,0.763746 2.88619,0.576472 2.69763,-0.398116 11.1963,-2.547308 11.1963,-2.547308 z m -47.1459,37.9662936 c 0.57329,-1.527493 0.38092,-3.240986 -0.71916,-4.411767 -0.98924,-1.054849 -2.42819,-1.332575 -3.80535,-1.005164 0.3841,-1.412199 0.17262,-2.916124 -0.82299,-3.979891 -0.99306,-1.052301 -2.42819,-1.328753 -3.80472,-1.001342 0.38028,-1.412199 0.16944,-2.916123 -0.82362,-3.981165 -1.55743,-1.658712 -4.2512502,-1.586095 -6.0195202,0.16498 -1.75999,1.753623 -2.88937,4.924541 -1.31665,6.785815 1.57017,1.86 3.3677402,0.729986 4.7442702,0.404486 -0.38028,1.412199 -1.52685,2.728212 -0.11911,4.578021 1.40582,1.854904 3.36774,0.73126 4.74363,0.402575 -0.38346,1.410925 -1.48035,2.858157 -0.12103,4.577383 1.36698,1.717953 3.60853,0.802603 5.08507,0.327411 -0.57074,1.525583 -1.79185,3.162638 -0.22295,5.011809 1.56635,1.847897 5.19017,0.987329 6.96226,-0.763747 1.76828,-1.751075 1.9358,-4.524514 0.3841,-6.183226 -1.07013,-1.140205 -2.66961,-1.405192 -4.14423,-0.926178 z m 32.24297,-11.716089 c -12.72635,-13.200904 -6.73294,-6.985191 -13.60602,-14.127719 0,0 -2.07212,-2.140274 -4.79778,-0.89815 -1.91415,0.87076 -4.37865,2.056828 -6.23674,2.960712 -2.04218,1.105171 -3.82255,1.444685 -4.19455,1.444685 -3.93849,0 -7.13425,-3.311692 -7.13425,-7.395411 0,-2.648589 1.35615,-4.9551156 3.37667,-6.2634856 2.84159,-2.038993 9.38726,-5.65389 9.38726,-5.65389 0,0 -1.99122,-2.62183605 -6.36158,-2.62183605 -4.3659,0 -13.48627,6.20360905 -13.48627,6.20360905 0,0 -2.58872,1.721137 -6.2775002,0.172624 L -2.156781e-6,4.1320874 V 29.766325 c 0,0 2.028159956781,0.613418 3.852489956781,1.382897 0.41596,-1.216006 1.07332,-2.34602 2.00141,-3.272835 3.02569,-2.990651 8.0381302,-3.023137 10.7931002,-0.08345 0.82681,0.889232 1.40647,1.964465 1.70394,3.13652 1.11218,0.356712 2.1097,0.98287 2.92122,1.847897 0.82999,0.882863 1.4071,1.958733 1.70712,3.132699 1.11218,0.357986 2.10779,0.984144 2.92186,1.852356 0.9128,0.970767 1.51921,2.154925 1.80713,3.437178 1.15549,0.350979 2.20843,0.994973 3.05243,1.898856 1.64916,1.758719 2.24156,4.15124 1.8823,6.459041 0,0.0013 0,0.0013 0,0.0013 l 0,0 c 0,0.0013 0,0.0013 0,0.0025 0.003,0.0038 0.008,0.0064 0.0121,0.01147 0.0624,0.07198 1.03065,1.201994 1.6447,1.837706 1.22174,1.269514 3.20977,1.266329 4.43151,0 1.21856,-1.265055 1.22302,-3.329527 0,-4.598404 -0.0395,-0.04077 -0.0873,-0.07007 -0.12803,-0.108924 10e-4,-0.0096 0.006,-0.01911 0.008,-0.02803 -4.11811,-4.27163 -4.33214,-4.580568 -3.92447,-5.00289 0.40704,-0.422322 1.01026,0.508315 5.61758,5.292082 0.021,0.02102 0.0497,0.03886 0.0847,0.05351 0.0924,0.134404 0.18409,0.269445 0.30002,0.388561 1.21856,1.268877 3.20978,1.266329 4.43152,0 1.21919,-1.265691 1.22174,-3.329527 0,-4.599041 -0.065,-0.06688 -0.13759,-0.118479 -0.20575,-0.178356 -0.0599,-0.07262 -0.11975,-0.14587 -0.19237,-0.220397 -4.20411,-4.357623 -4.68185,-5.187616 -4.36081,-5.520123 0.36563,-0.380281 2.32373,1.849171 6.50682,6.186411 0.009,0 0.0172,-0.0025 0.0274,-0.0025 1.22556,1.158041 3.13015,1.129376 4.31558,-0.09873 1.14084,-1.183521 1.20199,-3.059445 0.20511,-4.335966 -0.0185,-0.08536 -0.051,-0.159246 -0.1051,-0.215301 -5.294,-5.497192 -5.06787,-5.579363 -4.74683,-5.91187 0.32105,-0.332507 0.34461,-0.355438 5.49656,4.988877 0.0191,0.02166 0.0325,0.04841 0.0535,0.07007 1.21919,1.268877 3.21104,1.266329 4.43278,0 1.21792,-1.265692 1.22174,-3.330164 0,-4.599678 -0.0357,-0.03312 -0.0739,-0.05733 -0.10765,-0.09045 z"
     id="path3"
     inkscape:connector-curvature="0" /><flowRoot
     xml:space="preserve"
     id="flowRoot2986"
     style="font-size:40px;font-style:normal;font-variant:normal;font-weight:bold;font-stretch:normal;text-align:start;line-height:1000%;letter-spacing:0px;word-spacing:0px;writing-mode:lr-tb;text-anchor:start;fill:#000000;fill-opacity:1;stroke:none;font-family:Sans;-inkscape-font-specification:Sans Bold"
     transform="translate(255.83562,89.564014)"><flowRegion
       id="flowRegion2988"><rect
         id="rect2990"
         width="101.64384"
         height="49.09589"
         x="-198.30138"
         y="-74.0354"
         style="font-size:40px;font-style:normal;font-variant:normal;font-weight:bold;font-stretch:normal;text-align:start;line-height:1000%;writing-mode:lr-tb;text-anchor:start;font-family:Sans;-inkscape-font-specification:Sans Bold" /></flowRegion><flowPara
       id="flowPara2992">We are hiring!fyjgh</flowPara></flowRoot><text
     xml:space="preserve"
     style="font-size:40px;font-style:normal;font-weight:normal;line-height:1000%;letter-spacing:0px;word-spacing:0px;fill:#000000;fill-opacity:1;stroke:none;font-family:Sans"
     x="80.835602"
     y="36.556007"
     id="text2994"
     sodipodi:linespacing="1000%"><tspan
       sodipodi:role="line"
       id="tspan2996"
       x="80.835602"
       y="36.556007"
       style="font-size:40px;font-style:normal;font-variant:normal;font-weight:800;font-stretch:normal;text-align:start;line-height:1000%;writing-mode:lr-tb;text-anchor:start;font-family:Open Sans;-inkscape-font-specification:Open Sans Ultra-Bold">We are hiring!</tspan></text>
</svg>