<?xml version="1.0" standalone="no"?><!DOCTYPE svg PUBLIC "-//W3C//DTD SVG 1.1//EN" "http://www.w3.org/Graphics/SVG/1.1/DTD/svg11.dtd"><svg width="512px" height="512px" version="1.1" xmlns="http://www.w3.org/2000/svg" xmlns:xlink="http://www.w3.org/1999/xlink" xml:space="preserve" style="fill-rule:evenodd;clip-rule:evenodd;stroke-linejoin:round;stroke-miterlimit:1.41421;"><g><g id="0" transform="matrix(-4,0,0,4,373,-3773.45)"><path d="M76.5,962.362c14,0 14,0 14,14l0,32c0,14 0,14 -14,14l-11,-2.27374e-13l0,20l-18,-20l-17,2.27374e-13c-14,0 -14,0 -14,-14l0,-32c0,-14 0,-14 14,-14" style="fill:#89afff;fill-rule:nonzero;"/></g><g transform="matrix(0.970059,-9.37733e-17,-9.37733e-17,1.35292,11.1976,-22.3501)"><rect x="40" y="120" width="226.79" height="5.91315" style="fill:#000;fill-opacity:0.2;"/></g><g transform="matrix(0.970059,-9.37733e-17,-9.37733e-17,1.35292,11.1976,27.6499)"><rect x="40" y="120" width="226.79" height="5.91315" style="fill:#000;fill-opacity:0.2;"/></g><g transform="matrix(0.529123,-2.01771e-16,-2.01771e-16,1.35292,28.8351,77.6499)"><rect x="40" y="120" width="226.79" height="5.91315" style="fill:#000;fill-opacity:0.2;"/></g><g id="01" transform="matrix(4,0,0,4,140,-3733.45)"><path d="M76.5,962.362c14,0 14,0 14,14l0,32c0,14 0,14 -14,14l-11,-6.82121e-13l0,20l-18,-20l-17,6.82121e-13c-14,0 -14,0 -14,-14l0,-32c0,-14 0,-14 14,-14" style="fill:#00c259;fill-rule:nonzero;"/></g><g transform="matrix(1,0,0,1,-61.1053,101.029)"><path d="M439.703,171.504c0.266667,-2.66667 2.66667,-5.06667 5.33333,-5.06667l15.4667,0c2.93333,0 5.06667,-2.13333 5.06667,-5.06667l0,-10.1333c0,-2.93333 -2.13333,-5.06667 -5.06667,-5.06667l-12,0c-2.66667,0 -4.53333,-2.13333 -4,-4.8l1.33333,-10.1333c0.266667,-2.66667 2.66667,-5.06667 5.33333,-5.06667l14.9333,0c2.93333,0 5.06667,-2.13333 5.06667,-5.06667l0,-10.1333c0,-2.93333 -2.13333,-5.06667 -5.06667,-5.06667l-12,0c-2.66667,0 -4.53333,-2.13333 -4,-4.8l5.06667,-36c0.533333,-2.66667 -1.6,-5.06667 -4.26667,-5.06667l-10.1333,0c-3.2,0 -5.33333,1.86667 -5.86667,5.06667l-5.06667,35.7333c-0.533333,2.66667 -2.93333,5.06667 -5.6,5.06667l-9.33333,0c-2.66667,0 -4.53333,-2.13333 -4,-4.8l5.33333,-36c0.533333,-2.66667 -1.6,-5.06667 -4.26667,-5.06667l-10.1333,0c-3.2,0 -5.33333,1.86667 -5.86667,5.06667l-4.8,35.7333c-0.533333,2.66667 -2.93333,5.06667 -5.6,5.06667l-14.9333,0c-2.93333,0 -5.06667,2.13333 -5.06667,5.06667l0,10.1333c0,2.93333 2.13333,5.06667 5.06667,5.06667l12,0c2.4,0 4.26667,2.13333 4,5.06667l-1.33333,9.86667c-0.533333,2.66667 -2.93333,5.06667 -5.6,5.06667l-14.9333,0c-2.93333,0 -5.06667,2.13333 -5.06667,5.06667l0,10.1333c0,2.93333 2.13333,5.06667 5.06667,5.06667l12,0c2.4,0 4.26667,2.13333 4,5.06667l-5.6,38.6667c-0.533333,2.66667 1.6,5.06667 4.26667,5.06667l10.1333,0c3.2,0 5.33333,-1.86667 5.86667,-5.06667l5.33333,-38.6667c0.266667,-2.66667 2.66667,-5.06667 5.33333,-5.06667l9.6,0c2.4,0 4.26667,2.13333 4,5.06667l-5.33333,38.6667c-0.533333,2.66667 1.6,5.06667 4.26667,5.06667l10.1333,0c3.2,0 5.33333,-1.86667 5.86667,-5.06667l5.06667,-38.6667ZM409.569,146.171c-2.66667,0 -4.53333,-2.13333 -4,-4.8l1.33333,-10.1333c0.266667,-2.66667 2.66667,-5.06667 5.33333,-5.06667l9.33333,0c2.4,0 4.26667,2.13333 4,5.06667l-1.33333,9.86667c-0.533333,2.66667 -2.93333,5.06667 -5.6,5.06667l-9.06667,0Z" style="fill:#000;fill-opacity:0.501961;fill-rule:nonzero;"/></g></g></svg>