<?xml version="1.0" standalone="no"?>
<!DOCTYPE svg PUBLIC "-//W3C//DTD SVG 1.1//EN" "http://www.w3.org/Graphics/SVG/1.1/DTD/svg11.dtd">
<svg width="512px" height="512px" version="1.1" xmlns="http://www.w3.org/2000/svg" xmlns:xlink="http://www.w3.org/1999/xlink" xml:space="preserve" style="fill-rule:evenodd;clip-rule:evenodd;stroke-linejoin:round;stroke-miterlimit:1.41421;">
    <g>
        <g id="0">
            <path d="M272,76C216,76 216,76 216,132L216,260C216,316 216,316 272,316L336,316L336,396L408,316L456,316C512,316 512,316 512,260L512,132C512,76 512,76 456,76" style="fill:rgb(249,110,102);fill-rule:nonzero;"/>
        </g>
        <g id="01">
            <path d="M240,116C296,116 296,116 296,172L296,300C296,356 296,356 240,356L176,356L176,436L104,356L56,356C0,356 0,356 0,300L0,172C0,116 0,116 56,116" style="fill:rgb(100,216,190);fill-rule:nonzero;"/>
        </g>
        <g>
            <path d="M112,180L112,200L100,200C92,200 92,199.876 92,207.845C92,216 91.875,216 100,216L112,216L112,260L100,260C92,260 92,260 92,268C92,276 92,276 100,276L112,276L112,304C112,312 112,312 120,312C128,312 128,312 128,304L128,276L172,276L172,304C172,312 171.97,312 180,312C188,312 188,311.839 188,304L188,276L200,276C208,276 208,276 208,268C208,260 208,260 200,260L188,260L188,216L200,216C208,216 208,215.933 208,207.845C208,200 207.933,200 200,200L188,200L188,180C188,172 188.131,172 180,172C172.131,172 172,172 172,180L172,200L128,200L128,180C128,172 128.03,172 120,172C112,172 112,171.97 112,180ZM128,216L172,216L172,260L128,260Z" style="fill:white;fill-rule:nonzero;"/>
        </g>
    </g>
</svg>
