<?xml version="1.0" standalone="no"?>
<!DOCTYPE svg PUBLIC "-//W3C//DTD SVG 1.1//EN" "http://www.w3.org/Graphics/SVG/1.1/DTD/svg11.dtd">
<svg width="256px" height="256px" version="1.1" xmlns="http://www.w3.org/2000/svg" xmlns:xlink="http://www.w3.org/1999/xlink" xml:space="preserve" style="fill-rule:evenodd;clip-rule:evenodd;stroke-linejoin:round;stroke-miterlimit:1.41421;">
    <g>
        <g id="Layer1">
            <path d="M138,115.2C138,86.923 109.346,64 74,64C38.6538,64 10,86.923 10,115.2C10,131.899 20.18,147.549 37.2756,157.132L29.2,192L57.4175,164.651C62.8255,165.812 68.4005,166.4 74,166.4C109.346,166.4 138,143.477 138,115.2Z" style="fill:rgb(255,181,104);"/>
            <path d="M182,91.385C195.474,69.385 222.421,69.385 235.895,80.385C249.369,91.385 249.369,113.385 235.895,135.385C226.463,151.885 202.21,168.385 182,179.385C161.79,168.385 137.537,151.885 128.106,135.385C114.632,113.385 114.632,91.385 128.106,80.385C141.579,69.385 168.526,69.385 182,91.385Z" style="fill:rgb(255,86,94);"/>
            <path d="M100.096,108.355L86.7115,110.534C85.737,112.957 84.9425,115.691 84.327,118.735C85.814,118.459 87.25,118.129 88.6345,117.749C90.019,117.368 91.327,116.901 92.5575,116.347L98.096,123.406C95.5835,123.96 93.0705,124.41 90.5575,124.756C88.045,125.102 85.532,125.344 83.019,125.483C82.6605,128.735 82.481,131.417 82.481,133.528C82.481,135.638 82.5575,137.697 82.7115,139.704L74.9425,142.403C74.9425,136.313 75.2755,131.054 75.9425,126.624C74.3015,126.624 72.519,126.677 70.596,126.78C68.673,126.884 66.609,127.005 64.404,127.144C62.1475,133.095 60.455,137.143 59.327,139.289C58.1985,141.434 57.1985,142.507 56.327,142.507C55.455,142.507 54.737,141.711 54.173,140.119C53.609,138.528 53.327,136.486 53.327,133.994C53.327,132.542 54.378,130.396 56.481,127.558C54.8395,127.558 53.4165,127.524 52.2115,127.455C51.0065,127.385 49.9936,127.282 49.1731,127.144L45.3269,120.603C47.7884,120.95 50.2245,121.174 52.6345,121.278C55.045,121.382 57.5065,121.4 60.019,121.331C61.3525,118.493 62.2755,115.448 62.7885,112.195C60.2755,112.195 58.1475,112.195 56.404,112.195C54.6605,112.195 53.3015,112.161 52.327,112.091L49.4808,104.722C52.1475,105.067 54.6475,105.344 56.981,105.552C59.314,105.76 61.5065,105.864 63.5575,105.864C63.763,104.272 63.891,102.507 63.9425,100.569C63.9935,98.6315 63.9935,96.4515 63.9425,94.0295L72.096,91.642C71.891,94.064 71.6475,96.4515 71.3655,98.8045C71.0835,101.157 70.737,103.51 70.327,105.864C72.481,105.864 74.4935,105.777 76.3655,105.604C78.237,105.431 79.9935,105.171 81.6345,104.825C82.5065,101.918 83.237,99.583 83.827,97.8185C84.4165,96.0535 84.8395,94.7905 85.096,94.0295L95.096,91.642C93.9165,93.9255 92.878,96.019 91.981,97.922C91.0835,99.825 90.3015,101.573 89.6345,103.165L94.5575,101.4ZM79.9425,111.365C77.481,111.642 75.3655,111.832 73.596,111.936C71.827,112.04 70.3525,112.091 69.173,112.091C68.763,113.96 67.9165,116.936 66.6345,121.019C71.096,120.742 74.5835,120.43 77.096,120.085Z" style="fill:black;fill-opacity:0.501961;fill-rule:nonzero;"/>
        </g>
    </g>
</svg>
