<?xml version="1.0" standalone="no"?>
<!DOCTYPE svg PUBLIC "-//W3C//DTD SVG 1.1//EN" "http://www.w3.org/Graphics/SVG/1.1/DTD/svg11.dtd">
<svg width="512px" height="512px" version="1.1" xmlns="http://www.w3.org/2000/svg" xmlns:xlink="http://www.w3.org/1999/xlink" xml:space="preserve" style="fill-rule:evenodd;clip-rule:evenodd;stroke-linejoin:round;stroke-miterlimit:1.41421;">
    <g>
        <g id="Layer1">
            <path d="M276,230.4C276,173.846 218.692,128 148,128C77.3076,128 20,173.846 20,230.4C20,263.799 40.36,295.099 74.5513,314.264L58.4,384L114.835,329.303C125.651,331.624 136.801,332.8 148,332.8C218.692,332.8 276,286.954 276,230.4Z" style="fill:rgb(128,255,98);"/>
            <path d="M364,182.77C390.947,138.77 444.842,138.77 471.79,160.77C498.738,182.77 498.738,226.77 471.79,270.77C452.926,303.77 404.421,336.77 364,358.77C323.579,336.77 275.074,303.77 256.211,270.77C229.263,226.77 229.263,182.77 256.211,160.77C283.158,138.77 337.053,138.77 364,182.77Z" style="fill:rgb(255,86,94);"/>
            <g>
                <path d="M200.192,216.709L173.423,221.069C171.474,225.913 169.885,231.381 168.654,237.47C171.628,236.917 174.5,236.259 177.269,235.498C180.038,234.737 182.654,233.803 185.115,232.695L196.192,246.813C191.167,247.92 186.141,248.82 181.115,249.512C176.09,250.204 171.064,250.688 166.038,250.965C165.321,257.47 164.962,262.834 164.962,267.055C164.962,271.277 165.115,275.394 165.423,279.408L149.885,284.806C149.885,272.626 150.551,262.107 151.885,253.249C148.603,253.249 145.038,253.353 141.192,253.56C137.346,253.768 133.218,254.01 128.808,254.287C124.295,266.19 120.91,274.287 118.654,278.578C116.397,282.868 114.397,285.014 112.654,285.014C110.91,285.014 109.474,283.422 108.346,280.239C107.218,277.055 106.654,272.972 106.654,267.989C106.654,265.083 108.756,260.792 112.962,255.117C109.679,255.117 106.833,255.048 104.423,254.91C102.013,254.771 99.9872,254.564 98.3462,254.287L90.6538,241.207C95.5769,241.9 100.449,242.349 105.269,242.557C110.09,242.765 115.013,242.799 120.038,242.661C122.705,236.986 124.551,230.896 125.577,224.391C120.551,224.391 116.295,224.391 112.808,224.391C109.321,224.391 106.603,224.322 104.654,224.183L98.9615,209.443C104.295,210.135 109.295,210.689 113.962,211.104C118.628,211.519 123.013,211.727 127.115,211.727C127.526,208.543 127.782,205.014 127.885,201.138C127.987,197.263 127.987,192.903 127.885,188.059L144.192,183.284C143.782,188.128 143.295,192.903 142.731,197.609C142.167,202.315 141.474,207.021 140.654,211.727C144.962,211.727 148.987,211.554 152.731,211.208C156.474,210.862 159.987,210.342 163.269,209.65C165.013,203.837 166.474,199.166 167.654,195.637C168.833,192.107 169.679,189.581 170.192,188.059L190.192,183.284C187.833,187.851 185.756,192.038 183.962,195.844C182.167,199.65 180.603,203.145 179.269,206.329L189.115,202.799L200.192,216.709ZM159.885,222.73C154.962,223.284 150.731,223.664 147.192,223.872C143.654,224.079 140.705,224.183 138.346,224.183C137.526,227.92 135.833,233.872 133.269,242.038C142.192,241.484 149.167,240.861 154.192,240.169L159.885,222.73Z" style="fill:black;fill-opacity:0.501961;fill-rule:nonzero;"/>
            </g>
        </g>
    </g>
</svg>
