<?xml version="1.0" standalone="no"?>
<!DOCTYPE svg PUBLIC "-//W3C//DTD SVG 1.1//EN" "http://www.w3.org/Graphics/SVG/1.1/DTD/svg11.dtd">
<svg width="256px" height="256px" version="1.1" xmlns="http://www.w3.org/2000/svg" xmlns:xlink="http://www.w3.org/1999/xlink" xml:space="preserve" style="fill-rule:evenodd;clip-rule:evenodd;stroke-linejoin:round;stroke-miterlimit:1.41421;">
    <g>
        <g id="Layer1">
            <g>
                <path d="M64,20C99.346,20 128,48.6538 128,84C128,119.346 99.346,148 64,148C28.6538,148 3.73314e-15,119.346 2.40494e-15,84C1.07672e-15,48.6538 28.6538,20 64,20Z" style="fill:rgb(128,193,255);"/>
            </g>
            <g>
                <path d="M192,108C227.346,108 256,136.654 256,172C256,207.346 227.346,236 192,236C156.654,236 128,207.346 128,172C128,136.654 156.654,108 192,108Z" style="fill:rgb(64,255,166);"/>
            </g>
            <g>
                <path d="M181.382,61.1248C178.621,61.1899 176.436,63.4805 176.501,66.2412L177.444,106.23C177.509,108.991 179.8,111.176 182.561,111.111L192.558,110.875C195.318,110.81 197.504,108.52 197.439,105.759L196.496,65.7699C196.431,63.0092 194.14,60.824 191.379,60.8891ZM183.999,66.0645C182.619,66.097 181.526,67.2426 181.559,68.6227L182.384,103.613C182.416,104.993 183.562,106.086 184.942,106.053L189.941,105.936C191.321,105.903 192.414,104.757 192.381,103.377L191.556,68.387C191.524,67.0069 190.378,65.9141 188.998,65.9466Z" style="fill:rgb(255,167,127);"/>
            </g>
            <g>
                <path d="M160.651,28.3389C159.27,25.9474 156.212,25.128 153.821,26.5088L119.179,46.5088C116.788,47.8895 115.969,50.9474 117.349,53.3389L122.349,61.9991C123.73,64.3907 126.788,65.21 129.179,63.8293L163.821,43.8293C166.212,42.4485 167.031,39.3907 165.651,36.9991ZM157.571,33.0039C156.88,31.8084 155.351,31.3986 154.155,32.0889L123.845,49.5889C122.649,50.2791 122.239,51.8084 122.929,53.0039L125.429,57.3341C126.12,58.5296 127.649,58.9394 128.845,58.2491L159.155,40.7491C160.351,40.0589 160.761,38.5296 160.071,37.3341Z" style="fill:rgb(255,167,127);"/>
            </g>
            <g>
                <path d="M188.635,68.0892C189.613,67.1102 189.613,65.5232 188.635,64.5442L156.824,32.7342C155.845,31.7552 154.258,31.7552 153.279,32.7342L149.734,36.2792C148.755,37.2582 148.755,38.8452 149.734,39.8242L181.544,71.6342C182.523,72.6132 184.111,72.6132 185.09,71.6342Z" style="fill:rgb(255,226,95);"/>
            </g>
            <g>
                <path d="M68.2,94.75L53.7,94.75L49.8,111.45L42.9,111.45L46.8,94.75L37,94.75L38.4,88.35L48.3,88.35L51.4,75.25L42,75.25L43.4,68.85L52.9,68.85L56.7,53.05L63.6,53.05L59.8,68.85L74.3,68.85L78.1,53.05L85,53.05L81.2,68.85L90.9,68.85L89.3,75.25L79.7,75.25L76.6,88.35L85.9,88.35L84.3,94.75L75.1,94.75L71.2,111.45L64.3,111.45ZM55.2,88.35L69.7,88.35L72.8,75.25L58.3,75.25Z" style="fill:black;fill-opacity:0.501961;fill-rule:nonzero;"/>
            </g>
            <g id="0">
                <path d="M192,142L172,162L183.329,162L192,153.267L200.671,162L212,162Z" style="fill:black;fill-opacity:0.501961;fill-rule:nonzero;"/>
            </g>
            <g>
                <rect x="172" y="166" width="40" height="8" style="fill:black;fill-opacity:0.501961;"/>
            </g>
            <g id="1">
                <path d="M192,198L172,178L183.329,178L192,186.733L200.671,178L212,178Z" style="fill:black;fill-opacity:0.501961;fill-rule:nonzero;"/>
            </g>
        </g>
    </g>
</svg>
