<?xml version="1.0" standalone="no"?>
<!DOCTYPE svg PUBLIC "-//W3C//DTD SVG 1.1//EN" "http://www.w3.org/Graphics/SVG/1.1/DTD/svg11.dtd">
<svg width="256px" height="256px" version="1.1" xmlns="http://www.w3.org/2000/svg" xmlns:xlink="http://www.w3.org/1999/xlink" xml:space="preserve" style="fill-rule:evenodd;clip-rule:evenodd;stroke-linejoin:round;stroke-miterlimit:1.41421;">
    <g>
        <g>
            <g>
                <g id="Layer1">
                    <path d="M134,59.0196C134,56.2474 131.762,54 129,54L39,54C36.2386,54 34,56.2474 34,59.0196L34,164.431C34,167.204 36.2386,169.451 39,169.451L129,169.451C131.762,169.451 134,167.204 134,164.431Z" style="fill:rgb(238,238,238);"/>
                    <rect x="44" y="66.3119" width="80" height="5.01961" style="fill:black;fill-opacity:0.2;"/>
                    <rect x="44" y="118" width="80" height="1.00392" style="fill:black;fill-opacity:0.2;"/>
                    <rect x="44" y="79.098" width="80" height="1.00392" style="fill:black;fill-opacity:0.2;"/>
                    <rect x="44" y="128.039" width="80" height="1.00392" style="fill:black;fill-opacity:0.2;"/>
                    <rect x="44" y="89.1373" width="80" height="1.00392" style="fill:black;fill-opacity:0.2;"/>
                    <rect x="44" y="138.078" width="80" height="1.00392" style="fill:black;fill-opacity:0.2;"/>
                    <rect x="44" y="99.1765" width="80" height="1.00392" style="fill:black;fill-opacity:0.2;"/>
                    <rect x="44" y="148.118" width="80" height="1.00392" style="fill:black;fill-opacity:0.2;"/>
                    <rect x="44" y="109.216" width="80" height="1.00392" style="fill:black;fill-opacity:0.2;"/>
                    <rect x="44" y="158.157" width="30" height="1.00392" style="fill:black;fill-opacity:0.2;"/>
                </g>
                <g id="Layer11">
                    <path d="M212,33.0353C212,30.263 209.762,28.0157 207,28.0157L117,28.0157C114.239,28.0157 112,30.263 112,33.0353L112,138.447C112,141.219 114.239,143.467 117,143.467L207,143.467C209.762,143.467 212,141.219 212,138.447Z" style="fill:rgb(246,246,246);"/>
                    <rect x="122" y="40.3276" width="80" height="5.01961" style="fill:black;fill-opacity:0.2;"/>
                    <rect x="122" y="92.2667" width="80" height="1.00392" style="fill:black;fill-opacity:0.2;"/>
                    <rect x="122" y="53.1137" width="80" height="1.00392" style="fill:black;fill-opacity:0.2;"/>
                    <rect x="122" y="102.306" width="80" height="1.00392" style="fill:black;fill-opacity:0.2;"/>
                    <rect x="122" y="63.1529" width="80" height="1.00392" style="fill:black;fill-opacity:0.2;"/>
                    <rect x="122" y="112.345" width="80" height="1.00392" style="fill:black;fill-opacity:0.2;"/>
                    <rect x="122" y="73.1922" width="80" height="1.00392" style="fill:black;fill-opacity:0.2;"/>
                    <rect x="122" y="122.384" width="80" height="1.00392" style="fill:black;fill-opacity:0.2;"/>
                    <rect x="122" y="83.2314" width="80" height="1.00392" style="fill:black;fill-opacity:0.2;"/>
                    <rect x="122" y="130.918" width="30" height="1.00392" style="fill:black;fill-opacity:0.2;"/>
                </g>
                <g id="Layer12">
                    <path d="M176.5,101.569C176.5,98.7964 174.262,96.549 171.5,96.549L81.5,96.549C78.7386,96.549 76.5,98.7964 76.5,101.569L76.5,206.98C76.5,209.753 78.7386,212 81.5,212L171.5,212C174.262,212 176.5,209.753 176.5,206.98Z" style="fill:rgb(249,249,249);"/>
                    <path d="M131.721,183.72C131.816,182.967 132.673,182.289 133.626,182.289L139.149,182.289C140.196,182.289 140.958,181.687 140.958,180.858L140.958,177.997C140.958,177.169 140.196,176.567 139.149,176.567L134.863,176.567C133.911,176.567 133.245,175.964 133.435,175.211L133.911,172.35C134.006,171.597 134.863,170.92 135.816,170.92L141.149,170.92C142.196,170.92 142.958,170.317 142.958,169.489L142.958,166.628C142.958,165.8 142.196,165.197 141.149,165.197L136.863,165.197C135.911,165.197 135.244,164.595 135.435,163.842L137.244,153.677C137.435,152.924 136.673,152.247 135.721,152.247L132.102,152.247C130.959,152.247 130.197,152.774 130.007,153.677L128.198,163.767C128.007,164.52 127.15,165.197 126.198,165.197L122.865,165.197C121.913,165.197 121.246,164.595 121.436,163.842L123.341,153.677C123.531,152.924 122.77,152.247 121.817,152.247L118.199,152.247C117.056,152.247 116.294,152.774 116.104,153.677L114.39,163.767C114.199,164.52 113.342,165.197 112.39,165.197L107.057,165.197C106.009,165.197 105.248,165.8 105.248,166.628L105.248,169.489C105.248,170.317 106.009,170.92 107.057,170.92L111.342,170.92C112.199,170.92 112.866,171.522 112.771,172.35L112.295,175.136C112.104,175.889 111.247,176.567 110.295,176.567L104.962,176.567C103.914,176.567 103.153,177.169 103.153,177.997L103.153,180.858C103.153,181.687 103.914,182.289 104.962,182.289L109.247,182.289C110.104,182.289 110.771,182.891 110.676,183.72L108.676,194.637C108.485,195.39 109.247,196.068 110.199,196.068L113.818,196.068C114.961,196.068 115.723,195.541 115.913,194.637L117.818,183.72C117.913,182.967 118.77,182.289 119.722,182.289L123.15,182.289C124.008,182.289 124.674,182.891 124.579,183.72L122.674,194.637C122.484,195.39 123.246,196.068 124.198,196.068L127.817,196.068C128.959,196.068 129.721,195.541 129.912,194.637ZM120.96,176.567C120.008,176.567 119.341,175.964 119.532,175.211L120.008,172.35C120.103,171.597 120.96,170.92 121.913,170.92L125.245,170.92C126.103,170.92 126.769,171.522 126.674,172.35L126.198,175.136C126.007,175.889 125.15,176.567 124.198,176.567Z" style="fill:black;fill-opacity:0.2;fill-rule:nonzero;"/>
                    <rect x="86.5" y="108.861" width="80" height="5.01961" style="fill:black;fill-opacity:0.2;"/>
                    <rect x="86.5" y="121.647" width="80" height="1.00392" style="fill:black;fill-opacity:0.2;"/>
                    <rect x="86.5" y="131.686" width="80" height="1.00392" style="fill:black;fill-opacity:0.2;"/>
                    <rect x="86.5" y="141.725" width="80" height="1.00392" style="fill:black;fill-opacity:0.2;"/>
                </g>
            </g>
        </g>
    </g>
</svg>
