<?xml version="1.0" standalone="no"?>
<!DOCTYPE svg PUBLIC "-//W3C//DTD SVG 1.1//EN" "http://www.w3.org/Graphics/SVG/1.1/DTD/svg11.dtd">
<svg width="512px" height="512px" version="1.1" xmlns="http://www.w3.org/2000/svg" xmlns:xlink="http://www.w3.org/1999/xlink" xml:space="preserve" style="fill-rule:evenodd;clip-rule:evenodd;stroke-linejoin:round;stroke-miterlimit:1.41421;">
    <g>
        <g>
            <path d="M7.29973e-06,232L7.29973e-06,381.75C7.29973e-06,395.972 0.0500073,396 19.25,396L364.75,396C383.95,396 384,395.972 384,381.75L384,232Z" style="fill:rgb(238,238,238);fill-rule:nonzero;"/>
        </g>
        <g>
            <path d="M19.25,76C0.0391419,76 7.29973e-06,76.0276 7.29973e-06,90.25L7.29973e-06,112L384,112L384,90.25C384,76.0278 383.95,76 364.75,76Z" style="fill:rgb(0,155,178);fill-rule:nonzero;"/>
        </g>
        <g>
            <rect x="7.29973e-06" y="112" width="384" height="120" style="fill:rgb(0,177,204);fill-rule:nonzero;"/>
        </g>
        <g>
            <path d="M317.405,179.999C272,179.999 272,179.999 272,224.799L272,327.199C272,371.999 272,371.999 317.405,371.999L367.67,372.271L367.399,436L424.693,372L466.595,372C512,372 512,372 512,327.2L512,224.8C512,180 512,180 466.595,180" style="fill:rgb(145,247,117);fill-rule:nonzero;"/>
        </g>
        <g>
            <path d="M328,219.999L456,219.999C472,219.999 472,219.999 472,227.999C472,235.999 472,235.999 456,235.999L328,235.999C312,235.999 312,235.999 312,227.999C312,219.999 311.158,219.999 328,219.999Z" style="fill:black;fill-opacity:0.231373;fill-rule:nonzero;"/>
        </g>
        <g>
            <path d="M328,267.999L456,267.999C472,267.999 472,267.999 472,275.999C472,283.999 472,283.999 456,283.999L328,283.999C312,283.999 312,283.999 312,275.999C312,267.999 311.158,267.999 328,267.999Z" style="fill:black;fill-opacity:0.231373;fill-rule:nonzero;"/>
        </g>
        <g>
            <path d="M328,315.999L456,315.999C472,315.999 472,315.999 472,323.999C472,331.999 472,331.999 456,331.999L328,331.999C312,331.999 312,331.999 312,323.999C312,315.999 311.158,315.999 328,315.999Z" style="fill:black;fill-opacity:0.231373;fill-rule:nonzero;"/>
        </g>
        <g>
            <path d="M56,267.999L184,267.999C200,267.999 200,267.999 200,275.999C200,283.999 200,283.999 184,283.999L56,283.999C40,283.999 40,283.999 40,275.999C40,267.999 39.1579,267.999 56,267.999Z" style="fill:black;fill-opacity:0.231373;fill-rule:nonzero;"/>
        </g>
        <g>
            <path d="M56,308L184,308C200,308 200,308 200,310C200,312 200,312 184,312L56,312C40,312 40,312 40,310C40,308 39.1579,308 56,308Z" style="fill:black;fill-opacity:0.231373;fill-rule:nonzero;"/>
        </g>
        <g>
            <path d="M56,340L184,340C200,340 200,340 200,342C200,344 200,344 184,344L56,344C40,344 40,344 40,342C40,340 39.1579,340 56,340Z" style="fill:black;fill-opacity:0.231373;fill-rule:nonzero;"/>
        </g>
        <g>
            <path d="M56,147.999L184,147.999C200,147.999 200,147.999 200,155.999C200,163.999 200,163.999 184,163.999L56,163.999C40,163.999 40,163.999 40,155.999C40,147.999 39.1579,147.999 56,147.999Z" style="fill:white;fill-opacity:0.231373;fill-rule:nonzero;"/>
        </g>
        <g>
            <path d="M56,188L184,188C200,188 200,188 200,190C200,192 200,192 184,192L56,192C40,192 40,192 40,190C40,188 39.1579,188 56,188Z" style="fill:white;fill-opacity:0.231373;fill-rule:nonzero;"/>
        </g>
    </g>
</svg>
